<svg xmlns="http://www.w3.org/2000/svg" width="58.936" height="62.335" viewBox="0 0 58.936 62.335"><g transform="translate(0 0)"><path d="M15.134,20.385H-20.032A6.205,6.205,0,0,1-26.215,14.2V-24.721c0-7.244,12.314-10.59,23.77-10.59s23.762,3.293,23.762,10.59V14.148a6.216,6.216,0,0,1-6.183,6.237M-2.445-33.489c-10.894,0-21.992,3.049-21.992,8.768V14.148a4.41,4.41,0,0,0,4.405,4.415H15.134a4.419,4.419,0,0,0,4.415-4.415V-24.721c0-3.293-3.6-5.317-6.587-6.429A45.558,45.558,0,0,0-2.445-33.489" transform="translate(31.889 35.311)"/><path d="M4.969,2.135H-6.987A1.625,1.625,0,0,1-8.607.558V-2.078A1.6,1.6,0,0,1-6.987-3.7H4.969A1.6,1.6,0,0,1,6.6-2.078V.558A1.594,1.594,0,0,1,4.969,2.135M-6.837.357H4.82V-1.92H-6.837Z" transform="translate(30.449 8.157)"/><path d="M17.083,8.514H-28.681a.9.9,0,0,1-.91-.91.9.9,0,0,1,.91-.912H17.083a.905.905,0,0,1,.912.912.939.939,0,0,1-.912.91m0-21.484H-28.681a.9.9,0,0,1-.91-.868.939.939,0,0,1,.91-.912H17.083a.912.912,0,0,1,.912.912.9.9,0,0,1-.912.868" transform="translate(35.267 27.264)"/><path d="M.333,8.534a.9.9,0,0,1-.91-.912V-13.862a.911.911,0,0,1,.91-.92.9.9,0,0,1,.858.92V7.622a.861.861,0,0,1-.858.912" transform="translate(29.059 27.245)"/><path d="M14.377,8.534a.912.912,0,0,1-.92-.912V-13.862a.92.92,0,0,1,.92-.92.907.907,0,0,1,.858.92V7.622a.866.866,0,0,1-.858.912m-38.363,0a.912.912,0,0,1-.92-.912V-13.862a.92.92,0,0,1,.92-.92.918.918,0,0,1,.912.92V7.622a.978.978,0,0,1-.912.912" transform="translate(34.275 27.245)"/><path d="M2.561,2.837H-2.51A1.927,1.927,0,0,1-4.437.911V-3A1.925,1.925,0,0,1-2.51-4.914H2.561A1.925,1.925,0,0,1,4.489-3V.857A1.939,1.939,0,0,1,2.561,2.837M-2.51-3.092a.158.158,0,0,0-.148.148V.911a.152.152,0,0,0,.148.148H2.561A.158.158,0,0,0,2.71.911V-3a.166.166,0,0,0-.148-.15H-2.51Z" transform="translate(14.77 46.018)"/><path d="M2.561,2.837H-2.51A1.927,1.927,0,0,1-4.437.911V-3A1.925,1.925,0,0,1-2.51-4.914H2.561A1.925,1.925,0,0,1,4.489-3V.857A1.939,1.939,0,0,1,2.561,2.837M-2.51-3.092a.16.16,0,0,0-.15.148V.911a.158.158,0,0,0,.15.148H2.561A.151.151,0,0,0,2.71.911V-3a.157.157,0,0,0-.148-.15H-2.51Z" transform="translate(44.112 46.018)"/><path d="M5.991.667H-9.468a.9.9,0,0,1-.91-.912.9.9,0,0,1,.91-.91H5.991a.9.9,0,0,1,.91.91.9.9,0,0,1-.91.912" transform="translate(31.206 41.19)"/><path d="M3.914.667H-5.87a.9.9,0,0,1-.91-.912.9.9,0,0,1,.91-.91H3.914a.9.9,0,0,1,.91.91.938.938,0,0,1-.91.912" transform="translate(30.444 45.044)"/><path d="M1.8.667h-4a.9.9,0,0,1-.91-.91.9.9,0,0,1,.91-.912h4a.905.905,0,0,1,.912.912A.9.9,0,0,1,1.8.667" transform="translate(29.671 48.898)"/><path d="M1.372,4.414H-1.465A.905.905,0,0,1-2.377,3.5a.906.906,0,0,1,.912-.91H1.372A2.013,2.013,0,0,0,3.352.613V-3.845A1.983,1.983,0,0,0,1.372-5.824H-1.465a.906.906,0,0,1-.912-.912.9.9,0,0,1,.912-.91H1.372A3.741,3.741,0,0,1,5.121-3.9V.561A3.833,3.833,0,0,1,1.372,4.414" transform="translate(53.814 25.689)"/><path d="M2.411,4.376H-.427A3.742,3.742,0,0,1-4.176.627V-3.831A3.737,3.737,0,0,1-.427-7.58H2.411a.906.906,0,0,1,.912.912.9.9,0,0,1-.912.91H-.427A2.017,2.017,0,0,0-2.406-3.787V.68A1.981,1.981,0,0,0-.427,2.65H2.411a.911.911,0,0,1,.912.912.828.828,0,0,1-.912.814" transform="translate(4.176 25.727)"/><path d="M1.984,3.116H.819A4.284,4.284,0,0,1-3.437-1.141V-4.487a.9.9,0,0,1,.91-.91.9.9,0,0,1,.912.91v3.345A2.484,2.484,0,0,0,.872,1.338H2.036a2.471,2.471,0,0,0,2.426-2.48V-4.487a.91.91,0,0,1,.912-.91.911.911,0,0,1,.92.91v3.345A4.364,4.364,0,0,1,1.984,3.116" transform="translate(16.058 59.219)"/><path d="M1.965,3.116H.8A4.239,4.239,0,0,1-3.4-1.141V-4.487a.9.9,0,0,1,.912-.91.9.9,0,0,1,.91.91v3.345A2.479,2.479,0,0,0,.853,1.338H2.017A2.489,2.489,0,0,0,4.5-1.141V-4.487a.9.9,0,0,1,.912-.91.9.9,0,0,1,.91.91v3.345A4.433,4.433,0,0,1,1.965,3.116" transform="translate(40.092 59.219)"/></g></svg>