<svg xmlns="http://www.w3.org/2000/svg" width="64.424" height="64.424" viewBox="0 0 64.424 64.424"><g transform="translate(0)"><path d="M.824,6.75c12.043-5.21,31.636-5.21,43.678,0a1.65,1.65,0,0,0,.64.132,1.611,1.611,0,0,0,1.5-2.2,25.743,25.743,0,0,0-47.956,0,1.607,1.607,0,0,0,.38,1.746,1.609,1.609,0,0,0,1.759.32M22.663-8.471A22.384,22.384,0,0,1,41.911,2.351,64.568,64.568,0,0,0,22.663-.413,64.568,64.568,0,0,0,3.415,2.351,22.384,22.384,0,0,1,22.663-8.471" transform="translate(9.549 18.134)"/><path d="M11.789,0A32.212,32.212,0,1,0,44,32.211,32.211,32.211,0,0,0,11.789,0m0,61.2A28.991,28.991,0,1,1,40.78,32.211,28.991,28.991,0,0,1,11.789,61.2" transform="translate(20.422 0)"/><path d="M7.991.168A1.636,1.636,0,0,0,6.713-.286C-5.92.892-12.834,8.752-13.838,23.074a1.615,1.615,0,0,0,.427,1.213,1.611,1.611,0,0,0,1.178.511,1.565,1.565,0,0,0,.331-.035A25.838,25.838,0,0,0,8.469,1.435,1.6,1.6,0,0,0,7.991.168m-18.4,20.877C-9.106,10.563-4.035,4.692,5.024,3.18A22.642,22.642,0,0,1-10.407,21.046" transform="translate(49.419 32.666)"/><path d="M.644,0A1.68,1.68,0,0,0-.633.456a1.608,1.608,0,0,0-.478,1.267A25.839,25.839,0,0,0,19.259,25.051a1.55,1.55,0,0,0,.33.035,1.609,1.609,0,0,0,1.606-1.724C20.191,9.038,13.277,1.18.644,0M2.333,3.465c9.06,1.514,14.129,7.383,15.431,17.868A22.644,22.644,0,0,1,2.333,3.465" transform="translate(7.647 32.379)"/><path d="M4.716,2.358A6.442,6.442,0,0,0-1.727-4.084,6.442,6.442,0,0,0-8.169,2.358,6.443,6.443,0,0,0-1.727,8.8,6.45,6.45,0,0,0,4.716,2.358M-1.727,5.578A3.221,3.221,0,0,1-4.948,2.358,3.221,3.221,0,0,1-1.727-.863,3.221,3.221,0,0,1,1.5,2.358,3.225,3.225,0,0,1-1.727,5.578" transform="translate(33.938 29.854)"/></g></svg>