<svg xmlns="http://www.w3.org/2000/svg" width="50.253" height="65.557" viewBox="0 0 50.253 65.557"><g transform="translate(-0.001)"><path d="M.4,23.989H24.433a1.092,1.092,0,1,0,0-2.185H1.493V19.357a7.645,7.645,0,0,1,4-6.73l9.738-5.319a5.045,5.045,0,0,0,2.65-4.456V.333a2.152,2.152,0,0,0-.442-1.319,25.825,25.825,0,0,1-2.169-3.427h5A3.273,3.273,0,0,0,23.34-2.228h3.278A3.277,3.277,0,0,0,29.9-5.506a3.278,3.278,0,0,0-3.278-3.278H23.34A3.275,3.275,0,0,0,20.264-6.6H14.258a16.967,16.967,0,0,1-.749-2.312V-24.077a1.115,1.115,0,0,0-.009-.144A7.569,7.569,0,0,1,15.252-29.7c1.809-2.066,4.9-3.114,9.181-3.114,4.267,0,7.35,1.041,9.162,3.09a7.681,7.681,0,0,1,1.771,5.506,1.115,1.115,0,0,0-.009.144V-8.91A23.087,23.087,0,0,1,31.43-.986,2.164,2.164,0,0,0,30.987.333V2.961a5.034,5.034,0,0,0,2.746,4.514l9.4,5.233a7.644,7.644,0,0,1,4.237,6.868V21.8H13.509a1.092,1.092,0,1,0,0,2.185H48.466A1.093,1.093,0,0,0,49.559,22.9v-3.32a9.8,9.8,0,0,0-5.4-8.8l-9.4-5.232a2.876,2.876,0,0,1-1.584-2.585L33.167.339a25.266,25.266,0,0,0,4.347-8.877,1.071,1.071,0,0,0,.028-.246v-2.185H40.82A3.28,3.28,0,0,0,44.1-14.246V-20.8a3.268,3.268,0,0,0-2.185-3.076v-.2A17.477,17.477,0,0,0,24.433-41.555,17.478,17.478,0,0,0,6.955-24.077v.2A3.271,3.271,0,0,0,4.769-20.8v6.554a3.275,3.275,0,0,0,2.186,3.077v2.385a4.374,4.374,0,0,0,4.369,4.371h1.5A27.969,27.969,0,0,0,15.693.333V2.852a2.868,2.868,0,0,1-1.506,2.536L4.446,10.707a9.831,9.831,0,0,0-5.139,8.65V22.9A1.093,1.093,0,0,0,.4,23.989M23.34-6.6h3.278a1.092,1.092,0,0,1,1.093,1.091,1.093,1.093,0,0,1-1.093,1.093H23.34a1.092,1.092,0,0,1-1.091-1.093A1.092,1.092,0,0,1,23.34-6.6m18.573-7.648a1.1,1.1,0,0,1-1.093,1.093H37.542v-8.74H40.82A1.1,1.1,0,0,1,41.913-20.8ZM24.433-39.37A15.311,15.311,0,0,1,39.727-24.077h-2.18a9.767,9.767,0,0,0-2.289-7.066C33.015-33.7,29.373-35,24.433-35s-8.582,1.3-10.825,3.858a9.767,9.767,0,0,0-2.289,7.066H9.14A15.311,15.311,0,0,1,24.433-39.37M6.955-20.8a1.094,1.094,0,0,1,1.091-1.093h3.278v8.74H8.047a1.092,1.092,0,0,1-1.091-1.091ZM11.324-6.6A2.188,2.188,0,0,1,9.14-8.784v-2.185h2.185v2.185a1.071,1.071,0,0,0,.028.246A18.13,18.13,0,0,0,11.93-6.6Z" transform="translate(0.694 41.555)"/><path d="M.116.116-.015.28a.925.925,0,0,0-.1.2.658.658,0,0,0-.065.2A1.668,1.668,0,0,0-.2.892a1.15,1.15,0,0,0,.317.776A1.078,1.078,0,0,0,1.9,1.307,1.1,1.1,0,0,0,1.984.892,1.1,1.1,0,0,0,.116.116" transform="translate(8.941 63.56)"/></g></svg>