<svg xmlns="http://www.w3.org/2000/svg" width="57.358" height="57.358" viewBox="0 0 57.358 57.358"><g transform="translate(0)"><path d="M20.993,4.4V-4.849a2.778,2.778,0,0,0-2.776-2.776h-1.85a2.778,2.778,0,0,0-2.774,2.776v1.943A10.739,10.739,0,0,0,4.7-7.625H.64A6.484,6.484,0,0,0-5.837-1.149,2.779,2.779,0,0,0-3.061,1.626h1.5a2.764,2.764,0,0,0-.576,1.692v3.86A4.631,4.631,0,0,0,2.49,11.8v1.781a6.649,6.649,0,0,0-.56.593L-.718,17.355H-8.256a4.045,4.045,0,0,0-2.588-.926h-.543v-3.7a3.7,3.7,0,0,0-3.7-3.7,3.7,3.7,0,0,0-3.7,3.7v.924h-1.822a4.644,4.644,0,0,0-4.454,3.374l-6.6,23.456h-.079a4.6,4.6,0,0,0-2.776.927V9.028h1.85V11.8a4.632,4.632,0,0,0,4.626,4.626,2.778,2.778,0,0,0,2.774-2.776v-18.5a2.778,2.778,0,0,0-2.774-2.776A4.632,4.632,0,0,0-32.665-3V-.224a3.7,3.7,0,0,0-3.7,3.7V45.109a4.629,4.629,0,0,0,4.625,4.625H20.993V43.258a4.632,4.632,0,0,0-2.53-4.123,6.468,6.468,0,0,0,2.53-5.129V9.028a3.685,3.685,0,0,0-.984-2.509A2.771,2.771,0,0,0,20.993,4.4M-30.815-3A2.779,2.779,0,0,1-28.04-5.775a.926.926,0,0,1,.926.926v18.5a.926.926,0,0,1-.926.926A2.778,2.778,0,0,1-30.815,11.8Zm46.257-1.85a.926.926,0,0,1,.924-.926h1.85a.926.926,0,0,1,.926.926V4.4a.927.927,0,0,1-.926.926h-1.85a.927.927,0,0,1-.924-.926Zm-19.429,3.7A4.632,4.632,0,0,1,.64-5.775H4.7a8.9,8.9,0,0,1,8.89,8.888V4.4a2.761,2.761,0,0,0,.3,1.263,3.708,3.708,0,0,0-2.115,2.823A8.857,8.857,0,0,1,8.04,11.351V8.769l.674-.224a3.076,3.076,0,0,0-.672-5.98V2.552A2.78,2.78,0,0,0,5.266-.224H.64a.926.926,0,0,1-.924-.924A.926.926,0,0,1,.64-2.075H3.416v-1.85H.64A2.779,2.779,0,0,0-2.135-1.149a2.761,2.761,0,0,0,.158.924H-3.061a.927.927,0,0,1-.926-.924M-15.794,37.706a2.752,2.752,0,0,0-.64-.528L-20.8,34.556l.159-.32a2.077,2.077,0,0,1,1.869-1.155,2.085,2.085,0,0,1,1.158.35l3.6,2.4a.953.953,0,0,1,.375,1.093,1.143,1.143,0,0,1-1.087.782Zm-9.358,5.065.924-3.827a2.816,2.816,0,0,0,.312.218l1.877,1.126-1.473,2.948q-.826-.211-1.64-.465m2.188-5.2a.926.926,0,0,1-.317-1.27.928.928,0,0,1,.793-.45.918.918,0,0,1,.475.132l4.626,2.774a.927.927,0,0,1,.317,1.27.928.928,0,0,1-.793.45.931.931,0,0,1-.475-.131Zm9.98-3.279-.006,0-2.864-1.91,4.039-4.038a2.759,2.759,0,0,1,1.962-.814H3.19a1.837,1.837,0,0,1,1.309.543L5.537,29.11,6.845,27.8l-.886-.886,5.784-1.05v.741A4.631,4.631,0,0,1,7.116,31.23H-9.92ZM11.742,13.825a6.646,6.646,0,0,0-1.811-1.331,10.694,10.694,0,0,0,1.811-1.268ZM2.49,9.952A2.777,2.777,0,0,1-.285,7.178V3.318a.919.919,0,0,1,.271-.655L1.023,1.626H5.266a.927.927,0,0,1,.924.926V4.4h1.55A1.226,1.226,0,0,1,8.129,6.79L6.19,7.435v4.418a6.6,6.6,0,0,0-1.85.509V9.952ZM.966,18.222l2.385-2.861A4.745,4.745,0,0,1,11.742,18.4v5.584L2.49,25.665V23.777A6.441,6.441,0,0,0,6.73,21.4l2.033-2.543L7.318,17.7,5.285,20.244a4.6,4.6,0,0,1-3.612,1.735h-9.36V19.2H-.668L.911,20.784l1.308-1.308Zm-10.5.483v3.274h-2.009a1.693,1.693,0,0,1-1.691-1.691V19.97a1.693,1.693,0,0,1,1.691-1.691h.7a2.208,2.208,0,0,1,1.308.426m-7.4-5.976a1.852,1.852,0,0,1,1.85-1.85,1.852,1.852,0,0,1,1.85,1.85v4.131a3.544,3.544,0,0,0-1.85,3.11v.319a3.536,3.536,0,0,0,1.442,2.849,1.858,1.858,0,0,1-1.442.692,1.852,1.852,0,0,1-1.85-1.85Zm1.85,12.951a3.72,3.72,0,0,0,3.211-1.866c.109.009.219.016.33.016H.64v1.85H-9.854a4.6,4.6,0,0,0-3.271,1.355l-4.4,4.4a3.929,3.929,0,0,0-1.249-.207A3.918,3.918,0,0,0-22.3,33.408l-.3.6a2.714,2.714,0,0,0-.451.057l3.142-13.013h1.121v.926a3.7,3.7,0,0,0,3.7,3.7m-8.194-8.151A2.785,2.785,0,0,1-20.609,15.5h1.822v3.7h-1.121a1.846,1.846,0,0,0-1.8,1.415l-5.2,21.541c-.923-.353-1.83-.749-2.711-1.191q-.111-.054-.227-.1Zm-9.383-15.9V7.178h-1.85v-3.7a1.853,1.853,0,0,1,1.85-1.85M-8.611,47.883H-31.74a2.777,2.777,0,0,1-2.774-2.774,2.779,2.779,0,0,1,2.774-2.776h.052a2.779,2.779,0,0,1,1.241.293,32.442,32.442,0,0,0,14.434,3.407h7.4Zm0-4.625v.924h-7.4a30.357,30.357,0,0,1-5.637-.535l1.2-2.4,1.158.694a2.77,2.77,0,0,0,1.426.394,2.788,2.788,0,0,0,2.38-1.347,2.758,2.758,0,0,0,.394-1.429h.36a2.994,2.994,0,0,0,2.842-2.047,2.8,2.8,0,0,0,.016-1.71l2.718-2.718h.543v2.774a4.618,4.618,0,0,0,1.853,3.7,4.624,4.624,0,0,0-1.853,3.7m24.054,4.625h-18.5v-3.7h18.5Zm.924-7.4a2.779,2.779,0,0,1,2.776,2.776v4.625h-1.85v-3.7a1.853,1.853,0,0,0-1.85-1.85h-18.5a1.852,1.852,0,0,0-1.85,1.85v3.7h-1.85V43.258a2.778,2.778,0,0,1,2.774-2.776H16.367Zm2.776-6.476a4.632,4.632,0,0,1-4.626,4.626h-18.5a2.779,2.779,0,0,1-2.774-2.776V33.082H7.116a6.484,6.484,0,0,0,6.476-6.476V9.028a1.852,1.852,0,0,1,1.85-1.85h1.85a1.852,1.852,0,0,1,1.85,1.85Z" transform="translate(36.365 7.625)"/></g></svg>