<svg xmlns="http://www.w3.org/2000/svg" width="67.146" height="67.149" viewBox="0 0 67.146 67.149"><g transform="translate(0 0)"><path d="M3.012,6.025a8.239,8.239,0,0,0,8.23-8.23,8.23,8.23,0,0,0-8.23-8.23,8.23,8.23,0,0,0-8.23,8.23,8.23,8.23,0,0,0,8.23,8.23m0-13.057A4.833,4.833,0,0,1,7.839-2.206,4.826,4.826,0,0,1,3.012,2.621,4.826,4.826,0,0,1-1.814-2.206,4.826,4.826,0,0,1,3.012-7.032" transform="translate(14.025 10.436)"/><path d="M12.841,0H-20.541a1.7,1.7,0,0,0-1.7,1.7,1.7,1.7,0,0,0,1.7,1.7H12.841a1.7,1.7,0,0,1,1.7,1.7V39.413a1.7,1.7,0,0,1-1.7,1.7h-30.53a1.7,1.7,0,0,0-1.7,1.7,1.7,1.7,0,0,0,1.7,1.7h30.53a5.1,5.1,0,0,0,5.1-5.1V5.1a5.1,5.1,0,0,0-5.1-5.1" transform="translate(49.202 0.039)"/><path d="M19.6,17.687H-7.537V-14.488a.164.164,0,0,1,.114-.159.168.168,0,0,1,.169.043l2.662,2.666A5.5,5.5,0,0,0-.679-10.318H7.25l.114,0a5.534,5.534,0,0,0,5.421-5.647,5.386,5.386,0,0,0-.674-2.5l8.327-9.33a1.7,1.7,0,0,0-.136-2.4,1.7,1.7,0,0,0-2.405.136L9.643-20.817a5.594,5.594,0,0,0-2.467-.573H1.617l-3.166-3.166a10.5,10.5,0,0,0-7.48-3.1h-1.935a1.7,1.7,0,0,0-1.088.393l-3.043,2.533a2.838,2.838,0,0,1-3.631,0l-3.044-2.532a1.705,1.705,0,0,0-1.088-.394h-1.721a9.382,9.382,0,0,0-9.371,9.369V-4.2a5.541,5.541,0,0,0,5.536,5.536A5.516,5.516,0,0,0-26.28.911V17.687h-5.964a1.7,1.7,0,0,0-1.7,1.7,1.7,1.7,0,0,0,1.7,1.7H19.6a1.7,1.7,0,1,0,0-3.4m-34.808,0V-3.2a1.7,1.7,0,0,0-1.7-1.7,1.7,1.7,0,0,0-1.7,1.7V17.687h-4.265V-16.335a1.7,1.7,0,0,0-1.7-1.7,1.7,1.7,0,0,0-1.7,1.7V-4.2a2.134,2.134,0,0,1-2.132,2.134A2.135,2.135,0,0,1-30.547-4.2V-18.282a5.976,5.976,0,0,1,5.968-5.967h1.106L-20.9-22.11a6.24,6.24,0,0,0,7.976,0l2.573-2.139h1.32a7.12,7.12,0,0,1,5.073,2.1l3.664,3.662a1.7,1.7,0,0,0,1.2.5h6.26a2.246,2.246,0,0,1,1.533.6l.035.035a2.088,2.088,0,0,1,.64,1.45v.044a2.133,2.133,0,0,1-2.132,2.132H-.674a2.119,2.119,0,0,1-1.508-.623L-4.85-17.009a3.567,3.567,0,0,0-2.525-1.047,3.57,3.57,0,0,0-3.569,3.571V17.687Z" transform="translate(33.949 46.06)"/><path d="M.623,1.246H9.445a1.7,1.7,0,0,0,1.7-1.7,1.7,1.7,0,0,0-1.7-1.7H.623a1.7,1.7,0,0,0-1.7,1.7,1.7,1.7,0,0,0,1.7,1.7" transform="translate(34.846 17.58)"/><path d="M.623,1.246H18.268a1.7,1.7,0,0,0,1.7-1.7,1.7,1.7,0,0,0-1.7-1.7H.623a1.7,1.7,0,0,0-1.7,1.7,1.7,1.7,0,0,0,1.7,1.7" transform="translate(34.846 9.888)"/></g></svg>