<svg xmlns="http://www.w3.org/2000/svg" width="77.31" height="68.137" viewBox="0 0 77.31 68.137"><g transform="translate(0)"><path d="M13.676,11.936a2.263,2.263,0,0,0-1.6-.662h0c-2.631,0-6.6,0-6.976,0A6.866,6.866,0,0,1-.789,7.237L-8.862-10.348a17.919,17.919,0,0,0-6.267-7.388,17.337,17.337,0,0,0-8.562-2.94v16.06a6.651,6.651,0,0,1,2.514,2.852l8.216,17.825a17.928,17.928,0,0,0,6.268,7.374A17.329,17.329,0,0,0,2.534,26.4c.114,0,3.323,0,9.541.006h0a2.264,2.264,0,0,0,2.265-2.265v-10.6a2.262,2.262,0,0,0-.664-1.6" transform="translate(62.97 40.768)"/><path d="M12.718,0H-22.031V17.853a2.265,2.265,0,0,0,2.265,2.265h6.014V13.385a9.106,9.106,0,0,1,9.095-9.1,9.106,9.106,0,0,1,9.1,9.1v6.733s7.544,0,8.279,0Z" transform="translate(22.031 16.031)"/><path d="M5,0V4.59H-4.131V0h-4.53V29.722A2.265,2.265,0,0,0-6.4,31.987a2.265,2.265,0,0,0,2.265-2.265V27.257H5v2.465a2.265,2.265,0,1,0,4.53,0V0ZM5,13.659H-4.131V9.12H5Zm-9.131,4.53H5v4.539H-4.131Z" transform="translate(16.94 36.149)"/><path d="M3.342,1.671A4.569,4.569,0,0,0-1.223-2.894,4.571,4.571,0,0,0-5.789,1.671V8.4H3.342Z" transform="translate(18.598 27.745)"/><path d="M12.718,4.21,3.163-6.429a2.269,2.269,0,0,0-1.779-.863H-10.7a2.266,2.266,0,0,0-1.778.863L-22.031,4.21Z" transform="translate(22.031 7.292)"/></g></svg>