<svg xmlns="http://www.w3.org/2000/svg" width="61.465" height="57.355" viewBox="0 0 61.465 57.355"><g transform="translate(0)"><path d="M16.7,11.529V-7.985a2.6,2.6,0,0,0-2.593-2.6h-.64A2.6,2.6,0,0,0,10.87-7.991v3.268a8.547,8.547,0,0,0-8.125-5.932H-13.065a1.138,1.138,0,0,0-1.087.811,4.448,4.448,0,0,0-8.192,2.379,4.455,4.455,0,0,0,3.312,4.3H-23.1V-17.38a2.6,2.6,0,0,0-2.593-2.591h-.634a2.6,2.6,0,0,0-2.6,2.591V11.529a1.132,1.132,0,0,0,1.132,1.132h3.56A1.132,1.132,0,0,0-23.1,11.529V6.518H10.87v5.011A1.132,1.132,0,0,0,12,12.662h3.56A1.132,1.132,0,0,0,16.7,11.529M-11.933-8.384H2.746a6.308,6.308,0,0,1,6.265,6.7H-11.933Zm-8.147.924A2.18,2.18,0,0,1-17.9-9.638a2.178,2.178,0,0,1,0,4.356A2.179,2.179,0,0,1-20.079-7.46M-14.2-5.007V-3.16h-2.574A4.454,4.454,0,0,0-14.2-5.007M-25.36,10.4h-1.295V-17.38a.327.327,0,0,1,.328-.326h.639a.327.327,0,0,1,.328.326ZM-23.1,4.261V-.9h8.9v.353A1.131,1.131,0,0,0-13.065.587H10.143A1.123,1.123,0,0,0,10.87.324V4.25ZM14.43,10.4H13.135V-7.985a.327.327,0,0,1,.326-.328h.64a.328.328,0,0,1,.328.328Z" transform="translate(36.846 44.694)"/><path d="M.192,8.161a1.13,1.13,0,0,0,1.087.071L30.4-5.358l29.12,13.59a1.132,1.132,0,0,0,1.612-1.027V.81A1.13,1.13,0,0,0,60.48-.216L30.927-14.011a1.143,1.143,0,0,0-1.046,0L.321-.216A1.133,1.133,0,0,0-.332.81v6.4a1.134,1.134,0,0,0,.524.956M1.933,1.532,30.4-11.757,58.868,1.532v3.9L30.878-7.637a1.129,1.129,0,0,0-.957,0L1.933,5.428Z" transform="translate(0.332 14.137)"/></g></svg>