<svg xmlns="http://www.w3.org/2000/svg" width="74.894" height="60.399" viewBox="0 0 74.894 60.399"><g transform="translate(0.001 0)"><path d="M26.085,1.769H4.219a6.04,6.04,0,0,0-7.126-4.71,6.041,6.041,0,0,0-4.708,4.71H-41.56a3.628,3.628,0,0,0-3.625,3.623V53.711a3.629,3.629,0,0,0,3.625,3.625H26.085a3.63,3.63,0,0,0,3.625-3.625V5.392a3.629,3.629,0,0,0-3.625-3.623M-37.937,38.007h3.683A12.776,12.776,0,0,0-30.543,45.9l1.415,1.416a1.208,1.208,0,0,0,1.708,0L-26,45.9a12.776,12.776,0,0,0,3.711-7.894h2.475a1.21,1.21,0,0,1,1.208,1.208V50.088H-37.937ZM-31.9,36.8a3.625,3.625,0,0,1,3.625-3.623A3.625,3.625,0,0,1-24.649,36.8a10.393,10.393,0,0,1-3.063,7.394l-.562.562-.562-.562A10.393,10.393,0,0,1-31.9,36.8m12.08-1.207h-2.538a6.041,6.041,0,0,0-7.126-4.71,6.039,6.039,0,0,0-4.71,4.71h-3.746V28.345h18.12a3.629,3.629,0,0,0,3.623-3.625V9.017h4.833v15.7a3.629,3.629,0,0,0,3.623,3.625H.747A5.985,5.985,0,0,0-.491,31.968,12.992,12.992,0,0,0,.03,35.592H-7.739a3.626,3.626,0,0,0-3.623,3.623V50.088h-4.833V39.215a3.626,3.626,0,0,0-3.623-3.623m-18.12-9.664V9.017h19.328v15.7a1.209,1.209,0,0,1-1.208,1.208ZM5.55,28.345a3.626,3.626,0,0,1,3.623,3.623,10.391,10.391,0,0,1-3.062,7.394l-.562.562-.562-.562a10.386,10.386,0,0,1-3.063-7.394A3.628,3.628,0,0,1,5.55,28.345m-14.5,10.871a1.21,1.21,0,0,1,1.208-1.208H1.009A12.9,12.9,0,0,0,3.28,41.07L4.7,42.485a1.208,1.208,0,0,0,1.708,0L7.82,41.07a12.933,12.933,0,0,0,2.27-3.063H22.462v12.08H-8.947ZM22.462,25.928H16.421a1.209,1.209,0,0,1-1.208-1.208V9.017h7.249Zm-6.041,2.416h6.041v7.248H11.069a12.934,12.934,0,0,0,.521-3.625,6.034,6.034,0,0,0-4-5.662,3.571,3.571,0,0,0,.38-1.585V9.017H12.8v15.7a3.629,3.629,0,0,0,3.623,3.625M5.55,24.72a1.209,1.209,0,0,1-1.208,1.208H-7.739A1.209,1.209,0,0,1-8.947,24.72V9.017h2.708a12.856,12.856,0,0,0,2.271,3.062l1.415,1.416a1.208,1.208,0,0,0,1.708,0L.571,12.078A12.856,12.856,0,0,0,2.842,9.017H5.55ZM-1.7-.648A3.629,3.629,0,0,1,1.925,2.977a10.391,10.391,0,0,1-3.062,7.394l-.562.562-.562-.562A10.386,10.386,0,0,1-5.322,2.977,3.629,3.629,0,0,1-1.7-.648M27.293,53.711a1.208,1.208,0,0,1-1.208,1.208H-41.56a1.208,1.208,0,0,1-1.208-1.208V5.392A1.208,1.208,0,0,1-41.56,4.185H-7.679A12.848,12.848,0,0,0-7.218,6.6H-39.146a1.208,1.208,0,0,0-1.208,1.208V51.3A1.208,1.208,0,0,0-39.146,52.5H23.668A1.208,1.208,0,0,0,24.877,51.3V7.808A1.208,1.208,0,0,0,23.668,6.6H3.821a12.848,12.848,0,0,0,.461-2.415h21.8a1.208,1.208,0,0,1,1.208,1.207Z" transform="translate(45.184 3.064)" fill="#ee7623"/><path d="M306.408-311.23h2.416v2.416h-2.416Z" transform="translate(-290.706 351.093)" fill="#ee7623"/><path d="M327.852-314.293h2.416v2.416h-2.416Z" transform="translate(-278.327 349.325)" fill="#ee7623"/><path d="M323.257-332.673h2.416v2.415h-2.416Z" transform="translate(-280.98 338.714)" fill="#ee7623"/></g></svg>