<svg xmlns="http://www.w3.org/2000/svg" width="65.23" height="65.229" viewBox="0 0 65.23 65.229"><path d="M0,0V2.174H1.087V3.262A5.438,5.438,0,0,0,4.349,8.237V26.092H2.175v2.175H4.349V46.748H60.882V28.267h2.174V26.092H60.882V8.237a5.434,5.434,0,0,0,3.26-4.975V2.174H65.23V0ZM46.748,2.174h6.524V3.262a3.262,3.262,0,1,1-6.524,0Zm-8.7,0h6.524V3.262a3.262,3.262,0,1,1-6.524,0Zm-8.7,0h6.524V3.262a3.262,3.262,0,1,1-6.524,0Zm-8.7,0H27.18V3.262a3.262,3.262,0,1,1-6.524,0Zm-8.7,0h6.522V3.262a3.261,3.261,0,1,1-6.522,0ZM10.872,6.489a5.386,5.386,0,0,0,8.7,0,5.413,5.413,0,0,0,1.046,1.06A20.646,20.646,0,0,1,9.79,24.765L7.336,26.092H6.524V8.7a5.416,5.416,0,0,0,4.349-2.208M3.262,3.262V2.174H9.784V3.262a3.261,3.261,0,1,1-6.522,0m8.7,41.312H6.524V28.267h.528l1.468,2.055a18.379,18.379,0,0,1,3.438,10.74Zm39.137,0H14.133V41.062a20.532,20.532,0,0,0-3.844-12l-.566-.792h4.41V26.092h-2.3A22.834,22.834,0,0,0,22.74,8.56a5.339,5.339,0,0,0,5.527-2.071,5.386,5.386,0,0,0,8.7,0A5.338,5.338,0,0,0,42.491,8.56,22.826,22.826,0,0,0,53.4,26.092H51.1v2.175h4.412l-.566.792a20.533,20.533,0,0,0-3.845,12Zm7.61,0H53.271V41.062a18.368,18.368,0,0,1,3.438-10.74l1.468-2.055h.528Zm0-18.483h-.812l-2.456-1.326A20.648,20.648,0,0,1,44.614,7.549a5.378,5.378,0,0,0,1.047-1.06,5.386,5.386,0,0,0,8.7,0A5.413,5.413,0,0,0,58.707,8.7Zm3.262-22.83a3.262,3.262,0,1,1-6.524,0V2.174h6.524Z" transform="translate(0 0)"/><path d="M4.775,2.388V-.874A3.262,3.262,0,0,0,1.513-4.136H-5.009A3.262,3.262,0,0,0-8.271-.874V2.388H-6.1V-.874A1.087,1.087,0,0,1-5.009-1.961H1.513A1.086,1.086,0,0,1,2.6-.874V2.388Z" transform="translate(34.365 53.058)"/><path d="M4.775,2.388V-.874A3.262,3.262,0,0,0,1.513-4.136H-5.009A3.262,3.262,0,0,0-8.271-.874V2.388H-6.1V-.874A1.087,1.087,0,0,1-5.009-1.961H1.513A1.087,1.087,0,0,1,2.6-.874V2.388Z" transform="translate(19.143 53.058)"/><path d="M4.775,2.388V-.874A3.262,3.262,0,0,0,1.513-4.136H-5.009A3.262,3.262,0,0,0-8.271-.874V2.388H-6.1V-.874A1.087,1.087,0,0,1-5.009-1.961H1.513A1.087,1.087,0,0,1,2.6-.874V2.388Z" transform="translate(49.585 53.058)"/><path d="M22.681,1.194a3.262,3.262,0,0,0-3.262-3.262H12.9A3.262,3.262,0,0,0,9.635,1.194V4.456H7.46V1.194A3.262,3.262,0,0,0,4.2-2.068H-2.324A3.262,3.262,0,0,0-5.586,1.194V4.456H-7.76V1.194a3.262,3.262,0,0,0-3.262-3.262h-6.524a3.261,3.261,0,0,0-3.26,3.262V4.456H-22.98V1.194a3.262,3.262,0,0,0-3.262-3.262h-6.522a3.262,3.262,0,0,0-3.262,3.262V4.456h-3.262V6.629h65.23V4.456H22.681Zm-10.872,0A1.087,1.087,0,0,1,12.9.107h6.522a1.086,1.086,0,0,1,1.087,1.087V4.456h-8.7Zm-15.219,0A1.086,1.086,0,0,1-2.324.107H4.2A1.087,1.087,0,0,1,5.286,1.194V4.456h-8.7Zm-15.221,0A1.087,1.087,0,0,1-17.545.107h6.524A1.086,1.086,0,0,1-9.935,1.194V4.456h-8.7Zm-15.221,0A1.087,1.087,0,0,1-32.764.107h6.522a1.086,1.086,0,0,1,1.087,1.087V4.456h-8.7Z" transform="translate(39.288 58.6)"/></svg>