<svg xmlns="http://www.w3.org/2000/svg" width="62.194" height="62.196" viewBox="0 0 62.194 62.196"><g transform="translate(0.001)"><path d="M.889,0A2.43,2.43,0,1,1-1.54,2.429,2.429,2.429,0,0,1,.889,0" transform="translate(45.998 23.08)"/><path d="M19.206,1.779H16.049V-.65a2.431,2.431,0,0,0-2.431-2.431A2.43,2.43,0,0,0,11.189-.65V1.779H.135V-.65A2.431,2.431,0,0,0-2.3-3.081,2.43,2.43,0,0,0-4.724-.65V1.779H-15.656V-.65a2.431,2.431,0,0,0-2.431-2.431A2.43,2.43,0,0,0-20.516-.65V1.779h-3.036A9.728,9.728,0,0,0-33.27,11.5V49.4a9.728,9.728,0,0,0,9.718,9.718H-4.967a2.429,2.429,0,0,0,2.429-2.429,2.429,2.429,0,0,0-2.429-2.431H-23.552a4.865,4.865,0,0,1-4.86-4.858V11.5a4.865,4.865,0,0,1,4.86-4.86h3.036V9.067A2.429,2.429,0,0,0-18.087,11.5a2.429,2.429,0,0,0,2.431-2.429V6.637H-4.724V9.067A2.429,2.429,0,0,0-2.3,11.5,2.429,2.429,0,0,0,.135,9.067V6.637H11.189V9.067a2.43,2.43,0,0,0,4.86,0V6.637h3.158a4.865,4.865,0,0,1,4.86,4.86V25.345a2.429,2.429,0,1,0,4.858,0V11.5a9.729,9.729,0,0,0-9.718-9.718" transform="translate(33.269 3.081)"/><path d="M5.38,0a14.7,14.7,0,1,0,14.7,14.7A14.715,14.715,0,0,0,5.38,0m0,24.538A9.839,9.839,0,1,1,15.219,14.7,9.85,9.85,0,0,1,5.38,24.538" transform="translate(42.115 32.799)"/><path d="M2.179,1.823H1.086V-.727A2.43,2.43,0,0,0-1.343-3.158,2.431,2.431,0,0,0-3.774-.727v4.98A2.431,2.431,0,0,0-1.343,6.683H2.179a2.43,2.43,0,0,0,0-4.86" transform="translate(48.838 43.244)"/><path d="M.889,0A2.43,2.43,0,1,1-1.54,2.429,2.429,2.429,0,0,1,.889,0" transform="translate(35.43 23.08)"/><path d="M.889,0A2.429,2.429,0,1,1-1.54,2.429,2.429,2.429,0,0,1,.889,0" transform="translate(24.862 33.649)"/><path d="M.889,0A2.43,2.43,0,1,1-1.54,2.429,2.429,2.429,0,0,1,.889,0" transform="translate(14.294 23.08)"/><path d="M.889,0A2.429,2.429,0,1,1-1.54,2.429,2.429,2.429,0,0,1,.889,0" transform="translate(14.294 33.649)"/><path d="M.889,0A2.43,2.43,0,1,1-1.54,2.429,2.429,2.429,0,0,1,.889,0" transform="translate(14.294 44.217)"/><path d="M.889,0A2.43,2.43,0,1,1-1.54,2.429,2.429,2.429,0,0,1,.889,0" transform="translate(24.862 44.217)"/><path d="M.889,0A2.43,2.43,0,1,1-1.54,2.429,2.429,2.429,0,0,1,.889,0" transform="translate(24.862 23.08)"/></g></svg>