<svg xmlns="http://www.w3.org/2000/svg" width="65.23" height="65.229" viewBox="0 0 65.23 65.229"><path d="M0,4.476V-5.207A2.547,2.547,0,0,1,2.547-7.754H12.23a2.549,2.549,0,0,1,2.549,2.547A2.549,2.549,0,0,1,12.23-2.658H5.1V4.476a2.548,2.548,0,1,1-5.1,0M62.681-7.754H53a2.547,2.547,0,0,0-2.547,2.547A2.548,2.548,0,0,0,53-2.658h7.136V4.476a2.548,2.548,0,1,0,5.1,0V-5.207a2.549,2.549,0,0,0-2.549-2.547M12.23,52.379H5.1V45.245a2.548,2.548,0,0,0-5.1,0v9.683a2.547,2.547,0,0,0,2.547,2.547H12.23a2.548,2.548,0,1,0,0-5.1M62.681,42.7a2.547,2.547,0,0,0-2.547,2.547v7.134H53a2.548,2.548,0,0,0,0,5.1h9.683a2.549,2.549,0,0,0,2.549-2.547V45.245A2.549,2.549,0,0,0,62.681,42.7M32.615,45.418c-15.883,0-27.732-11.252-32.284-19.3a2.55,2.55,0,0,1,0-2.509C5.574,14.334,17.94,4.3,32.615,4.3c15.882,0,27.73,11.254,32.282,19.3a2.55,2.55,0,0,1,0,2.509c-5.241,9.271-17.609,19.3-32.282,19.3M59.656,24.86C53.581,15.959,43.9,9.4,32.615,9.4,21.287,9.4,11.621,16,5.573,24.86c6.077,8.9,15.759,15.462,27.043,15.462,11.328,0,20.992-6.6,27.041-15.462m-14.939,0a12.1,12.1,0,1,1-12.1-12.1,12.116,12.116,0,0,1,12.1,12.1m-5.1,0a7.007,7.007,0,1,0-7.006,7.008,7.015,7.015,0,0,0,7.006-7.008" transform="translate(0 7.754)"/></svg>