<svg xmlns="http://www.w3.org/2000/svg" width="66.06" height="59.287" viewBox="0 0 66.06 59.287"><g transform="translate(0.001 0)"><path d="M23.847,7.423H20.964l.371-.9A5.53,5.53,0,0,0,20.13.486L17.574-2.07V-5.18a.9.9,0,0,0-.9-.9.9.9,0,0,0-.9.9v3.11L13.212.486A5.533,5.533,0,0,0,12,6.524l.371.9H9.494a.9.9,0,0,0-.9.9v5.363a.9.9,0,0,0,.9.9h2.1v5.839h-4v-3.42a.9.9,0,0,0-.9-.9H4.778A10.629,10.629,0,0,0,4.543,4,17.572,17.572,0,0,0-3.979-2.342L-4.973-2.7A6.154,6.154,0,0,0-5.18-8.264l-2.312-4.131a.9.9,0,0,0-1.227-.349.9.9,0,0,0-.349.349l-2.311,4.131A6.144,6.144,0,0,0-11.585-2.7l-1,.356A17.568,17.568,0,0,0-21.1,4a10.632,10.632,0,0,0-.237,12.109h-1.909a.9.9,0,0,0-.9.9v3.42h-4V14.595h2.1a.906.906,0,0,0,.9-.905V8.322a.9.9,0,0,0-.9-.9h-2.883l.371-.9A5.536,5.536,0,0,0-29.771.481l-2.555-2.555V-5.18a.9.9,0,0,0-.9-.9.9.9,0,0,0-.9.9v3.11L-36.688.486a5.533,5.533,0,0,0-1.207,6.038l.371.9h-2.883a.9.9,0,0,0-.9.9v5.363a.9.9,0,0,0,.9.9h2.1V45.525a.9.9,0,0,0,.9.9H20.847a.9.9,0,0,0,.9-.9V14.595h2.1a.906.906,0,0,0,.9-.905V8.322a.9.9,0,0,0-.9-.9M13.675,5.836a3.733,3.733,0,0,1,.814-4.073L16.671-.418l2.181,2.181a3.733,3.733,0,0,1,.814,4.073L19.01,7.423H14.33ZM-9.8-7.382-8.279-10.1l1.522,2.724a4.331,4.331,0,0,1,.076,4.073l-1.295-.465a.912.912,0,0,0-.607,0l-1.295.465A4.337,4.337,0,0,1-9.8-7.382M-19.617,5.031A15.748,15.748,0,0,1-11.971-.641l3.692-1.322L-4.587-.641A15.744,15.744,0,0,1,3.057,5.031,8.939,8.939,0,0,1,2.541,16.11H-19.1a8.939,8.939,0,0,1-.517-11.079m-2.727,12.885H5.783v2.516H-22.344Zm-13.88-12.08a3.732,3.732,0,0,1,.812-4.073L-33.23-.418l2.183,2.181a3.732,3.732,0,0,1,.812,4.073l-.655,1.587h-4.68ZM-39.5,9.229h12.547V12.79H-39.5Zm3,5.368h6.547v30.03H-36.5Zm8.355,7.642H11.59V44.623h-1.7V37.8A6.562,6.562,0,0,0,7.825,33.03L5.844,31.175a.9.9,0,0,0-1.235,0L2.628,33.03A6.568,6.568,0,0,0,.559,37.8v6.82h-2.42V34.213a9.191,9.191,0,0,0-2.9-6.688l-2.9-2.718a.9.9,0,0,0-1.233,0L-11.8,27.525a9.2,9.2,0,0,0-2.9,6.688v10.41h-2.42V37.8a6.556,6.556,0,0,0-2.069-4.773l-1.981-1.855a.9.9,0,0,0-1.233,0l-1.979,1.855A6.568,6.568,0,0,0-26.451,37.8v6.82h-1.7Zm3.5,22.385V37.8a4.751,4.751,0,0,1,1.5-3.454l1.364-1.278,1.363,1.278a4.747,4.747,0,0,1,1.5,3.454v6.82Zm11.756,0V34.213a7.378,7.378,0,0,1,2.326-5.368l2.285-2.14,2.285,2.139a7.384,7.384,0,0,1,2.327,5.368V44.623Zm15.256,0V37.8a4.753,4.753,0,0,1,1.5-3.454l1.364-1.278,1.363,1.278a4.747,4.747,0,0,1,1.5,3.454v6.82Zm17.579,0H13.4V14.593h6.547Zm3-31.836H10.4V9.225H22.943Z" transform="translate(41.308 12.858)"/><path d="M.442.019a.9.9,0,0,0-.609,1.7A11.6,11.6,0,0,1,5.48,5.86.9.9,0,1,0,6.963,4.828,13.4,13.4,0,0,0,.442.019" transform="translate(35.496 14.384)"/></g></svg>