<svg xmlns="http://www.w3.org/2000/svg" width="64.424" height="62.934" viewBox="0 0 64.424 62.934"><g transform="translate(0)"><path d="M13.81,1.747A26.7,26.7,0,0,0-8.775,14.229H-18.73V-2.259a.768.768,0,0,0-.767-.768h-3.658a.768.768,0,0,0-.768.768v61.4a.768.768,0,0,0,.768.768H-19.5a.768.768,0,0,0,.767-.768V42.651h9.954A26.689,26.689,0,1,0,13.81,1.747M-20.264,58.371h-2.12V-1.491h2.12ZM-9.676,15.765q-.473.871-.88,1.779H-18.73V15.765Zm-1.513,3.315a26.7,26.7,0,0,0,0,18.719H-18.73V19.08ZM-18.73,41.117V39.336h8.174q.407.909.88,1.781ZM13.81,53.6A25.157,25.157,0,1,1,38.966,28.44,25.186,25.186,0,0,1,13.81,53.6M29.22,42.052a.768.768,0,0,1-.768.768H-1.258a.768.768,0,0,1-.768-.768.768.768,0,0,1,.768-.768h29.71a.768.768,0,0,1,.768.768ZM26.187,26.244H24.2q.076-.972.077-2.024a.768.768,0,0,0-.768-.768H.13a.768.768,0,0,0-.768.768c0,10.76,6,15.538,6.259,15.737a.767.767,0,0,0,.47.161c2.465,0,4.057,0,5.636-.006,1.557,0,3.1-.006,5.467-.006a.764.764,0,0,0,.442-.139,14.418,14.418,0,0,0,3.36-3.77c.11-.17.221-.349.333-.536h3.091c3.229,0,5.227-2.921,5.227-5.628a4.1,4.1,0,0,0-.825-2.6,3.245,3.245,0,0,0-2.634-1.189M16.93,38.571c-2.218,0-3.708,0-5.207,0-1.517,0-3.044.006-5.35.006a14.565,14.565,0,0,1-2.647-3.32A21.069,21.069,0,0,1,.909,24.989H22.726A20.067,20.067,0,0,1,19.747,35.3a14.021,14.021,0,0,1-2.817,3.274m7.489-4.446h-2.27a21.56,21.56,0,0,0,1.88-6.345h2.158a1.966,1.966,0,0,1,1.923,2.256c0,1.65-1.174,4.09-3.691,4.09M6.9,18.929c.394-.4.584-.612.584-1.088s-.189-.692-.584-1.09a2.8,2.8,0,0,1,0-4.338c.394-.4.584-.612.584-1.09a.768.768,0,1,1,1.536,0,2.877,2.877,0,0,1-1.027,2.169c-.394.4-.584.612-.584,1.09s.189.691.584,1.088a2.805,2.805,0,0,1,0,4.339c-.394.4-.584.61-.584,1.088a.768.768,0,1,1-1.536,0A2.872,2.872,0,0,1,6.9,18.929m4.371,0c.393-.4.582-.612.582-1.088s-.189-.692-.582-1.09a2.8,2.8,0,0,1,0-4.338c.393-.4.582-.612.582-1.09a.768.768,0,1,1,1.536,0,2.872,2.872,0,0,1-1.027,2.169c-.393.4-.582.612-.582,1.09s.189.691.582,1.088a2.805,2.805,0,0,1,0,4.339c-.393.4-.582.61-.582,1.088a.768.768,0,1,1-1.536,0,2.872,2.872,0,0,1,1.027-2.169m4.369,0c.394-.4.584-.612.584-1.088s-.189-.692-.584-1.09a2.8,2.8,0,0,1,0-4.338c.394-.4.584-.612.584-1.09a.768.768,0,1,1,1.536,0,2.872,2.872,0,0,1-1.027,2.169c-.394.4-.584.612-.584,1.09s.189.691.584,1.088a2.805,2.805,0,0,1,0,4.339c-.394.4-.584.61-.584,1.088a.768.768,0,1,1-1.536,0,2.872,2.872,0,0,1,1.027-2.169" transform="translate(23.922 3.027)"/></g></svg>