<svg xmlns="http://www.w3.org/2000/svg" width="65.404" height="65.649" viewBox="0 0 65.404 65.649"><g transform="translate(0)"><path d="M139.226,3.973a9.722,9.722,0,0,1,5.037,3.2c2.534,2.6,5.157,5.119,7.628,7.778a5.981,5.981,0,0,1,.024,8.411c-1.585,1.76-3.306,3.4-4.994,5.062a.744.744,0,0,0-.2,1.025,37.873,37.873,0,0,0,6.775,9.354,46.728,46.728,0,0,0,9.027,7.639c.915.584,1.9,1.059,2.839,1.608a.528.528,0,0,0,.763-.127c1.422-1.448,2.823-2.922,4.316-4.294a10.187,10.187,0,0,1,2.692-1.908,5.861,5.861,0,0,1,6.826,1.4c2.823,2.736,5.558,5.562,8.363,8.317,2.9,2.85,3.15,6.628.452,9.538-1.988,2.143-4.014,4.266-6.179,6.226-2.317,2.1-5.209,2.616-8.259,2.371a36.617,36.617,0,0,1-13.415-4.194,66.9,66.9,0,0,1-17.045-12.036c-7.56-7.388-13.649-15.776-17.124-25.878a24.846,24.846,0,0,1-1.5-8.661,10.637,10.637,0,0,1,3.066-7.515q2.54-2.581,5.12-5.123a8.1,8.1,0,0,1,4.121-2.186Zm36.237,62.343a7.061,7.061,0,0,0,5.3-1.866q2.876-2.784,5.587-5.737a2.978,2.978,0,0,0-.037-4.472c-2.888-2.972-5.828-5.9-8.788-8.8a2.826,2.826,0,0,0-3.856-.218,7.806,7.806,0,0,0-.959.846c-1.592,1.581-3.171,3.175-4.766,4.753a2.731,2.731,0,0,1-3.5.553c-.95-.486-1.905-.968-2.816-1.52A49.476,49.476,0,0,1,151,41.059a39.857,39.857,0,0,1-7.534-10.682c-.778-1.737-.594-2.68.782-4.008,1.613-1.558,3.235-3.111,4.785-4.731,1.63-1.7,1.595-3.136.012-4.887-.057-.064-.114-.127-.174-.188-2.658-2.659-5.31-5.327-7.984-7.97a4.981,4.981,0,0,0-1.39-1.005c-1.521-.687-2.737-.014-3.8,1.033-1.6,1.572-3.227,3.123-4.741,4.775a9.793,9.793,0,0,0-1.818,2.744,10.97,10.97,0,0,0-.2,6.558,39.889,39.889,0,0,0,4.547,11.776c7.474,13.178,17.935,23.143,31.866,29.311a27.225,27.225,0,0,0,10.119,2.532" transform="translate(-125.248 -3.973)"/></g></svg>