<svg xmlns="http://www.w3.org/2000/svg" xmlns:xlink="http://www.w3.org/1999/xlink" width="70.715" height="70.714" viewBox="0 0 70.715 70.714"><defs><clipPath id="a"><rect width="70.715" height="70.715" transform="translate(-5 -5)"/></clipPath></defs><g transform="translate(5 5)"><g transform="translate(0)" clip-path="url(#a)"><path d="M60.715,2.253c-.472,1.5-.961,2.993-1.413,4.5Q51.83,31.63,44.366,56.511a5.59,5.59,0,0,1-10.842-.046q-3.186-11.09-6.34-22.189a.945.945,0,0,0-.758-.75Q15.3,30.366,4.187,27.17a5.589,5.589,0,0,1-.093-10.8q11.674-3.5,23.349-7Q42.574,4.834,57.7.292C57.963.215,58.21.1,58.462,0h.949a2.675,2.675,0,0,1,1.3,1.3Zm-8.1,3.3c-.326.087-.5.127-.664.178L23.894,14.147q-9.239,2.772-18.479,5.54a2.366,2.366,0,0,0-1.656,1.218c-.581,1.252.086,2.48,1.591,2.91Q16.333,26.953,27.312,30.1a.938.938,0,0,0,1.076-.277Q40.237,17.945,52.108,6.088c.138-.138.269-.283.507-.535m2.53,2.578c-.18.161-.286.248-.382.344Q42.773,20.463,30.778,32.446a.718.718,0,0,0-.2.828c.767,2.633,1.514,5.271,2.266,7.908Q34.88,48.3,36.906,55.41a2.2,2.2,0,0,0,1.337,1.618c1.217.458,2.333-.232,2.779-1.717Q48,32.045,54.982,8.777c.054-.18.093-.365.163-.646" transform="translate(0)"/></g></g></svg>