<svg xmlns="http://www.w3.org/2000/svg" width="134.031" height="166.675" viewBox="0 0 134.031 166.675"><g transform="translate(-374.109 -50.988)"><g transform="translate(374.109 196.102)"><g transform="translate(0 0)"><path d="M4.5,156.507a.66.66,0,0,0,.751-.758.668.668,0,0,0-.765-.75c-.478.008-.713.259-.72.759a.655.655,0,0,0,.735.75" transform="translate(-0.233 -154.71)" fill="#541226"/><path d="M2.436,156.507a.658.658,0,0,0,.75-.758A.667.667,0,0,0,2.42,155c-.477.008-.711.259-.719.759a.655.655,0,0,0,.735.75" transform="translate(-0.105 -154.71)" fill="#541226"/><path d="M18.128,158.482a2.559,2.559,0,0,0-.727,1.837,2.518,2.518,0,0,0,.368,1.337H5.433v-3.908l-2.454-.015a2.281,2.281,0,0,0-1.727.743,2.518,2.518,0,0,0-.727,1.837A2.2,2.2,0,0,0,2.979,162.8h19.33v-5.049l-2.454-.008a2.307,2.307,0,0,0-1.727.735M2.963,161.655c-.812,0-1.219-.445-1.219-1.312v-.064c0-.9.414-1.335,1.235-1.351l.516-.008h.711l.008,2.735Zm18.119-2.727.008.148-.008,2.579H19.839c-.812,0-1.22-.438-1.22-1.3v-.063c0-.9.416-1.337,1.235-1.352l.515-.007Z" transform="translate(-0.032 -154.879)" fill="#541226"/><path d="M22.557,156.507a.659.659,0,0,0,.75-.758.667.667,0,0,0-.765-.75c-.477.008-.711.259-.72.759a.655.655,0,0,0,.735.75" transform="translate(-1.351 -154.71)" fill="#541226"/><path d="M20.492,156.507a.66.66,0,0,0,.75-.758.669.669,0,0,0-.766-.75c-.477.008-.712.259-.719.759a.654.654,0,0,0,.735.75" transform="translate(-1.223 -154.71)" fill="#541226"/><rect width="1.399" height="7.925" transform="translate(22.903)" fill="#541226"/><path d="M51.148,160.827a.588.588,0,0,1-.641.642h-1.9v-6.752H47.193v6.752H42.58l.032-.1a2.227,2.227,0,0,0,.094-.642c.008-.6.008-1.657.008-3.165H41.291v3.071a1.574,1.574,0,0,1-.047.384.506.506,0,0,1-.446.422,1.713,1.713,0,0,1-.3.031h-.743v-3.509H38.344l-.008,3.509H36.96v-3.509H35.546v3.509H32.88v-.008h-1.4v-3.915H29.027a2.31,2.31,0,0,0-1.735.75,2.627,2.627,0,0,0-.72,1.869,2.292,2.292,0,0,0,1.908,2.454h1.609l-.007.735a1.376,1.376,0,0,1-1.095,1.415,2.8,2.8,0,0,1-.969.078l-.563-.047v1.032a2.119,2.119,0,0,0,.243.054c.719.039,1.156.063,1.321.055a2.565,2.565,0,0,0,.75-.148,2.443,2.443,0,0,0,1.711-2.548v-.626H50.625a1.712,1.712,0,0,0,1.946-1.931v-5.971H51.148Zm-20.887.633-1.235.008c-.821.007-1.235-.461-1.235-1.376,0-.9.415-1.351,1.235-1.351h.531v-.008h.7l.008,1.281Z" transform="translate(-1.645 -154.692)" fill="#541226"/><path d="M60.812,156.507a.66.66,0,0,0,.75-.758A.668.668,0,0,0,60.8,155c-.477.008-.712.259-.72.759a.655.655,0,0,0,.735.75" transform="translate(-3.719 -154.71)" fill="#541226"/><path d="M58.746,156.507a.659.659,0,0,0,.75-.758.668.668,0,0,0-.766-.75c-.477.008-.711.259-.719.759a.655.655,0,0,0,.735.75" transform="translate(-3.591 -154.71)" fill="#541226"/><path d="M80.793,161.014a.588.588,0,0,1-.641.641H61.744v-3.908l-2.454-.015a2.281,2.281,0,0,0-1.727.743,2.518,2.518,0,0,0-.727,1.837A2.2,2.2,0,0,0,59.29,162.8H80.269a1.712,1.712,0,0,0,1.946-1.931v-3.095H80.793Zm-21.519.641c-.812,0-1.219-.445-1.219-1.312v-.064c0-.9.414-1.335,1.235-1.351l.516-.008h.711l.008,2.735Z" transform="translate(-3.519 -154.879)" fill="#541226"/><path d="M80.586,164.213c-.477.008-.712.258-.718.758a.654.654,0,0,0,.734.75.661.661,0,0,0,.751-.758.67.67,0,0,0-.767-.75" transform="translate(-4.945 -155.28)" fill="#541226"/><path d="M82.654,164.213c-.478.008-.713.258-.72.758a.743.743,0,1,0,1.485-.008.668.668,0,0,0-.765-.75" transform="translate(-5.073 -155.28)" fill="#541226"/><rect width="1.399" height="7.925" transform="translate(79.324)" fill="#541226"/><path d="M94.038,160.827a.588.588,0,0,1-.641.642H89.582v-3.884h-1.4v5.9c0,.75-1.079,1.383-1.758,1.578l.7,1a2.489,2.489,0,0,0,.75-.148,2.432,2.432,0,0,0,1.711-2.539v-.759h3.932a1.712,1.712,0,0,0,1.946-1.931v-5.971H94.038Z" transform="translate(-5.351 -154.692)" fill="#541226"/><rect width="1.399" height="7.925" transform="translate(90.735)" fill="#541226"/><path d="M102.674,156.507a.659.659,0,0,0,.75-.758.668.668,0,0,0-.766-.75c-.477.008-.711.259-.719.759a.655.655,0,0,0,.735.75" transform="translate(-6.311 -154.71)" fill="#541226"/><path d="M104.74,156.507a.66.66,0,0,0,.75-.758.668.668,0,0,0-.765-.75c-.477.008-.712.259-.72.759a.655.655,0,0,0,.735.75" transform="translate(-6.439 -154.71)" fill="#541226"/><path d="M121.478,157.747l-.008,3.071a1.574,1.574,0,0,1-.047.384.5.5,0,0,1-.446.422,8.5,8.5,0,0,1-1.032.031v-3.509h-1.422l-.007,3.509H117.14v-3.509h-1.415v3.509H105.672v-3.908l-2.454-.015a2.281,2.281,0,0,0-1.727.743,2.518,2.518,0,0,0-.727,1.837,2.2,2.2,0,0,0,2.454,2.493h17.627a2.762,2.762,0,0,0,.618-.055,1.63,1.63,0,0,0,1.328-1.2,2.227,2.227,0,0,0,.094-.642c.007-.6.016-1.657.007-3.165ZM103.2,161.655c-.812,0-1.219-.445-1.219-1.312v-.064c0-.9.414-1.335,1.235-1.351l.516-.008h.711l.007,2.735Z" transform="translate(-6.238 -154.879)" fill="#541226"/><path d="M126.487,163.674c0,.75-1.079,1.384-1.758,1.579l.7,1a2.46,2.46,0,0,0,.75-.148,2.432,2.432,0,0,0,1.711-2.539v-5.792h-1.4Z" transform="translate(-7.722 -154.882)" fill="#541226"/><path d="M141.284,158.538a2.35,2.35,0,0,0-3.471,0,2.593,2.593,0,0,0-.719,1.844,2.674,2.674,0,0,0,.1.75.621.621,0,0,1-.523.5q-.281.024-.774.023h-2.784v-1.711a3.35,3.35,0,0,0-.148-1.033,1.515,1.515,0,0,0-1.368-1.141c-.086-.008-.664-.008-1.72,0v1.118h1.032a.718.718,0,0,1,.781.812v1.954h-2.931v1.148h7.723a1.557,1.557,0,0,0,1.188-.5l.126-.086c.007.008-.008-.016-.047-.062a2.35,2.35,0,0,0,3.533.07,2.727,2.727,0,0,0,0-3.689m-1.735,3.353c-.626,0-.938-.5-.938-1.508s.312-1.508.938-1.508.938.5.938,1.508-.313,1.508-.938,1.508" transform="translate(-7.972 -154.881)" fill="#541226"/><path d="M2.591,171.216,0,177.182H1.389l.468-1.159H4.619l.469,1.159h1.44L3.98,171.216ZM2.3,174.94l.947-2.318.937,2.318Z" transform="translate(0 -155.714)" fill="#541226"/><path d="M9.7,171.217H8.349v5.965h3.9v-1.176H9.7Z" transform="translate(-0.517 -155.714)" fill="#541226"/><path d="M18.842,174.467a2.309,2.309,0,0,0,.286-1.181,1.894,1.894,0,0,0-.64-1.529,2.721,2.721,0,0,0-1.807-.541H14.09v5.966h1.347v-1.705H16.81l.947,1.705h1.525l-1.27-1.969a1.831,1.831,0,0,0,.831-.746m-1.3-.374a1.292,1.292,0,0,1-.865.259H15.437v-2.02h1.245a1.322,1.322,0,0,1,.865.251.915.915,0,0,1,.3.746.953.953,0,0,1-.3.764" transform="translate(-0.872 -155.714)" fill="#541226"/><path d="M23.26,171.216l-2.591,5.966h1.389l.468-1.159h2.762l.469,1.159H27.2l-2.548-5.966Zm-.29,3.724.947-2.318.937,2.318Z" transform="translate(-1.28 -155.714)" fill="#541226"/><path d="M30.691,173.893l-1.526-2.676H27.81l2.207,4.074v1.891h1.347v-1.926l2.173-4.039H32.182Z" transform="translate(-1.722 -155.714)" fill="#541226"/><path d="M36.7,171.216,34.1,177.182h1.389l.468-1.159h2.762l.469,1.159h1.44l-2.548-5.966Zm-.29,3.724.947-2.318.937,2.318Z" transform="translate(-2.111 -155.714)" fill="#541226"/><path d="M46.5,173.7H43.8v-2.488H42.455v5.965H43.8V174.83h2.7v2.352H47.85v-5.965H46.5Z" transform="translate(-2.628 -155.714)" fill="#541226"/><path d="M57.343,171.6a3.418,3.418,0,0,0-1.628-.379H53.184v5.965h2.481a3.517,3.517,0,0,0,1.653-.379,2.811,2.811,0,0,0,1.129-1.057,2.955,2.955,0,0,0,.4-1.547,3,3,0,0,0-.4-1.547,2.746,2.746,0,0,0-1.113-1.056m-.085,3.567a1.628,1.628,0,0,1-.617.652,1.724,1.724,0,0,1-.89.235h-1.22v-3.7H55.69a1.792,1.792,0,0,1,.917.235,1.684,1.684,0,0,1,.639.66,1.955,1.955,0,0,1,.235.962,2.012,2.012,0,0,1-.222.955" transform="translate(-3.293 -155.714)" fill="#541226"/><path d="M65.649,174.467a2.309,2.309,0,0,0,.286-1.181,1.894,1.894,0,0,0-.64-1.529,2.721,2.721,0,0,0-1.807-.541H60.9v5.966h1.347v-1.705h1.372l.947,1.705h1.525l-1.27-1.969a1.831,1.831,0,0,0,.831-.746m-1.3-.374a1.292,1.292,0,0,1-.865.259H62.244v-2.02h1.245a1.322,1.322,0,0,1,.865.251.915.915,0,0,1,.3.746.953.953,0,0,1-.3.764" transform="translate(-3.77 -155.714)" fill="#541226"/><rect width="1.347" height="5.965" transform="translate(63.979 15.503)" fill="#541226"/><path d="M74.149,175.717l-1.627-4.5H71.073l2.343,5.965h1.389l2.37-5.965H75.786Z" transform="translate(-4.4 -155.714)" fill="#541226"/><rect width="1.347" height="5.965" transform="translate(74.113 15.503)" fill="#541226"/><path d="M86.7,175.068l-2.9-3.852H82.576v5.965h1.287v-3.835l2.889,3.835h1.227v-5.965H86.7Z" transform="translate(-5.112 -155.714)" fill="#541226"/><path d="M92.312,172.545a1.849,1.849,0,0,1,.95-.252,2.255,2.255,0,0,1,.87.179,2.473,2.473,0,0,1,.766.494l.759-.963a3.463,3.463,0,0,0-1.095-.647,3.658,3.658,0,0,0-1.3-.239,3.444,3.444,0,0,0-1.658.4,3.005,3.005,0,0,0-1.173,1.1,2.966,2.966,0,0,0-.426,1.565,3.014,3.014,0,0,0,1.56,2.679,3.259,3.259,0,0,0,1.619.405,4.117,4.117,0,0,0,1.279-.218,4.008,4.008,0,0,0,1.142-.567v-2.318H94.438v1.594a3.135,3.135,0,0,1-.6.243,2.072,2.072,0,0,1-.571.089,1.852,1.852,0,0,1-1.631-.942,1.98,1.98,0,0,1,0-1.926,1.829,1.829,0,0,1,.677-.681" transform="translate(-5.572 -155.708)" fill="#541226"/><path d="M104.3,173.945a7.941,7.941,0,0,0-1.009-.358,4.551,4.551,0,0,1-.908-.344.526.526,0,0,1-.294-.482.413.413,0,0,1,.2-.374,1.039,1.039,0,0,1,.554-.129,2.987,2.987,0,0,1,.882.166,4.483,4.483,0,0,1,.976.448l.521-1.117a4.09,4.09,0,0,0-1.057-.477,4.2,4.2,0,0,0-1.21-.178,3.127,3.127,0,0,0-1.21.217,1.852,1.852,0,0,0-.811.622,1.577,1.577,0,0,0-.289.942,1.433,1.433,0,0,0,.281.93,1.745,1.745,0,0,0,.669.52,7.72,7.72,0,0,0,1,.341c.284.079.508.15.67.212a1.214,1.214,0,0,1,.4.244.536.536,0,0,1-.078.822,1.182,1.182,0,0,1-.652.154,2.793,2.793,0,0,1-1.073-.248,3.665,3.665,0,0,1-1.04-.656l-.537,1.1a3.857,3.857,0,0,0,1.21.7,4.111,4.111,0,0,0,1.424.255,3.2,3.2,0,0,0,1.2-.213,1.87,1.87,0,0,0,.831-.627,1.626,1.626,0,0,0,.3-.984,1.49,1.49,0,0,0-.281-.947,1.785,1.785,0,0,0-.678-.537" transform="translate(-6.209 -155.707)" fill="#541226"/><path d="M110.878,175.851a1.912,1.912,0,0,1-.813.192,1.749,1.749,0,0,1-.92-.251,1.8,1.8,0,0,1-.656-.682,1.918,1.918,0,0,1-.239-.949,1.9,1.9,0,0,1,.239-.947,1.788,1.788,0,0,1,1.576-.921,1.833,1.833,0,0,1,.831.209,2.274,2.274,0,0,1,.72.575l.784-.962a3.372,3.372,0,0,0-2.353-1,3.3,3.3,0,0,0-1.615.4,2.976,2.976,0,0,0-1.564,2.659,3.089,3.089,0,0,0,.41,1.577,2.943,2.943,0,0,0,1.125,1.112,3.178,3.178,0,0,0,1.593.405,3.119,3.119,0,0,0,1.292-.29,3.58,3.58,0,0,0,1.12-.784l-.792-.86a2.547,2.547,0,0,1-.738.515" transform="translate(-6.616 -155.708)" fill="#541226"/><path d="M118.4,173.7h-2.7v-2.488h-1.347v5.965H115.7V174.83h2.7v2.352h1.347v-5.965H118.4Z" transform="translate(-7.08 -155.714)" fill="#541226"/><path d="M126.609,171.517a3.515,3.515,0,0,0-3.259,0,3.045,3.045,0,0,0,0,5.347,3.471,3.471,0,0,0,3.255,0,3.04,3.04,0,0,0,0-5.347m-.047,3.634a1.824,1.824,0,0,1-.656.691,1.721,1.721,0,0,1-.908.25,1.74,1.74,0,0,1-.916-.255,1.917,1.917,0,0,1-.674-.69,1.97,1.97,0,0,1,0-1.917,1.839,1.839,0,0,1,.674-.686,1.779,1.779,0,0,1,.92-.252,1.714,1.714,0,0,1,.908.252,1.835,1.835,0,0,1,.656.686,1.92,1.92,0,0,1,.243.955,1.955,1.955,0,0,1-.243.966" transform="translate(-7.539 -155.708)" fill="#541226"/><path d="M134.5,171.517a3.515,3.515,0,0,0-3.259,0,3.045,3.045,0,0,0,0,5.347,3.471,3.471,0,0,0,3.255,0,3.04,3.04,0,0,0,0-5.347m-.047,3.634a1.824,1.824,0,0,1-.656.691,1.721,1.721,0,0,1-.908.25,1.74,1.74,0,0,1-.916-.255,1.917,1.917,0,0,1-.674-.69,1.97,1.97,0,0,1,0-1.917,1.839,1.839,0,0,1,.674-.686,1.779,1.779,0,0,1,.92-.252,1.714,1.714,0,0,1,.908.252,1.835,1.835,0,0,1,.656.686,1.921,1.921,0,0,1,.243.955,1.955,1.955,0,0,1-.243.966" transform="translate(-8.028 -155.708)" fill="#541226"/><path d="M139.514,176.006v-4.789h-1.347v5.965h3.9v-1.176Z" transform="translate(-8.554 -155.714)" fill="#541226"/></g></g><g transform="translate(374.692 50.988)"><g transform="translate(0 0)"><rect width="3.032" height="2.822" rx="0.562" transform="translate(48.528 46.564)" fill="#541226"/><path d="M.562,0H2.471a.562.562,0,0,1,.562.562v1.7a.563.563,0,0,1-.563.563H.562A.562.562,0,0,1,0,2.26V.562A.562.562,0,0,1,.562,0Z" transform="translate(44.257 46.564)" fill="#541226"/><rect width="3.033" height="2.822" rx="0.826" transform="translate(57.837 67.844)" fill="#541226"/><path d="M69.087,72.322H67.6a.775.775,0,0,0-.775.775v1.272a.775.775,0,0,0,.775.775h1.483a.775.775,0,0,0,.775-.775V73.1a.775.775,0,0,0-.775-.775" transform="translate(-4.72 -4.478)" fill="#541226"/><path d="M69.392,55.652H67.059a.43.43,0,0,0-.431.431v6.9q0,1.424-.9,1.766a8.677,8.677,0,0,1-2.452.211H60.573a.771.771,0,0,0-.132.013.51.51,0,0,0-.114-.013,2.025,2.025,0,0,1-1.872-1.028,8.665,8.665,0,0,1-.818-2.558q-.447-2.32-.632-2.927a3.333,3.333,0,0,0-1.371-2.057,7.673,7.673,0,0,0-3.85-.738q-3.455,0-4.773,1.081T45.691,60.82v2.69q0,2.716,1.133,3.77,1.134,1.109,3.9,1.108h8.91a.512.512,0,0,0,.095-.016c.193.01.39.016.594.016a.509.509,0,0,0,.114-.013.771.771,0,0,0,.132.013h2.705a7.52,7.52,0,0,0,4.615-1.318,4.853,4.853,0,0,0,1.845-4.087V56a.348.348,0,0,0-.347-.347M49.62,64.512a2.47,2.47,0,0,1-.527-1.82v-1.74a2.258,2.258,0,0,1,.9-2.056,3.221,3.221,0,0,1,1.793-.448,1.971,1.971,0,0,1,1.766.712A6.96,6.96,0,0,1,54.023,61l.68,3.869a.6.6,0,0,0,.016.068l.007.019H51.6a3.164,3.164,0,0,1-1.977-.448" transform="translate(-3.411 -3.446)" fill="#541226"/><path d="M76.977,67.319V49.036a.636.636,0,0,0-.636-.636H74.2a.62.62,0,0,0-.62.62v18.3a.62.62,0,0,0,.62.62h2.16a.62.62,0,0,0,.62-.62" transform="translate(-5.138 -2.997)" fill="#541226"/><path d="M83.909,69.681v-.83a.91.91,0,0,1,.91-.91.908.908,0,0,0,.21-.027.494.494,0,0,0,.134.027h.065q3.031,0,4.325-1.108a4.425,4.425,0,0,0,1.292-3.507V48.89a.49.49,0,0,0-.49-.49H87.932a.489.489,0,0,0-.49.49V62.534a1.677,1.677,0,0,1-.659,1.53,4.368,4.368,0,0,1-1.543.443.705.705,0,0,1-.077,0,.494.494,0,0,0-.134.027.908.908,0,0,0-.21-.027.909.909,0,0,1-.91-.909V56.14a.91.91,0,0,0-.91-.91H81.417a.91.91,0,0,0-.91.91V68.89a2.992,2.992,0,0,1-.5,1.951,2.238,2.238,0,0,1-1.767.606,5.17,5.17,0,0,1-2.267-.316l-.159-.079V73.3a.91.91,0,0,0,.8.905,15.011,15.011,0,0,0,1.674.086,6.723,6.723,0,0,0,4.325-1.107,4.428,4.428,0,0,0,1.292-3.508" transform="translate(-5.276 -2.997)" fill="#541226"/><rect width="3.402" height="19.54" rx="0.733" transform="translate(87.678 45.403)" fill="#541226"/><path d="M43.324,33.625c2.538-1.557,3.084-7.262,4.095-9.055a1.4,1.4,0,0,0,.163-.538A44.29,44.29,0,0,0,41.2,27.824c.245.333.476.668.681,1.008a8.5,8.5,0,0,1,1.339,4.362c0,.148-.007.3-.018.456.041-.009.083-.015.124-.025" transform="translate(-3.133 -1.488)" fill="#ee7623"/><path d="M102.15,27.308A44.878,44.878,0,0,0,95.4,23.5a1.722,1.722,0,0,0,.165,1.032c1.01,1.794,1.557,7.5,4.095,9.055.04.011.083.016.124.025-.011-.155-.018-.308-.018-.456A8.492,8.492,0,0,1,101.1,28.8a13.957,13.957,0,0,1,1.051-1.491" transform="translate(-6.488 -1.455)" fill="#ee7623"/><path d="M105.731,26.067q-.374.345-.722.7-.578.591-1.067,1.2a7.983,7.983,0,0,0-2.071,4.854c0,.126.007.253.017.38a3.7,3.7,0,0,0,.511,1.63,4.727,4.727,0,0,0,3.469,1.992.862.862,0,0,1,.361.154l4.137-3,1.3-.943,4.291-3.113h0l-4.129,3.3-1.249,1-4.032,3.228a.8.8,0,0,1,.022.308c-.159,1.312-.3,3.846.722,5.117,1.037,1.286,3.5,1.644,4.75,1.747a.728.728,0,0,1,.244.06l3.661-2.806,1.279-.979,5.094-3.9h0l-4.937,4.167-1.24,1.047-3.418,2.886a.82.82,0,0,1,.083.334c.039,1.1.214,3.087.947,3.979a6.1,6.1,0,0,0,3.237,1.5.772.772,0,0,1,.25.093l2.506-1.673,1.354-.9,6.122-4.086h0l-5.978,4.427-1.33.985-2.3,1.7a.841.841,0,0,1,.045.217,6.817,6.817,0,0,0,.642,2.826,3.294,3.294,0,0,0,1.256.894,2.338,2.338,0,0,0,1.992.017c.016-.008.034-.014.051-.023.52-.279,1-.532,1.439-.768,7.194-3.821,4.936-2.342,12.859-7.985a2.142,2.142,0,0,0,.574-.647,2.567,2.567,0,0,0,.377-1.307,7.031,7.031,0,0,0-.2-2.019,5.44,5.44,0,0,0-1.153-1.632.834.834,0,0,1-.19-.831c.027-.087.12-.3.238-.589.478-1.168,1.4-3.669.415-5.065a6.419,6.419,0,0,0-3.077-1.961.839.839,0,0,1-.63-1.093c.452-1.32,1.1-3.708.422-5.136-.75-1.593-3.3-2.575-4.4-2.936a.832.832,0,0,1-.567-.693c-.132-1.063-.538-3.391-1.635-4.214s-3.334-.748-6.038-.064c-.581.147-1.181.322-1.8.523a37.709,37.709,0,0,0-11.2,5.987c-.458.367-.9.739-1.31,1.12" transform="translate(-6.89 -1.109)" fill="#ee7623"/><path d="M5.2,46.625l.218.156c7.985,5.69,5.316,3.912,13.623,8.353l.457.245a2.1,2.1,0,0,0,1.095.233,2.584,2.584,0,0,0,.947-.227,3.271,3.271,0,0,0,1.256-.895,6.81,6.81,0,0,0,.643-2.825.864.864,0,0,1,.045-.217l-1.47-1.089-1.336-.988-6.8-5.037h0l6.961,4.645,1.362.909L23.852,51a.816.816,0,0,1,.25-.094,6.09,6.09,0,0,0,3.237-1.5c.734-.891.908-2.882.947-3.978a.8.8,0,0,1,.084-.334l-2.706-2.283-1.239-1.047L18.774,36.99h0L24.6,41.456l1.28.979,2.928,2.244a.722.722,0,0,1,.245-.06c1.252-.1,3.713-.462,4.75-1.748,1.024-1.27.882-3.8.723-5.117a.8.8,0,0,1,.021-.307l-3.385-2.709-1.249-1-4.776-3.823,4.959,3.6,1.294.94,3.472,2.52a.853.853,0,0,1,.363-.154,4.722,4.722,0,0,0,3.467-1.993,3.673,3.673,0,0,0,.512-1.63c.009-.128.016-.254.016-.38a7.519,7.519,0,0,0-1.681-4.345,14.679,14.679,0,0,0-1.016-1.235q-.54-.591-1.161-1.166c-.415-.381-.854-.754-1.311-1.12a37.718,37.718,0,0,0-10.429-5.724q-.889-.317-1.74-.562c-3.069-.887-5.673-1.057-6.866-.16-1.1.823-1.5,3.15-1.635,4.214a.831.831,0,0,1-.567.692c-1.1.362-3.648,1.343-4.4,2.937-.674,1.428-.031,3.816.422,5.135a.839.839,0,0,1-.63,1.094,6.417,6.417,0,0,0-3.076,1.961c-1.235,1.743.514,5.214.652,5.654a.832.832,0,0,1-.189.831,5.426,5.426,0,0,0-1.154,1.632,7,7,0,0,0-.2,2.018,2.754,2.754,0,0,0,.057.5,2.309,2.309,0,0,0,.895,1.45" transform="translate(-0.845 -1.109)" fill="#ee7623"/><path d="M72.881,96.677H69.457a.884.884,0,0,0-.878.784l-.758,6.72a.883.883,0,0,0,.877.982h4.423a.883.883,0,0,0,.883-.915l-.24-6.72a.883.883,0,0,0-.883-.852" transform="translate(-4.781 -5.985)" fill="#ee7623"/><path d="M64.654,141.17h9.365a.95.95,0,0,0,.949-.983l-.5-14.125a.95.95,0,0,0-.949-.916H66.248a.95.95,0,0,0-.944.842l-1.594,14.125a.95.95,0,0,0,.944,1.056" transform="translate(-4.527 -7.748)" fill="#ee7623"/><path d="M73.273,109.231H67.945a.8.8,0,0,0-.8.711l-1.074,9.524a.8.8,0,0,0,.8.89h6.741a.8.8,0,0,0,.8-.829L74.073,110a.8.8,0,0,0-.8-.772" transform="translate(-4.673 -6.763)" fill="#ee7623"/><path d="M72.643,86.319H70.616a.858.858,0,0,0-.853.763l-.57,5.055a.858.858,0,0,0,.853.955h2.778a.859.859,0,0,0,.858-.889l-.18-5.055a.859.859,0,0,0-.858-.828" transform="translate(-4.866 -5.344)" fill="#ee7623"/><path d="M38.086,23.445c.451.417.884.85,1.286,1.291.166.181.323.366.478.552a50.68,50.68,0,0,1,58.289-.34c.221-.25.448-.5.681-.735.249-.252.516-.511.8-.769.43-.4.894-.794,1.418-1.213A39.868,39.868,0,0,1,112.575,16a66.692,66.692,0,0,0-86.893.189,39.613,39.613,0,0,1,10.984,6.042c.526.42.991.817,1.42,1.214" transform="translate(-2.173)" fill="#541226"/><path d="M16.08,111.721,26.8,101.076a.458.458,0,0,0,.041-.6,50.721,50.721,0,0,1-9.18-41.38l-.211-.113c-1.66-.888-2.869-1.52-3.839-2.027a48.689,48.689,0,0,1-8.3-5.245l-1.308-.932a.464.464,0,0,0-.715.245,66.974,66.974,0,0,0-2.672,18.8,66.18,66.18,0,0,0,14.772,41.868.464.464,0,0,0,.687.036" transform="translate(-0.621 -3.138)" fill="#541226"/><path d="M125.156,69.788a50.513,50.513,0,0,1-10.2,30.49.46.46,0,0,0,.042.6l10.725,10.648a.465.465,0,0,0,.688-.037,66.177,66.177,0,0,0,14.643-41.7A66.914,66.914,0,0,0,138.24,50.53a.467.467,0,0,0-.725-.232l-.006,0-1.943,1.385a48.525,48.525,0,0,1-8.269,5.228c-.76.4-1.689.883-2.876,1.514l-.182.1a.459.459,0,0,0-.234.5,50.768,50.768,0,0,1,1.15,10.758" transform="translate(-7.694 -3.108)" fill="#541226"/><path d="M58.5,86.579,6.312,137.09a.87.87,0,0,0,.606,1.488l24.7.185a.869.869,0,0,0,.775-.463l27.5-50.7A.87.87,0,0,0,58.5,86.579" transform="translate(-0.957 -5.344)" fill="#541226"/><path d="M81.339,86.586a.871.871,0,0,0-1.384,1.025l27.5,50.689a.873.873,0,0,0,.778.463l24.691-.185a.871.871,0,0,0,.607-1.49Z" transform="translate(-5.526 -5.345)" fill="#541226"/></g></g></g></svg>