<svg width="68" height="68" viewBox="0 0 68 68" fill="none" xmlns="http://www.w3.org/2000/svg">
<g clip-path="url(#clip0_148_88)">
<path d="M17.0371 16.461C19.2191 16.4586 21.3111 15.5907 22.854 14.0478C24.3969 12.5049 25.2647 10.413 25.2671 8.23098C25.2671 6.04825 24.4 3.95491 22.8566 2.41149C21.3132 0.868064 19.2199 0.000976563 17.0371 0.000976562C14.8544 0.000976563 12.7611 0.868064 11.2176 2.41149C9.67422 3.95491 8.80713 6.04825 8.80713 8.23098C8.80713 10.4137 9.67422 12.507 11.2176 14.0505C12.7611 15.5939 14.8544 16.461 17.0371 16.461ZM17.0371 3.40398C18.3167 3.40556 19.5434 3.91449 20.4482 4.81917C21.3531 5.72385 21.8623 6.95044 21.8641 8.22998C21.8643 8.8639 21.7395 9.49165 21.497 10.0773C21.2544 10.663 20.8989 11.1952 20.4506 11.6435C20.0024 12.0917 19.4702 12.4473 18.8845 12.6898C18.2988 12.9323 17.6711 13.0571 17.0371 13.057C16.4033 13.057 15.7757 12.9321 15.1901 12.6895C14.6045 12.4469 14.0724 12.0914 13.6243 11.6431C13.1761 11.1949 12.8207 10.6627 12.5782 10.0771C12.3357 9.49148 12.211 8.86382 12.2111 8.22998C12.2111 6.95004 12.7196 5.72253 13.6246 4.81748C14.5297 3.91243 15.7572 3.40398 17.0371 3.40398Z" fill="#EE7623"/>
<path d="M62.0429 0.0390625H28.6609C28.2101 0.0390625 27.7777 0.218169 27.4589 0.536981C27.14 0.855793 26.9609 1.28819 26.9609 1.73906C26.9609 2.18993 27.14 2.62233 27.4589 2.94114C27.7777 3.25996 28.2101 3.43906 28.6609 3.43906H62.0429C62.4938 3.43906 62.9262 3.61817 63.245 3.93698C63.5638 4.25579 63.7429 4.68819 63.7429 5.13906V39.4521C63.7429 39.9029 63.5638 40.3353 63.245 40.6541C62.9262 40.973 62.4938 41.1521 62.0429 41.1521H31.5129C31.0621 41.1521 30.6297 41.3312 30.3109 41.65C29.992 41.9688 29.8129 42.4012 29.8129 42.8521C29.8129 43.3029 29.992 43.7353 30.3109 44.0541C30.6297 44.373 31.0621 44.5521 31.5129 44.5521H62.0429C62.7127 44.5521 63.3759 44.4201 63.9946 44.1638C64.6134 43.9075 65.1756 43.5319 65.6492 43.0583C66.1228 42.5847 66.4984 42.0225 66.7547 41.4037C67.011 40.785 67.1429 40.1218 67.1429 39.4521V5.13906C67.1429 3.78646 66.6056 2.48925 65.6492 1.53282C64.6927 0.576382 63.3955 0.0390625 62.0429 0.0390625Z" fill="#EE7623"/>
<path d="M53.549 63.7468H26.412V31.5718C26.4114 31.5366 26.4222 31.5021 26.4427 31.4735C26.4633 31.4448 26.4925 31.4236 26.526 31.4128C26.5554 31.4039 26.5867 31.4031 26.6165 31.4107C26.6463 31.4183 26.6735 31.4339 26.695 31.4558L29.357 34.1218C29.8698 34.6371 30.4797 35.0455 31.1513 35.3236C31.823 35.6016 32.5431 35.7438 33.27 35.7418H41.199H41.313C42.0398 35.7272 42.7566 35.5694 43.4224 35.2777C44.0882 34.9859 44.69 34.5658 45.1934 34.0414C45.6968 33.517 46.092 32.8985 46.3563 32.2214C46.6207 31.5442 46.749 30.8216 46.734 30.0948C46.716 29.2191 46.4846 28.361 46.06 27.5948L54.387 18.2648C54.6872 17.9285 54.8415 17.4867 54.816 17.0367C54.7905 16.5866 54.5873 16.1651 54.251 15.8648C54.0844 15.7154 53.8899 15.6004 53.6787 15.5264C53.4675 15.4523 53.2437 15.4207 53.0203 15.4334C52.7968 15.446 52.5781 15.5026 52.3766 15.6C52.1751 15.6974 51.9948 15.8336 51.846 16.0008L43.592 25.2428C42.8243 24.8657 41.9803 24.6697 41.125 24.6698H35.566L32.4 21.5038C31.4205 20.5178 30.2549 19.736 28.9709 19.2038C27.6868 18.6717 26.3099 18.3998 24.92 18.4038H22.985C22.5876 18.4036 22.2026 18.5427 21.897 18.7968L18.854 21.3298C18.3442 21.7542 17.7018 21.9865 17.0385 21.9865C16.3752 21.9865 15.7329 21.7542 15.223 21.3298L12.179 18.7978C11.8734 18.5437 11.4885 18.4043 11.091 18.4038H9.37002C6.88592 18.4068 4.50436 19.3947 2.74765 21.1511C0.990933 22.9074 0.00246379 25.2887 -0.000976562 27.7728V41.8598C0.00034736 43.3277 0.58403 44.735 1.62194 45.7729C2.65986 46.8108 4.06719 47.3945 5.53502 47.3958C6.26752 47.3973 6.99297 47.2528 7.66902 46.9708V63.7468H1.70502C1.25416 63.7468 0.821753 63.9259 0.502941 64.2448C0.184129 64.5636 0.00502396 64.996 0.00502396 65.4468C0.00502396 65.8977 0.184129 66.3301 0.502941 66.6489C0.821753 66.9677 1.25416 67.1468 1.70502 67.1468H53.549C53.9999 67.1468 54.4323 66.9677 54.7511 66.6489C55.0699 66.3301 55.249 65.8977 55.249 65.4468C55.249 64.996 55.0699 64.5636 54.7511 64.2448C54.4323 63.9259 53.9999 63.7468 53.549 63.7468ZM18.741 63.7468V42.8598C18.741 42.6366 18.6971 42.4155 18.6116 42.2093C18.5262 42.003 18.401 41.8156 18.2431 41.6578C18.0852 41.4999 17.8978 41.3747 17.6916 41.2892C17.4853 41.2038 17.2643 41.1598 17.041 41.1598C16.5902 41.1598 16.1578 41.3389 15.8389 41.6578C15.5201 41.9766 15.341 42.409 15.341 42.8598V63.7468H11.076V29.7248C11.076 29.274 10.8969 28.8416 10.5781 28.5228C10.2593 28.2039 9.82689 28.0248 9.37602 28.0248C8.92516 28.0248 8.49275 28.2039 8.17394 28.5228C7.85513 28.8416 7.67602 29.274 7.67602 29.7248V41.8598C7.67602 42.4255 7.45147 42.968 7.0517 43.3681C6.65193 43.7682 6.10965 43.9933 5.54402 43.9938C5.26315 43.9948 4.98485 43.9403 4.72508 43.8334C4.4653 43.7266 4.22916 43.5696 4.03018 43.3713C3.8312 43.1731 3.67329 42.9376 3.5655 42.6782C3.45771 42.4188 3.40215 42.1407 3.40202 41.8598V27.7778C3.4044 26.1959 4.03397 24.6794 5.1527 23.5608C6.27143 22.4423 7.78803 21.813 9.37002 21.8108H10.476L13.049 23.9498C14.1694 24.8808 15.5803 25.3905 17.037 25.3905C18.4938 25.3905 19.9046 24.8808 21.025 23.9498L23.598 21.8108H24.918C25.8605 21.8077 26.7943 21.9917 27.6651 22.3522C28.5359 22.7127 29.3265 23.2425 29.991 23.9108L33.655 27.5728C33.973 27.8919 34.4046 28.0717 34.855 28.0728H41.115C41.6835 28.0716 42.2314 28.286 42.648 28.6728L42.683 28.7078C43.0786 29.0883 43.3086 29.6092 43.323 30.1578V30.2018C43.3228 30.7672 43.0981 31.3093 42.6983 31.7091C42.2985 32.1089 41.7564 32.3336 41.191 32.3338H33.275C32.995 32.3348 32.7175 32.2802 32.4587 32.1733C32.1998 32.0664 31.9647 31.9092 31.767 31.7108L29.099 29.0508C28.7677 28.7189 28.3741 28.4555 27.9408 28.2759C27.5075 28.0962 27.0431 28.0038 26.574 28.0038C26.1052 28.004 25.641 28.0964 25.2079 28.276C24.7748 28.4555 24.3814 28.7186 24.0499 29.0502C23.7185 29.3818 23.4557 29.7754 23.2764 30.2086C23.0971 30.6418 23.0049 31.106 23.005 31.5748V63.7468H18.741Z" fill="#EE7623"/>
<path d="M35.469 18.8258H44.291C44.7419 18.8258 45.1743 18.6467 45.4931 18.3279C45.8119 18.0091 45.991 17.5766 45.991 17.1258C45.991 16.9025 45.9471 16.6815 45.8616 16.4752C45.7762 16.269 45.651 16.0816 45.4931 15.9237C45.1743 15.6049 44.7419 15.4258 44.291 15.4258H35.469C35.0182 15.4258 34.5858 15.6049 34.267 15.9237C33.9481 16.2425 33.769 16.6749 33.769 17.1258C33.769 17.5766 33.9481 18.0091 34.267 18.3279C34.5858 18.6467 35.0182 18.8258 35.469 18.8258Z" fill="#EE7623"/>
<path d="M35.469 11.1339H53.114C53.5649 11.1339 53.9973 10.9548 54.3161 10.636C54.6349 10.3172 54.814 9.88475 54.814 9.43389C54.814 8.98302 54.6349 8.55062 54.3161 8.23181C53.9973 7.91299 53.5649 7.73389 53.114 7.73389H35.469C35.0182 7.73389 34.5858 7.91299 34.267 8.23181C33.9481 8.55062 33.769 8.98302 33.769 9.43389C33.769 9.88475 33.9481 10.3172 34.267 10.636C34.5858 10.9548 35.0182 11.1339 35.469 11.1339Z" fill="#EE7623"/>
</g>
<defs>
<clipPath id="clip0_148_88">
<rect width="67.146" height="67.149" fill="white"/>
</clipPath>
</defs>
</svg>
