<svg width="62" height="58" viewBox="0 0 62 58" fill="none" xmlns="http://www.w3.org/2000/svg">
<g clip-path="url(#clip0_149_119)">
<path d="M54.046 56.7231V37.2091C54.046 36.5208 53.773 35.8605 53.287 35.3731C52.8009 34.8857 52.1414 34.611 51.453 34.6091H50.813C50.125 34.6099 49.4654 34.8834 48.9786 35.3696C48.4918 35.8558 48.2176 36.5151 48.216 37.2031V40.4711C47.663 38.7503 46.5786 37.249 45.1187 36.1831C43.6588 35.1173 41.8986 34.5417 40.091 34.5391H24.281C24.0368 34.5398 23.7992 34.619 23.6035 34.765C23.4078 34.9111 23.2642 35.1162 23.194 35.3501C22.676 34.5425 21.9107 33.924 21.0124 33.587C20.1141 33.25 19.1309 33.2124 18.2095 33.48C17.2881 33.7476 16.4779 34.3059 15.8998 35.0717C15.3218 35.8375 15.0068 36.7697 15.002 37.7291C15.0033 38.7106 15.3287 39.6642 15.9276 40.4417C16.5265 41.2193 17.3654 41.7773 18.314 42.0291H14.246V27.8141C14.2436 27.1274 13.9696 26.4694 13.4838 25.9839C12.998 25.4985 12.3398 25.225 11.653 25.2231H11.019C10.331 25.2231 9.67104 25.4958 9.1837 25.9815C8.69637 26.4671 8.42139 27.1261 8.41901 27.8141V56.7231C8.41901 57.0234 8.53827 57.3113 8.75056 57.5236C8.96285 57.7359 9.25078 57.8551 9.55101 57.8551H13.111C13.2599 57.8555 13.4074 57.8266 13.5451 57.7698C13.6828 57.7131 13.808 57.6298 13.9134 57.5247C14.0188 57.4195 14.1025 57.2946 14.1596 57.157C14.2166 57.0195 14.246 56.8721 14.246 56.7231V51.7121H48.216V56.7231C48.2157 57.0232 48.3346 57.3111 48.5465 57.5235C48.7584 57.736 49.046 57.8556 49.346 57.8561H52.906C53.0554 57.8572 53.2036 57.8287 53.3419 57.7722C53.4802 57.7157 53.606 57.6324 53.712 57.5271C53.818 57.4218 53.902 57.2965 53.9594 57.1585C54.0167 57.0205 54.0461 56.8726 54.046 56.7231ZM25.413 36.8101H40.092C40.9508 36.8143 41.7997 36.9939 42.5867 37.3377C43.3737 37.6815 44.0821 38.1824 44.6687 38.8097C45.2553 39.437 45.7076 40.1775 45.9979 40.9857C46.2882 41.794 46.4104 42.653 46.357 43.5101H25.413V36.8101ZM17.266 37.7341C17.2665 37.1563 17.4964 36.6023 17.9052 36.1939C18.314 35.7855 18.8682 35.5561 19.446 35.5561C20.0236 35.5561 20.5776 35.7856 20.9861 36.1941C21.3945 36.6025 21.624 37.1565 21.624 37.7341C21.624 38.3118 21.3945 38.8658 20.9861 39.2742C20.5776 39.6827 20.0236 39.9121 19.446 39.9121C18.8683 39.9121 18.3142 39.6827 17.9056 39.2743C17.497 38.8659 17.2663 38.3119 17.266 37.7341ZM23.146 40.1871V42.0341H20.572C21.6274 41.7547 22.5434 41.0975 23.146 40.1871ZM11.986 55.5941H10.691V27.8141C10.6911 27.7712 10.6997 27.7287 10.7163 27.6891C10.7328 27.6495 10.757 27.6135 10.7875 27.5832C10.8179 27.5529 10.8541 27.529 10.8938 27.5127C10.9335 27.4963 10.9761 27.488 11.019 27.4881H11.658C11.7009 27.488 11.7435 27.4963 11.7832 27.5127C11.8229 27.529 11.8591 27.5529 11.8895 27.5832C11.92 27.6135 11.9442 27.6495 11.9607 27.6891C11.9773 27.7287 11.9859 27.7712 11.986 27.8141V55.5941ZM14.246 49.4551V44.2941H23.146V44.6471C23.1456 44.7963 23.1747 44.944 23.2316 45.0818C23.2885 45.2196 23.3721 45.3448 23.4776 45.4502C23.5831 45.5556 23.7084 45.6391 23.8463 45.6959C23.9841 45.7527 24.1319 45.7817 24.281 45.7811H47.489C47.7548 45.7823 48.0124 45.6891 48.216 45.5181V49.4441L14.246 49.4551ZM51.776 55.5941H50.481V37.2091C50.4809 37.1662 50.4892 37.1237 50.5055 37.0839C50.5218 37.0442 50.5458 37.0081 50.5761 36.9776C50.6063 36.9472 50.6423 36.923 50.6819 36.9064C50.7216 36.8899 50.7641 36.8813 50.807 36.8811H51.447C51.534 36.8811 51.6174 36.9157 51.6789 36.9772C51.7404 37.0387 51.775 37.1222 51.775 37.2091L51.776 55.5941Z" fill="#EE7623"/>
<path d="M1.024 22.7982C1.18452 22.9007 1.36834 22.9609 1.55838 22.9733C1.74842 22.9857 1.93851 22.9499 2.111 22.8692L31.232 9.27919L60.352 22.8692C60.5247 22.95 60.7149 22.9859 60.9052 22.9736C61.0954 22.9613 61.2795 22.9011 61.4402 22.7987C61.601 22.6963 61.7333 22.5549 61.8249 22.3877C61.9165 22.2205 61.9643 22.0328 61.964 21.8422V15.4472C61.9644 15.2318 61.9032 15.0208 61.7877 14.839C61.6722 14.6573 61.5072 14.5123 61.312 14.4212L31.759 0.626185C31.5972 0.54294 31.4179 0.499512 31.236 0.499512C31.0541 0.499512 30.8748 0.54294 30.713 0.626185L1.153 14.4212C0.957884 14.5124 0.792825 14.6574 0.67717 14.8391C0.561515 15.0209 0.500057 15.2318 0.5 15.4472V21.8472C0.499993 22.0377 0.547998 22.2252 0.639582 22.3923C0.731165 22.5594 0.863375 22.7007 1.024 22.8032M2.765 16.1692L31.232 2.88019L59.7 16.1692V20.0692L31.71 7.00019C31.5602 6.9301 31.3969 6.89377 31.2315 6.89377C31.0661 6.89377 30.9028 6.9301 30.753 7.00019L2.765 20.0652V16.1692Z" fill="#EE7623"/>
</g>
<defs>
<clipPath id="clip0_149_119">
<rect width="61.465" height="57.355" fill="white" transform="translate(0.5 0.5)"/>
</clipPath>
</defs>
</svg>
