<svg width="60" height="63" viewBox="0 0 60 63" fill="none" xmlns="http://www.w3.org/2000/svg">
<g clip-path="url(#clip0_149_127)">
<path d="M47.5229 56.196H12.357C10.7186 56.1902 9.14895 55.5366 7.99061 54.3779C6.83227 53.2192 6.17922 51.6494 6.17395 50.011V11.09C6.17395 3.846 18.488 0.5 29.944 0.5C41.4 0.5 53.7059 3.793 53.7059 11.09V49.959C53.7115 51.6055 53.0636 53.187 51.9044 54.3563C50.7452 55.5256 49.1695 56.1873 47.5229 56.196ZM29.944 2.322C19.05 2.322 7.95195 5.371 7.95195 11.09V49.959C7.95129 50.5381 8.06471 51.1117 8.28573 51.647C8.50674 52.1823 8.83103 52.6688 9.24007 53.0788C9.64911 53.4888 10.1349 53.8142 10.6697 54.0364C11.2045 54.2586 11.7778 54.3733 12.357 54.374H47.5229C48.6936 54.3729 49.8159 53.9075 50.6437 53.0797C51.4714 52.252 51.9369 51.1296 51.938 49.959V11.09C51.938 7.797 48.338 5.773 45.351 4.661C40.3877 3.00225 35.1758 2.21101 29.944 2.322Z" fill="#EE7623"/>
<path d="M35.918 10.7918H23.962C23.5401 10.7907 23.1351 10.6256 22.8328 10.3313C22.5305 10.0369 22.3545 9.63659 22.342 9.21485V6.57885C22.3391 6.36519 22.3789 6.15311 22.4593 5.95512C22.5396 5.75713 22.6588 5.57723 22.8098 5.42605C22.9608 5.27486 23.1405 5.15546 23.3384 5.07487C23.5363 4.99429 23.7484 4.95416 23.962 4.95685H35.918C36.1326 4.95267 36.3458 4.9917 36.545 5.07162C36.7442 5.15154 36.9252 5.27071 37.0774 5.42205C37.2296 5.57338 37.3498 5.75378 37.4308 5.95252C37.5118 6.15125 37.552 6.36425 37.549 6.57885V9.21485C37.5468 9.42589 37.5027 9.63439 37.4193 9.82827C37.3359 10.0221 37.2148 10.1975 37.0631 10.3442C36.9114 10.4909 36.732 10.606 36.5354 10.6829C36.3389 10.7597 36.129 10.7968 35.918 10.7918ZM24.112 9.01385H35.769V6.73685H24.112V9.01385Z" fill="#EE7623"/>
<path d="M52.85 36.2782H7.08598C6.96611 36.2795 6.84717 36.2569 6.73616 36.2116C6.62515 36.1664 6.5243 36.0994 6.43953 36.0146C6.35476 35.9298 6.28778 35.829 6.24252 35.718C6.19727 35.607 6.17464 35.488 6.17598 35.3682C6.17438 35.2481 6.1968 35.129 6.24194 35.0177C6.28707 34.9065 6.35401 34.8054 6.43881 34.7204C6.52361 34.6354 6.62455 34.5683 6.73569 34.5229C6.84684 34.4775 6.96594 34.4548 7.08598 34.4562H52.85C52.97 34.4552 53.089 34.4782 53.2001 34.5237C53.3112 34.5692 53.4121 34.6363 53.4969 34.7212C53.5818 34.8061 53.649 34.907 53.6945 35.0181C53.74 35.1291 53.7629 35.2481 53.762 35.3682C53.7547 35.6075 53.6562 35.8351 53.4867 36.0042C53.3171 36.1734 53.0894 36.2714 52.85 36.2782ZM52.85 14.7942H7.08598C6.85101 14.7969 6.62427 14.7077 6.45423 14.5455C6.28418 14.3833 6.18432 14.161 6.17598 13.9262C6.18276 13.6868 6.28075 13.459 6.44991 13.2895C6.61906 13.12 6.84661 13.0215 7.08598 13.0142H52.85C53.0919 13.0142 53.3238 13.1102 53.4949 13.2813C53.6659 13.4523 53.762 13.6843 53.762 13.9262C53.7536 14.1614 53.6535 14.3839 53.483 14.5462C53.3126 14.7084 53.0853 14.7974 52.85 14.7942Z" fill="#EE7623"/>
<path d="M29.892 36.2789C29.772 36.2802 29.6529 36.2575 29.5417 36.2122C29.4306 36.1668 29.3296 36.0996 29.2448 36.0146C29.16 35.9297 29.0931 35.8286 29.048 35.7173C29.0028 35.6061 28.9804 35.4869 28.982 35.3669V13.8829C28.9808 13.7626 29.0035 13.6432 29.0487 13.5317C29.0939 13.4202 29.1607 13.3188 29.2453 13.2332C29.3299 13.1477 29.4306 13.0798 29.5416 13.0334C29.6526 12.987 29.7717 12.963 29.892 12.9629C30.1269 12.9738 30.3481 13.0762 30.5084 13.2481C30.6688 13.42 30.7555 13.6479 30.75 13.8829V35.3669C30.757 35.4839 30.7399 35.6011 30.7 35.7114C30.66 35.8216 30.598 35.9225 30.5176 36.0079C30.4373 36.0933 30.3404 36.1613 30.2328 36.2079C30.1252 36.2545 30.0093 36.2787 29.892 36.2789Z" fill="#EE7623"/>
<path d="M49.152 36.2789C49.0316 36.2799 48.9121 36.2571 48.8006 36.2118C48.689 36.1664 48.5875 36.0994 48.502 36.0146C48.4164 35.9298 48.3485 35.8289 48.3022 35.7178C48.2559 35.6066 48.232 35.4873 48.232 35.3669V13.8829C48.232 13.6389 48.3289 13.4049 48.5015 13.2324C48.674 13.0598 48.908 12.9629 49.152 12.9629C49.3862 12.9755 49.6065 13.0784 49.7664 13.25C49.9264 13.4215 50.0137 13.6484 50.01 13.8829V35.3669C50.0162 35.4838 49.9987 35.6007 49.9585 35.7106C49.9183 35.8205 49.8562 35.9211 49.776 36.0063C49.6958 36.0916 49.5992 36.1597 49.4919 36.2065C49.3847 36.2533 49.269 36.278 49.152 36.2789ZM10.789 36.2789C10.6686 36.2799 10.5491 36.2571 10.4376 36.2118C10.326 36.1664 10.2245 36.0994 10.139 36.0146C10.0534 35.9298 9.98553 35.8289 9.9392 35.7178C9.89287 35.6066 9.86901 35.4873 9.86902 35.3669V13.8829C9.86902 13.6389 9.96595 13.4049 10.1385 13.2324C10.311 13.0598 10.545 12.9629 10.789 12.9629C11.0318 12.9645 11.2641 13.0622 11.435 13.2346C11.6059 13.407 11.7016 13.6401 11.701 13.8829V35.3669C11.6855 35.6037 11.5844 35.8267 11.4167 35.9945C11.2489 36.1623 11.0258 36.2634 10.789 36.2789Z" fill="#EE7623"/>
<path d="M17.831 49.355H12.76C12.2491 49.355 11.7591 49.1521 11.3978 48.791C11.0364 48.4298 10.8333 47.9399 10.833 47.429V43.518C10.8359 43.009 11.0403 42.5219 11.4014 42.1632C11.7625 41.8045 12.251 41.6035 12.76 41.604H17.831C18.3402 41.6032 18.8289 41.8042 19.1903 42.1629C19.5516 42.5216 19.7561 43.0089 19.759 43.518V47.375C19.7644 47.6321 19.7187 47.8878 19.6244 48.1271C19.53 48.3664 19.3891 48.5845 19.2096 48.7688C19.0302 48.953 18.8159 49.0998 18.5792 49.2004C18.3425 49.301 18.0882 49.3536 17.831 49.355ZM12.76 43.426C12.7215 43.4284 12.6852 43.4447 12.658 43.472C12.6307 43.4992 12.6144 43.5355 12.612 43.574V47.429C12.613 47.4679 12.6289 47.505 12.6565 47.5325C12.684 47.5601 12.7211 47.576 12.76 47.577H17.831C17.8697 47.5749 17.9062 47.5586 17.9337 47.5313C17.9611 47.5041 17.9776 47.4676 17.98 47.429V43.518C17.9765 43.4797 17.9599 43.4439 17.9329 43.4165C17.9059 43.3892 17.8702 43.372 17.832 43.368H12.76V43.426Z" fill="#EE7623"/>
<path d="M47.173 49.355H42.102C41.5911 49.355 41.1011 49.1521 40.7397 48.791C40.3784 48.4298 40.1753 47.9399 40.175 47.429V43.518C40.1779 43.009 40.3823 42.5219 40.7434 42.1632C41.1045 41.8045 41.593 41.6035 42.102 41.604H47.173C47.6821 41.6032 48.1709 41.8042 48.5322 42.1629C48.8936 42.5216 49.0981 43.0089 49.101 43.518V47.375C49.1064 47.6321 49.0607 47.8878 48.9663 48.1271C48.872 48.3664 48.7311 48.5845 48.5516 48.7688C48.3722 48.953 48.1579 49.0998 47.9212 49.2004C47.6845 49.301 47.4302 49.3536 47.173 49.355ZM42.102 43.426C42.0633 43.4283 42.0268 43.4446 41.9992 43.4718C41.9716 43.499 41.9548 43.5354 41.952 43.574V47.429C41.9544 47.4678 41.971 47.5044 41.9987 47.5317C42.0264 47.559 42.0632 47.5751 42.102 47.577H47.173C47.2122 47.5765 47.2496 47.5608 47.2774 47.5332C47.3052 47.5055 47.3212 47.4682 47.322 47.429V43.518C47.3203 43.4791 47.3042 43.4422 47.2769 43.4145C47.2495 43.3868 47.2129 43.3702 47.174 43.368H42.102V43.426Z" fill="#EE7623"/>
<path d="M37.697 42.3572H22.238C22.118 42.3586 21.9989 42.3359 21.8877 42.2905C21.7766 42.2451 21.6756 42.1779 21.5908 42.093C21.5061 42.008 21.4391 41.9069 21.394 41.7956C21.3488 41.6844 21.3264 41.5653 21.328 41.4452C21.3267 41.3253 21.3493 41.2064 21.3946 41.0954C21.4398 40.9844 21.5068 40.8835 21.5916 40.7988C21.6763 40.714 21.7772 40.647 21.8882 40.6018C21.9992 40.5565 22.1181 40.5339 22.238 40.5352H37.697C37.8169 40.5339 37.9358 40.5565 38.0468 40.6018C38.1579 40.647 38.2587 40.714 38.3435 40.7988C38.4282 40.8835 38.4952 40.9844 38.5405 41.0954C38.5857 41.2064 38.6084 41.3253 38.607 41.4452C38.6086 41.5653 38.5862 41.6844 38.5411 41.7956C38.4959 41.9069 38.429 42.008 38.3442 42.093C38.2594 42.1779 38.1585 42.2451 38.0473 42.2905C37.9362 42.3359 37.8171 42.3586 37.697 42.3572Z" fill="#EE7623"/>
<path d="M34.858 46.2112H25.074C24.954 46.2126 24.8349 46.1899 24.7237 46.1445C24.6126 46.0991 24.5116 46.032 24.4268 45.947C24.342 45.862 24.2751 45.7609 24.23 45.6497C24.1848 45.5384 24.1624 45.4193 24.164 45.2992C24.1627 45.1793 24.1853 45.0604 24.2306 44.9494C24.2758 44.8384 24.3428 44.7375 24.4276 44.6528C24.5123 44.568 24.6132 44.501 24.7242 44.4558C24.8352 44.4105 24.9541 44.3879 25.074 44.3892H34.858C34.9779 44.3879 35.0968 44.4105 35.2078 44.4558C35.3189 44.501 35.4197 44.568 35.5045 44.6528C35.5892 44.7375 35.6562 44.8384 35.7015 44.9494C35.7467 45.0604 35.7694 45.1793 35.768 45.2992C35.7615 45.5387 35.6636 45.7666 35.4944 45.9362C35.3252 46.1057 35.0975 46.2042 34.858 46.2112Z" fill="#EE7623"/>
<path d="M31.971 50.0652H27.971C27.8511 50.0666 27.7322 50.0439 27.6212 49.9987C27.5102 49.9534 27.4093 49.8864 27.3245 49.8017C27.2398 49.7169 27.1728 49.6161 27.1275 49.505C27.0823 49.394 27.0597 49.2751 27.061 49.1552C27.0594 49.0352 27.0818 48.916 27.1269 48.8048C27.1721 48.6935 27.239 48.5925 27.3238 48.5075C27.4086 48.4225 27.5096 48.3553 27.6207 48.3099C27.7318 48.2646 27.8509 48.2419 27.971 48.2432H31.971C32.091 48.2423 32.21 48.2652 32.3211 48.3107C32.4322 48.3562 32.5331 48.4234 32.618 48.5083C32.7028 48.5931 32.77 48.694 32.8155 48.8051C32.861 48.9162 32.8839 49.0352 32.883 49.1552C32.8843 49.2753 32.8617 49.3944 32.8163 49.5055C32.7709 49.6167 32.7037 49.7176 32.6187 49.8024C32.5338 49.8872 32.4327 49.9541 32.3214 49.9993C32.2102 50.0444 32.091 50.0668 31.971 50.0652Z" fill="#EE7623"/>
<path d="M55.686 30.603H52.849C52.7288 30.604 52.6096 30.581 52.4984 30.5353C52.3872 30.4897 52.2862 30.4224 52.2013 30.3373C52.1164 30.2522 52.0493 30.1511 52.0039 30.0398C51.9586 29.9285 51.9358 29.8092 51.937 29.689C51.9365 29.5692 51.9597 29.4505 52.0054 29.3397C52.0511 29.2289 52.1182 29.1283 52.2031 29.0437C52.2879 28.9591 52.3886 28.8921 52.4995 28.8467C52.6104 28.8012 52.7292 28.7783 52.849 28.779H55.686C56.208 28.7706 56.7062 28.5597 57.0757 28.1908C57.4451 27.8219 57.6567 27.324 57.666 26.802V22.344C57.6649 21.8193 57.456 21.3164 57.0848 20.9455C56.7137 20.5746 56.2107 20.3658 55.686 20.365H52.849C52.729 20.3658 52.6101 20.3428 52.4991 20.2973C52.388 20.2517 52.2872 20.1846 52.2023 20.0997C52.1175 20.0149 52.0504 19.914 52.0048 19.803C51.9593 19.692 51.9362 19.573 51.937 19.453C51.9357 19.333 51.9583 19.2139 52.0037 19.1028C52.0491 18.9916 52.1163 18.8907 52.2013 18.8059C52.2862 18.7211 52.3873 18.6541 52.4986 18.609C52.6098 18.5639 52.729 18.5414 52.849 18.543H55.686C56.1784 18.542 56.6661 18.6381 57.1212 18.826C57.5764 19.0138 57.9899 19.2897 58.3382 19.6377C58.6865 19.9857 58.9627 20.3991 59.1509 20.854C59.3391 21.309 59.4357 21.7967 59.435 22.289V26.75C59.4405 27.7557 59.0505 28.7232 58.3492 29.444C57.6479 30.1647 56.6914 30.581 55.686 30.603Z" fill="#EE7623"/>
<path d="M7.08702 30.603H4.24902C3.75643 30.6039 3.26851 30.5076 2.81325 30.3195C2.35798 30.1314 1.94433 29.8553 1.59602 29.507C1.24771 29.1587 0.971595 28.745 0.783517 28.2898C0.595438 27.8345 0.499097 27.3466 0.500019 26.854V22.396C0.498434 21.9032 0.594323 21.415 0.782167 20.9594C0.970011 20.5039 1.2461 20.09 1.59454 19.7415C1.94298 19.3931 2.3569 19.117 2.81247 18.9291C3.26803 18.7413 3.75625 18.6454 4.24902 18.647H7.08702C7.20701 18.6462 7.32596 18.6692 7.43697 18.7148C7.54798 18.7603 7.64883 18.8275 7.73368 18.9123C7.81852 18.9972 7.88567 19.098 7.93122 19.209C7.97677 19.3201 7.99982 19.439 7.99902 19.559C8.00036 19.679 7.97768 19.7981 7.9323 19.9093C7.88692 20.0204 7.81976 20.1214 7.73477 20.2062C7.64979 20.291 7.5487 20.3579 7.43746 20.403C7.32621 20.4482 7.20706 20.4706 7.08702 20.469H4.24902C3.72856 20.4787 3.23199 20.6892 2.86316 21.0565C2.49433 21.4239 2.2818 21.9196 2.27002 22.44V26.907C2.27292 27.4301 2.48264 27.9309 2.85341 28.3C3.22417 28.669 3.72587 28.8765 4.24902 28.877H7.08702C7.20682 28.8769 7.32547 28.9004 7.43618 28.9461C7.54689 28.9919 7.64748 29.0591 7.73219 29.1438C7.81691 29.2285 7.88408 29.3291 7.92987 29.4398C7.97565 29.5505 7.99915 29.6692 7.99902 29.789C7.99767 29.904 7.97238 30.0174 7.92476 30.1221C7.87714 30.2268 7.80823 30.3204 7.72243 30.397C7.63663 30.4736 7.53582 30.5314 7.42642 30.5669C7.31702 30.6024 7.20143 30.6147 7.08702 30.603Z" fill="#EE7623"/>
<path d="M18.542 62.8349H17.377C16.2504 62.8275 15.1719 62.3766 14.3753 61.5798C13.5787 60.7831 13.1281 59.7045 13.121 58.5779V55.2319C13.1197 55.112 13.1423 54.993 13.1876 54.882C13.2328 54.771 13.2998 54.6702 13.3846 54.5854C13.4693 54.5006 13.5702 54.4337 13.6812 54.3884C13.7922 54.3431 13.9112 54.3205 14.031 54.3219C14.1511 54.3202 14.2702 54.3427 14.3815 54.3878C14.4927 54.4329 14.5938 54.4999 14.6788 54.5847C14.7638 54.6695 14.8309 54.7704 14.8763 54.8816C14.9217 54.9927 14.9444 55.1118 14.943 55.2319V58.5769C14.9441 59.2355 15.2067 59.8667 15.673 60.3318C16.1394 60.7968 16.7714 61.0577 17.43 61.0569H18.594C19.2431 61.045 19.8615 60.7783 20.3154 60.3142C20.7694 59.8501 21.0225 59.226 21.02 58.5769V55.2319C21.02 55.1122 21.0436 54.9937 21.0895 54.8832C21.1353 54.7726 21.2026 54.6722 21.2873 54.5877C21.372 54.5032 21.4725 54.4362 21.5832 54.3906C21.6938 54.3449 21.8124 54.3216 21.932 54.3219C22.0523 54.3207 22.1717 54.3433 22.2832 54.3885C22.3947 54.4337 22.4961 54.5005 22.5817 54.5851C22.6672 54.6697 22.7351 54.7704 22.7815 54.8814C22.8279 54.9925 22.8519 55.1115 22.852 55.2319V58.5769C22.8247 59.7065 22.3602 60.7815 21.5563 61.5757C20.7525 62.3698 19.6719 62.8212 18.542 62.8349Z" fill="#EE7623"/>
<path d="M42.557 62.8349H41.392C40.2714 62.8246 39.2005 62.3709 38.4134 61.5732C37.6264 60.7754 37.1872 59.6985 37.192 58.5779V55.2319C37.1907 55.1118 37.2134 54.9927 37.2587 54.8816C37.3041 54.7704 37.3713 54.6695 37.4563 54.5847C37.5412 54.4999 37.6423 54.4329 37.7536 54.3878C37.8648 54.3427 37.984 54.3202 38.104 54.3219C38.2239 54.3205 38.3428 54.3431 38.4538 54.3884C38.5648 54.4337 38.6657 54.5006 38.7505 54.5854C38.8352 54.6702 38.9022 54.771 38.9475 54.882C38.9927 54.993 39.0154 55.112 39.014 55.2319V58.5769C39.0136 59.2263 39.2681 59.8499 39.7227 60.3137C40.1773 60.7774 40.7957 61.0443 41.445 61.0569H42.609C43.2664 61.0553 43.8964 60.7937 44.3616 60.3293C44.8268 59.8648 45.0894 59.2352 45.092 58.5779V55.2319C45.0907 55.1118 45.1134 54.9927 45.1587 54.8816C45.2041 54.7704 45.2713 54.6695 45.3563 54.5847C45.4412 54.4999 45.5423 54.4329 45.6536 54.3878C45.7648 54.3427 45.884 54.3202 46.004 54.3219C46.1239 54.3205 46.2428 54.3431 46.3538 54.3884C46.4648 54.4337 46.5657 54.5006 46.6505 54.5854C46.7352 54.6702 46.8022 54.771 46.8475 54.882C46.8927 54.993 46.9154 55.112 46.914 55.2319V58.5769C46.8694 59.7089 46.3931 60.781 45.5828 61.5729C44.7725 62.3647 43.6898 62.8163 42.557 62.8349Z" fill="#EE7623"/>
</g>
<defs>
<clipPath id="clip0_149_127">
<rect width="58.936" height="62.335" fill="white" transform="translate(0.5 0.5)"/>
</clipPath>
</defs>
</svg>
