<svg width="78" height="69" viewBox="0 0 78 69" fill="none" xmlns="http://www.w3.org/2000/svg">
<g clip-path="url(#clip0_149_143)">
<path d="M77.146 53.2038C76.7215 52.7797 76.146 52.5416 75.546 52.5418C72.915 52.5418 68.946 52.5418 68.57 52.5418C67.3126 52.4736 66.0981 52.061 65.0595 51.349C64.0208 50.637 63.198 49.653 62.681 48.5048L54.608 30.9198C53.237 27.9284 51.0687 25.3723 48.341 23.5318C45.7977 21.8108 42.843 20.7962 39.779 20.5918V36.6518C40.8766 37.3376 41.7503 38.3288 42.293 39.5038L50.509 57.3288C51.8828 60.3149 54.0512 62.8659 56.777 64.7028C59.5081 66.5486 62.7089 67.5772 66.004 67.6678C66.118 67.6678 69.327 67.6678 75.545 67.6738C75.8425 67.6739 76.1371 67.6154 76.4119 67.5017C76.6868 67.3879 76.9365 67.221 77.1469 67.0107C77.3572 66.8003 77.5241 66.5506 77.6378 66.2757C77.7516 66.0009 77.8101 65.7063 77.81 65.4088V54.8088C77.8099 54.5116 77.7512 54.2173 77.6372 53.9427C77.5233 53.6682 77.3564 53.4188 77.146 53.2088" fill="#EE7623"/>
<path d="M35.249 16.5308H0.5V34.3838C0.5 34.6812 0.558586 34.9757 0.672413 35.2505C0.78624 35.5253 0.953078 35.775 1.1634 35.9854C1.37373 36.1957 1.62342 36.3625 1.89822 36.4763C2.17302 36.5902 2.46756 36.6488 2.765 36.6488H8.779V29.9158C8.78059 27.5036 9.73916 25.1907 11.4443 23.4846C13.1495 21.7785 15.4619 20.8187 17.874 20.8158C20.287 20.8174 22.6007 21.7766 24.3069 23.4828C26.0132 25.1891 26.9724 27.5028 26.974 29.9158V36.6488C26.974 36.6488 34.518 36.6488 35.253 36.6488L35.249 16.5308Z" fill="#EE7623"/>
<path d="M22.44 36.6489V41.2389H13.309V36.6489H8.77899V66.3709C8.77899 66.9709 9.01708 67.5465 9.44098 67.9711C9.86489 68.3958 10.44 68.6349 11.04 68.6359C11.6407 68.6359 12.2168 68.3973 12.6416 67.9725C13.0664 67.5478 13.305 66.9716 13.305 66.3709V63.9059H22.44V66.3709C22.44 66.6684 22.4986 66.9629 22.6124 67.2377C22.7262 67.5125 22.8931 67.7622 23.1034 67.9725C23.3137 68.1828 23.5634 68.3497 23.8382 68.4635C24.113 68.5773 24.4075 68.6359 24.705 68.6359C25.0024 68.6359 25.297 68.5773 25.5718 68.4635C25.8466 68.3497 26.0963 68.1828 26.3066 67.9725C26.5169 67.7622 26.6838 67.5125 26.7976 67.2377C26.9114 66.9629 26.97 66.6684 26.97 66.3709V36.6489H22.44ZM22.44 50.3079H13.309V45.7689H22.44V50.3079ZM13.309 54.8379H22.44V59.3769H13.309V54.8379Z" fill="#EE7623"/>
<path d="M22.44 29.9161C22.439 28.7057 21.9577 27.5452 21.1018 26.6893C20.2459 25.8334 19.0854 25.3521 17.875 25.3511C16.6646 25.3524 15.5042 25.8337 14.6482 26.6895C13.7922 27.5453 13.3106 28.7057 13.309 29.9161V36.6451H22.44V29.9161Z" fill="#EE7623"/>
<path d="M35.249 12.002L25.694 1.363C25.4818 1.09424 25.2115 0.876983 24.9034 0.727526C24.5954 0.578069 24.2574 0.500283 23.915 0.5H11.831C11.4887 0.500215 11.1509 0.577976 10.843 0.727444C10.535 0.876912 10.2649 1.0942 10.053 1.363L0.5 12.002H35.249Z" fill="#EE7623"/>
</g>
<defs>
<clipPath id="clip0_149_143">
<rect width="77.31" height="68.137" fill="white" transform="translate(0.5 0.5)"/>
</clipPath>
</defs>
</svg>
