<svg width="67" height="60" viewBox="0 0 67 60" fill="none" xmlns="http://www.w3.org/2000/svg">
<g clip-path="url(#clip0_149_123)">
<path d="M65.656 20.7808H62.773L63.144 19.8808C63.5641 18.8684 63.6738 17.754 63.4592 16.6791C63.2447 15.6042 62.7155 14.6174 61.939 13.8438L59.383 11.2878V8.17779C59.383 7.9391 59.2882 7.71018 59.1194 7.5414C58.9506 7.37261 58.7217 7.27779 58.483 7.27779C58.2443 7.27779 58.0154 7.37261 57.8466 7.5414C57.6778 7.71018 57.583 7.9391 57.583 8.17779V11.2878L55.021 13.8438C54.2434 14.6169 53.7131 15.6036 53.4973 16.6786C53.2815 17.7536 53.39 18.8685 53.809 19.8818L54.18 20.7818H51.303C51.0643 20.7818 50.8354 20.8766 50.6666 21.0454C50.4978 21.2142 50.403 21.4431 50.403 21.6818V27.0448C50.403 27.163 50.4263 27.28 50.4715 27.3892C50.5167 27.4984 50.583 27.5976 50.6666 27.6812C50.7502 27.7648 50.8494 27.8311 50.9586 27.8763C51.0678 27.9215 51.1848 27.9448 51.303 27.9448H53.403V33.7838H49.403V30.3638C49.403 30.1251 49.3082 29.8962 49.1394 29.7274C48.9706 29.5586 48.7417 29.4638 48.503 29.4638H46.587C47.7847 27.6618 48.4038 25.5373 48.3619 23.3741C48.3199 21.2108 47.6187 19.1119 46.352 17.3578C44.2337 14.4152 41.2569 12.2 37.83 11.0158L36.836 10.6578C37.2413 9.77937 37.4337 8.81777 37.3978 7.85104C37.3618 6.88431 37.0984 5.93968 36.629 5.09379L34.317 0.962793C34.2596 0.859115 34.1822 0.767808 34.0894 0.694113C33.9965 0.620419 33.89 0.565788 33.776 0.53336C33.662 0.500932 33.5427 0.491343 33.425 0.505147C33.3073 0.51895 33.1934 0.555872 33.09 0.613793C32.9434 0.695331 32.8226 0.816211 32.741 0.962793L30.43 5.09379C29.96 5.9395 29.6964 6.88425 29.6606 7.85112C29.6248 8.81799 29.8178 9.77965 30.224 10.6578L29.224 11.0138C25.7993 12.1995 22.825 14.4154 20.709 17.3578C19.4418 19.1122 18.7401 21.2115 18.6978 23.3752C18.6554 25.539 19.2744 27.6642 20.472 29.4668H18.563C18.3243 29.4668 18.0954 29.5616 17.9266 29.7304C17.7578 29.8992 17.663 30.1281 17.663 30.3668V33.7868H13.663V27.9528H15.763C16.0021 27.9512 16.2308 27.8552 16.3994 27.6857C16.568 27.5162 16.6628 27.2869 16.663 27.0478V21.6798C16.663 21.4411 16.5682 21.2122 16.3994 21.0434C16.2306 20.8746 16.0017 20.7798 15.763 20.7798H12.88L13.251 19.8798C13.6701 18.866 13.7786 17.7505 13.5626 16.6749C13.3467 15.5994 12.816 14.6122 12.038 13.8388L9.48301 11.2838V8.17779C9.48301 7.9391 9.38819 7.71018 9.21941 7.5414C9.05063 7.37261 8.82171 7.27779 8.58301 7.27779C8.34432 7.27779 8.1154 7.37261 7.94662 7.5414C7.77783 7.71018 7.68301 7.9391 7.68301 8.17779V11.2878L5.12101 13.8438C4.34429 14.6174 3.8149 15.6044 3.6 16.6794C3.38511 17.7544 3.4944 18.869 3.91401 19.8818L4.28502 20.7818H1.40201C1.16332 20.7818 0.9344 20.8766 0.765617 21.0454C0.596835 21.2142 0.502014 21.4431 0.502014 21.6818V27.0448C0.502014 27.163 0.525293 27.28 0.570522 27.3892C0.615752 27.4984 0.682045 27.5976 0.765617 27.6812C0.84919 27.7648 0.948405 27.8311 1.0576 27.8763C1.16679 27.9215 1.28382 27.9448 1.40201 27.9448H3.50201V58.8828C3.50201 59.1215 3.59683 59.3504 3.76562 59.5192C3.9344 59.688 4.16332 59.7828 4.40201 59.7828H62.656C62.8947 59.7828 63.1236 59.688 63.2924 59.5192C63.4612 59.3504 63.556 59.1215 63.556 58.8828V27.9528H65.656C65.8951 27.9512 66.1238 27.8552 66.2924 27.6857C66.461 27.5162 66.5558 27.2869 66.556 27.0478V21.6798C66.556 21.4411 66.4612 21.2122 66.2924 21.0434C66.1236 20.8746 65.8947 20.7798 65.656 20.7798M55.484 19.1938C55.201 18.5106 55.1273 17.7588 55.2722 17.0336C55.4172 16.3085 55.7742 15.6427 56.298 15.1208L58.48 12.9398L60.661 15.1208C61.1848 15.6427 61.5419 16.3085 61.6868 17.0336C61.8317 17.7588 61.758 18.5106 61.475 19.1938L60.819 20.7808H56.139L55.484 19.1938ZM32.009 5.97579L33.53 3.25779L35.052 5.98179C35.3978 6.60239 35.5855 7.29851 35.5988 8.0088C35.612 8.71909 35.4504 9.42173 35.128 10.0548L33.833 9.58979C33.6366 9.52048 33.4224 9.52048 33.226 9.58979L31.931 10.0548C31.6084 9.42065 31.4468 8.71689 31.4604 8.00555C31.474 7.29421 31.6624 6.59714 32.009 5.97579ZM22.192 18.3888C24.0945 15.7546 26.7652 13.7734 29.838 12.7168L33.53 11.3948L37.222 12.7168C40.2942 13.7735 42.9643 15.7547 44.866 18.3888C46.0399 20.0239 46.6276 22.0073 46.534 24.018C46.4404 26.0287 45.6708 27.9489 44.35 29.4678H22.709C21.388 27.949 20.6183 26.0289 20.5245 24.0182C20.4307 22.0075 21.0182 20.024 22.192 18.3888ZM19.465 31.2738H47.592V33.7898H19.465V31.2738ZM5.58501 19.1938C5.30164 18.5108 5.22754 17.7591 5.3721 17.0339C5.51667 16.3088 5.8734 15.6429 6.39701 15.1208L8.57901 12.9398L10.762 15.1208C11.2856 15.6429 11.6424 16.3088 11.7869 17.0339C11.9315 17.7591 11.8574 18.5108 11.574 19.1938L10.919 20.7808H6.23901L5.58501 19.1938ZM2.30901 22.5868H14.856V26.1478H2.30901V22.5868ZM5.30901 27.9548H11.856V57.9848H5.30901V27.9548ZM13.664 35.5968H53.399V57.9808H51.699V51.1578C51.6978 50.264 51.514 49.3799 51.1589 48.5596C50.8038 47.7394 50.2849 47.0003 49.634 46.3878L47.653 44.5328C47.486 44.3753 47.2651 44.2875 47.0355 44.2875C46.8059 44.2875 46.585 44.3753 46.418 44.5328L44.437 46.3878C43.7857 47.0002 43.2662 47.7391 42.9104 48.5593C42.5546 49.3795 42.3701 50.2638 42.368 51.1578V57.9778H39.948V47.5708C39.9463 46.3172 39.6881 45.0771 39.1894 43.927C38.6907 42.7768 37.962 41.7409 37.048 40.8828L34.148 38.1648C33.9811 38.0079 33.7606 37.9205 33.5315 37.9205C33.3024 37.9205 33.0819 38.0079 32.915 38.1648L30.009 40.8828C29.0955 41.7412 28.367 42.7772 27.8683 43.9273C27.3697 45.0774 27.1113 46.3173 27.109 47.5708V57.9808H24.689V51.1578C24.6881 50.2631 24.504 49.3781 24.1482 48.5573C23.7924 47.7364 23.2723 46.9971 22.62 46.3848L20.639 44.5298C20.4721 44.3729 20.2516 44.2855 20.0225 44.2855C19.7934 44.2855 19.5729 44.3729 19.406 44.5298L17.427 46.3848C16.7753 46.9975 16.2556 47.737 15.8998 48.5577C15.544 49.3785 15.3597 50.2632 15.358 51.1578V57.9778H13.658L13.664 35.5968ZM17.164 57.9818V51.1578C17.1655 50.5102 17.2993 49.8698 17.5572 49.2758C17.8151 48.6819 18.1918 48.1469 18.664 47.7038L20.028 46.4258L21.391 47.7038C21.8634 48.1468 22.2402 48.6817 22.4982 49.2757C22.7561 49.8697 22.8898 50.5102 22.891 51.1578V57.9778L17.164 57.9818ZM28.92 57.9818V47.5708C28.9212 46.5647 29.1282 45.5695 29.5282 44.6464C29.9282 43.7233 30.5128 42.8917 31.246 42.2028L33.531 40.0628L35.816 42.2018C36.5491 42.8908 37.1337 43.7224 37.5339 44.6455C37.934 45.5686 38.1413 46.5637 38.143 47.5698V57.9808L28.92 57.9818ZM44.176 57.9818V51.1578C44.1776 50.5103 44.3114 49.8699 44.5694 49.2759C44.8273 48.682 45.2039 48.147 45.676 47.7038L47.04 46.4258L48.403 47.7038C48.8754 48.1468 49.2522 48.6817 49.5102 49.2757C49.7681 49.8697 49.9018 50.5102 49.903 51.1578V57.9778L44.176 57.9818ZM61.755 57.9818H55.209V27.9508H61.756L61.755 57.9818ZM64.755 26.1458H52.209V22.5828H64.752L64.755 26.1458Z" fill="#EE7623"/>
<path d="M36.439 14.903C36.2136 14.8222 35.9653 14.8343 35.7488 14.9366C35.5323 15.0389 35.3653 15.2231 35.2845 15.4485C35.2038 15.6739 35.2159 15.9222 35.3182 16.1387C35.4205 16.3552 35.6046 16.5222 35.83 16.603C38.094 17.3686 40.0662 18.8149 41.477 20.744C41.5448 20.8414 41.6311 20.9244 41.7309 20.9885C41.8308 21.0525 41.9423 21.0962 42.0591 21.1172C42.1758 21.1381 42.2956 21.1359 42.4115 21.1105C42.5274 21.0852 42.6371 21.0373 42.7345 20.9695C42.8319 20.9017 42.915 20.8155 42.979 20.7156C43.043 20.6157 43.0868 20.5042 43.1077 20.3874C43.1287 20.2707 43.1264 20.1509 43.101 20.035C43.0757 19.9191 43.0278 19.8094 42.96 19.712C41.3347 17.4745 39.0569 15.7947 36.439 14.903Z" fill="#EE7623"/>
</g>
<defs>
<clipPath id="clip0_149_123">
<rect width="66.06" height="59.287" fill="white" transform="translate(0.5 0.5)"/>
</clipPath>
</defs>
</svg>
