<svg width="66" height="66" viewBox="0 0 66 66" fill="none" xmlns="http://www.w3.org/2000/svg">
<g clip-path="url(#clip0_148_102)">
<path d="M0 0V2.174H1.087V3.262C1.08868 4.31849 1.39808 5.35161 1.97737 6.23511C2.55667 7.11862 3.38078 7.81425 4.349 8.237V26.092H2.175V28.267H4.349V46.748H60.882V28.267H63.056V26.092H60.882V8.237C61.8502 7.81437 62.6741 7.11871 63.2531 6.23514C63.8321 5.35156 64.141 4.31838 64.142 3.262V2.174H65.23V0H0ZM46.748 2.174H53.272V3.262C53.272 3.69037 53.1876 4.11455 53.0237 4.51031C52.8598 4.90608 52.6195 5.26568 52.3166 5.56858C52.0137 5.87149 51.6541 6.11176 51.2583 6.2757C50.8625 6.43963 50.4384 6.524 50.01 6.524C49.5816 6.524 49.1575 6.43963 48.7617 6.2757C48.3659 6.11176 48.0063 5.87149 47.7034 5.56858C47.4005 5.26568 47.1602 4.90608 46.9963 4.51031C46.8324 4.11455 46.748 3.69037 46.748 3.262V2.174ZM38.048 2.174H44.572V3.262C44.572 4.12714 44.2283 4.95684 43.6166 5.56858C43.0048 6.18033 42.1751 6.524 41.31 6.524C40.4449 6.524 39.6152 6.18033 39.0034 5.56858C38.3917 4.95684 38.048 4.12714 38.048 3.262V2.174ZM29.348 2.174H35.872V3.262C35.872 4.12714 35.5283 4.95684 34.9166 5.56858C34.3048 6.18033 33.4751 6.524 32.61 6.524C31.7449 6.524 30.9152 6.18033 30.3034 5.56858C29.6917 4.95684 29.348 4.12714 29.348 3.262V2.174ZM20.648 2.174H27.18V3.262C27.18 3.69037 27.0956 4.11455 26.9317 4.51031C26.7678 4.90608 26.5275 5.26568 26.2246 5.56858C25.9217 5.87149 25.5621 6.11176 25.1663 6.2757C24.7705 6.43963 24.3464 6.524 23.918 6.524C23.4896 6.524 23.0655 6.43963 22.6697 6.2757C22.2739 6.11176 21.9143 5.87149 21.6114 5.56858C21.3085 5.26568 21.0682 4.90608 20.9043 4.51031C20.7404 4.11455 20.656 3.69037 20.656 3.262L20.648 2.174ZM11.948 2.174H18.47V3.262C18.47 4.12687 18.1264 4.95632 17.5149 5.56788C16.9033 6.17943 16.0739 6.523 15.209 6.523C14.3441 6.523 13.5147 6.17943 12.9031 5.56788C12.2916 4.95632 11.948 4.12687 11.948 3.262V2.174ZM10.872 6.489C11.3719 7.17377 12.0265 7.73083 12.7824 8.11487C13.5383 8.49891 14.3741 8.69908 15.222 8.69908C16.0699 8.69908 16.9057 8.49891 17.6616 8.11487C18.4175 7.73083 19.0721 7.17377 19.572 6.489C19.8702 6.88884 20.2222 7.24554 20.618 7.549C20.4526 11.1092 19.3684 14.5659 17.4709 17.5828C15.5734 20.5997 12.9273 23.074 9.79 24.765L7.336 26.092H6.524V8.7C7.37108 8.6977 8.20581 8.49674 8.96112 8.11327C9.71643 7.72979 10.3713 7.1745 10.873 6.492M3.262 3.262V2.174H9.784V3.262C9.784 4.12687 9.44043 4.95632 8.82888 5.56788C8.21732 6.17943 7.38787 6.523 6.523 6.523C5.65813 6.523 4.82868 6.17943 4.21712 5.56788C3.60557 4.95632 3.262 4.12687 3.262 3.262ZM11.962 44.574H6.524V28.267H7.052L8.52 30.322C10.7631 33.4533 11.9657 37.2102 11.958 41.062L11.962 44.574ZM51.099 44.574H14.133V41.062C14.1411 36.758 12.7964 32.5602 10.289 29.062L9.723 28.27H14.133V26.092H11.833C14.9004 24.2319 17.4864 21.6752 19.3814 18.6293C21.2763 15.5833 22.427 12.1336 22.74 8.56C23.7628 8.79641 24.8327 8.72604 25.8157 8.35769C26.7987 7.98934 27.6514 7.33935 28.267 6.489C28.7669 7.17377 29.4215 7.73083 30.1774 8.11487C30.9333 8.49891 31.7691 8.69908 32.617 8.69908C33.4649 8.69908 34.3007 8.49891 35.0566 8.11487C35.8125 7.73083 36.4671 7.17377 36.967 6.489C37.5823 7.3389 38.4344 7.98861 39.4169 8.35695C40.3994 8.72529 41.4686 8.79591 42.491 8.56C42.8036 12.134 43.9543 15.584 45.8497 18.6301C47.7451 21.6762 50.3318 24.2326 53.4 26.092H51.1V28.267H55.512L54.946 29.059C52.4383 32.5571 51.0933 36.7549 51.101 41.059L51.099 44.574ZM58.709 44.574H53.271V41.062C53.2625 37.2101 54.4652 33.4529 56.709 30.322L58.177 28.267H58.705L58.709 44.574ZM58.709 26.091H57.897L55.441 24.765C52.304 23.0737 49.6582 20.5993 47.7609 17.5824C45.8636 14.5656 44.7795 11.109 44.614 7.549C45.0105 7.24595 45.3629 6.8892 45.661 6.489C46.1609 7.17377 46.8155 7.73083 47.5714 8.11487C48.3273 8.49891 49.1631 8.69908 50.011 8.69908C50.8589 8.69908 51.6947 8.49891 52.4506 8.11487C53.2065 7.73083 53.8611 7.17377 54.361 6.489C54.862 7.17182 55.5161 7.72757 56.2709 8.11157C57.0258 8.49558 57.8601 8.69712 58.707 8.7L58.709 26.091ZM61.971 3.261C61.971 4.12614 61.6273 4.95584 61.0156 5.56758C60.4038 6.17933 59.5741 6.523 58.709 6.523C57.8439 6.523 57.0142 6.17933 56.4024 5.56758C55.7907 4.95584 55.447 4.12614 55.447 3.261V2.174H61.971V3.261Z" fill="#EE7623"/>
<path d="M39.14 55.4459V52.1839C39.14 51.7555 39.0556 51.3313 38.8917 50.9356C38.7278 50.5398 38.4875 50.1802 38.1846 49.8773C37.8817 49.5744 37.5221 49.3341 37.1263 49.1702C36.7305 49.0062 36.3064 48.9219 35.878 48.9219H29.356C28.9276 48.9219 28.5034 49.0062 28.1077 49.1702C27.7119 49.3341 27.3523 49.5744 27.0494 49.8773C26.4377 50.489 26.094 51.3187 26.094 52.1839V55.4459H28.265V52.1839C28.265 52.0408 28.2932 51.8991 28.3481 51.767C28.403 51.6348 28.4834 51.5148 28.5848 51.4138C28.6861 51.3128 28.8064 51.2329 28.9388 51.1785C29.0711 51.1241 29.2129 51.0963 29.356 51.0969H35.878C36.0208 51.0967 36.1622 51.1248 36.2941 51.1794C36.4261 51.2339 36.5459 51.314 36.6469 51.415C36.7479 51.5159 36.8279 51.6358 36.8825 51.7677C36.9371 51.8997 36.9651 52.0411 36.965 52.1839V55.4459H39.14Z" fill="#EE7623"/>
<path d="M23.9181 55.4459V52.1839C23.9181 51.7555 23.8337 51.3313 23.6698 50.9356C23.5058 50.5398 23.2656 50.1802 22.9627 49.8773C22.6597 49.5744 22.3001 49.3341 21.9044 49.1702C21.5086 49.0062 21.0844 48.9219 20.6561 48.9219H14.1341C13.7057 48.9219 13.2815 49.0062 12.8858 49.1702C12.49 49.3341 12.1304 49.5744 11.8275 49.8773C11.2157 50.489 10.8721 51.3187 10.8721 52.1839V55.4459H13.0431V52.1839C13.0431 52.0408 13.0713 51.8991 13.1262 51.767C13.1811 51.6348 13.2615 51.5148 13.3629 51.4138C13.4642 51.3128 13.5845 51.2329 13.7169 51.1785C13.8492 51.1241 13.991 51.0963 14.1341 51.0969H20.6561C20.9444 51.0969 21.2208 51.2114 21.4247 51.4153C21.6285 51.6191 21.7431 51.8956 21.7431 52.1839V55.4459H23.9181Z" fill="#EE7623"/>
<path d="M54.36 55.4459V52.1839C54.36 51.7555 54.2756 51.3313 54.1117 50.9356C53.9477 50.5398 53.7075 50.1802 53.4045 49.8773C53.1016 49.5744 52.742 49.3341 52.3463 49.1702C51.9505 49.0062 51.5263 48.9219 51.098 48.9219H44.576C44.1476 48.9219 43.7234 49.0062 43.3277 49.1702C42.9319 49.3341 42.5723 49.5744 42.2694 49.8773C41.6576 50.489 41.314 51.3187 41.314 52.1839V55.4459H43.485V52.1839C43.485 52.0408 43.5132 51.8991 43.5681 51.767C43.623 51.6348 43.7034 51.5148 43.8048 51.4138C43.9061 51.3128 44.0264 51.2329 44.1588 51.1785C44.2911 51.1241 44.4329 51.0963 44.576 51.0969H51.098C51.3863 51.0969 51.6627 51.2114 51.8666 51.4153C52.0704 51.6191 52.185 51.8956 52.185 52.1839V55.4459H54.36Z" fill="#EE7623"/>
<path d="M61.969 59.7942C61.969 58.9291 61.6253 58.0994 61.0136 57.4876C60.4018 56.8759 59.5721 56.5322 58.707 56.5322H52.188C51.7594 56.5318 51.3349 56.6159 50.9388 56.7797C50.5427 56.9434 50.1827 57.1836 49.8795 57.4866C49.5763 57.7895 49.3357 58.1493 49.1716 58.5452C49.0075 58.9412 48.923 59.3656 48.923 59.7942V63.0562H46.748V59.7942C46.748 58.9294 46.4046 58.1 45.7933 57.4884C45.182 56.8767 44.3528 56.5328 43.488 56.5322H36.964C36.0989 56.5322 35.2692 56.8759 34.6574 57.4876C34.0457 58.0994 33.702 58.9291 33.702 59.7942V63.0562H31.528V59.7942C31.528 58.9291 31.1843 58.0994 30.5726 57.4876C29.9608 56.8759 29.1311 56.5322 28.266 56.5322H21.742C21.3138 56.5324 20.8897 56.6168 20.4941 56.7808C20.0986 56.9448 19.7391 57.1852 19.4364 57.4881C19.1337 57.791 18.8936 58.1505 18.7298 58.5462C18.5661 58.9419 18.4819 59.366 18.482 59.7942V63.0562H16.308V59.7942C16.308 58.9291 15.9643 58.0994 15.3526 57.4876C14.7408 56.8759 13.9111 56.5322 13.046 56.5322H6.524C5.65886 56.5322 4.82916 56.8759 4.21741 57.4876C3.60567 58.0994 3.262 58.9291 3.262 59.7942V63.0562H0V65.2292H65.23V63.0562H61.969V59.7942ZM51.097 59.7942C51.097 59.6511 51.1252 59.5095 51.1801 59.3773C51.235 59.2452 51.3154 59.1252 51.4168 59.0242C51.5181 58.9232 51.6385 58.8432 51.7708 58.7888C51.9031 58.7344 52.0449 58.7067 52.188 58.7072H58.71C58.8528 58.7071 58.9942 58.7351 59.1261 58.7897C59.2581 58.8443 59.378 58.9243 59.4789 59.0253C59.5799 59.1263 59.6599 59.2462 59.7145 59.3781C59.7691 59.51 59.7971 59.6514 59.797 59.7942V63.0562H51.097V59.7942ZM35.878 59.7942C35.8779 59.6515 35.9059 59.5102 35.9604 59.3783C36.0149 59.2465 36.0949 59.1266 36.1957 59.0257C36.2966 58.9247 36.4163 58.8446 36.5482 58.79C36.68 58.7354 36.8213 58.7072 36.964 58.7072H43.488C43.7761 58.7075 44.0523 58.8221 44.256 59.026C44.4596 59.2298 44.574 59.5061 44.574 59.7942V63.0562H35.874L35.878 59.7942ZM20.657 59.7942C20.657 59.5061 20.7714 59.2298 20.975 59.026C21.1787 58.8221 21.4549 58.7075 21.743 58.7072H28.267C28.4097 58.7072 28.551 58.7354 28.6828 58.79C28.8146 58.8446 28.9344 58.9247 29.0353 59.0257C29.1361 59.1266 29.2161 59.2465 29.2706 59.3783C29.3251 59.5102 29.3531 59.6515 29.353 59.7942V63.0562H20.653L20.657 59.7942ZM5.436 59.7942C5.436 59.6514 5.46415 59.51 5.51884 59.378C5.57353 59.2461 5.65368 59.1262 5.75473 59.0252C5.85577 58.9243 5.97572 58.8443 6.10772 58.7897C6.23971 58.7351 6.38117 58.7071 6.524 58.7072H13.046C13.1888 58.7071 13.3302 58.7351 13.4621 58.7897C13.5941 58.8443 13.714 58.9243 13.8149 59.0253C13.9159 59.1263 13.9959 59.2462 14.0505 59.3781C14.1051 59.51 14.1331 59.6514 14.133 59.7942V63.0562H5.433L5.436 59.7942Z" fill="#EE7623"/>
</g>
<defs>
<clipPath id="clip0_148_102">
<rect width="65.23" height="65.229" fill="white"/>
</clipPath>
</defs>
</svg>
