<svg width="65" height="65" viewBox="0 0 65 65" fill="none" xmlns="http://www.w3.org/2000/svg">
<g clip-path="url(#clip0_148_95)">
<path d="M10.3731 24.884C22.4161 19.674 42.0091 19.674 54.0511 24.884C54.2535 24.9702 54.4711 25.0151 54.6911 25.016C54.9536 25.0161 55.2121 24.9521 55.4442 24.8295C55.6762 24.7069 55.8748 24.5294 56.0227 24.3126C56.1705 24.0957 56.2632 23.846 56.2925 23.5852C56.3219 23.3244 56.2871 23.0603 56.1911 22.816C54.306 17.9909 51.009 13.8467 46.7311 10.9253C42.4532 8.0038 37.3934 6.44092 32.2131 6.44092C27.0328 6.44092 21.973 8.0038 17.6951 10.9253C13.4172 13.8467 10.1202 17.9909 8.2351 22.816C8.11852 23.112 8.0924 23.4359 8.16005 23.7467C8.2277 24.0575 8.38607 24.3413 8.6151 24.562C8.84378 24.7833 9.13296 24.9319 9.44606 24.9888C9.75916 25.0458 10.0821 25.0086 10.3741 24.882M32.2121 9.66302C36.0822 9.64898 39.8899 10.6386 43.2634 12.5354C46.637 14.4321 49.4611 17.1711 51.4601 20.485C45.2204 18.5973 38.7308 17.6654 32.2121 17.721C25.6934 17.6654 19.2038 18.5973 12.9641 20.485C14.9631 17.1711 17.7872 14.4321 21.1608 12.5354C24.5343 10.6386 28.342 9.64898 32.2121 9.66302Z" fill="#EE7623"/>
<path d="M32.2111 1.55289e-08C25.84 -0.000197765 19.612 1.88886 14.3147 5.42828C9.01727 8.96771 4.88842 13.9985 2.45024 19.8845C0.0120699 25.7706 -0.625918 32.2474 0.616958 38.496C1.85983 44.7446 4.92775 50.4843 9.43274 54.9893C13.9377 59.4943 19.6774 62.5622 25.9261 63.8051C32.1747 65.048 38.6515 64.41 44.5375 61.9718C50.4235 59.5336 55.4544 55.4048 58.9938 50.1074C62.5332 44.81 64.4223 38.582 64.4221 32.211C64.4221 23.6681 61.0284 15.4751 54.9877 9.43438C48.9469 3.39365 40.7539 1.55289e-08 32.2111 1.55289e-08ZM32.2111 61.2C26.4771 61.2 20.8719 59.4997 16.1043 56.314C11.3367 53.1283 7.62088 48.6004 5.42668 43.3029C3.23248 38.0054 2.65847 32.1762 3.77726 26.5524C4.89605 20.9286 7.65737 15.7629 11.712 11.7086C15.7667 7.65418 20.9326 4.89321 26.5564 3.77481C32.1803 2.65641 38.0094 3.23082 43.3068 5.42538C48.6042 7.61995 53.1318 11.3361 56.3172 16.1039C59.5025 20.8717 61.2025 26.477 61.2021 32.211C61.2015 39.8995 58.1469 47.273 52.7101 52.7094C47.2733 58.1459 39.8996 61.2 32.2111 61.2Z" fill="#EE7623"/>
<path d="M57.41 32.8341C57.2418 32.6714 57.0407 32.5467 56.8202 32.4684C56.5998 32.3901 56.3651 32.36 56.132 32.3801C43.499 33.5581 36.585 41.4181 35.581 55.7401C35.5653 55.9607 35.5951 56.1823 35.6685 56.3909C35.742 56.5996 35.8575 56.7909 36.008 56.9531C36.1588 57.1145 36.3412 57.2431 36.5439 57.331C36.7465 57.4189 36.9651 57.4642 37.186 57.4641C37.2972 57.4642 37.4082 57.4525 37.517 57.4291C42.977 56.2635 47.9127 53.3608 51.585 49.1554C55.2573 44.9501 57.4686 39.6684 57.888 34.1011C57.9058 33.8678 57.8722 33.6334 57.7896 33.4145C57.707 33.1956 57.5774 32.9975 57.41 32.8341ZM39.01 53.7111C40.313 43.2291 45.384 37.3581 54.443 35.8461C53.763 39.9552 51.9627 43.7972 49.2402 46.9493C46.5177 50.1014 42.9785 52.4415 39.012 53.7121" fill="#EE7623"/>
<path d="M8.29112 32.3789C8.05827 32.362 7.82445 32.3938 7.60457 32.4724C7.3847 32.5509 7.18361 32.6743 7.01412 32.8349C6.8471 32.9986 6.7178 33.1968 6.63525 33.4156C6.55269 33.6345 6.51886 33.8687 6.53612 34.1019C6.95557 39.669 9.16684 44.9506 12.8389 49.1559C16.511 53.3612 21.4463 56.264 26.9061 57.4299C27.0146 57.4534 27.1252 57.4651 27.2361 57.4649C27.4572 57.4651 27.6759 57.4197 27.8787 57.3315C28.0814 57.2434 28.2639 57.1144 28.4146 56.9526C28.5652 56.7909 28.681 56.5998 28.7545 56.3913C28.8281 56.1828 28.8579 55.9614 28.8421 55.7409C27.8381 41.4169 20.9241 33.5589 8.29112 32.3789ZM9.98012 35.8439C19.0401 37.3579 24.1091 43.2269 25.4111 53.7119C21.4445 52.441 17.9052 50.1005 15.1827 46.9481C12.4602 43.7957 10.66 39.9534 9.98012 35.8439Z" fill="#EE7623"/>
<path d="M38.654 32.212C38.654 31.366 38.4874 30.5282 38.1636 29.7465C37.8398 28.9649 37.3652 28.2547 36.7669 27.6565C36.1686 27.0583 35.4583 26.5838 34.6766 26.2601C33.8949 25.9364 33.0571 25.7699 32.211 25.77C30.5025 25.77 28.864 26.4487 27.6559 27.6568C26.4478 28.8649 25.769 30.5035 25.769 32.212C25.7693 33.9205 26.4481 35.5589 27.6562 36.7669C28.8642 37.975 30.5026 38.6538 32.211 38.654C33.9191 38.6522 35.5567 37.9729 36.7645 36.7652C37.9724 35.5575 38.6519 33.9201 38.654 32.212ZM32.211 35.432C31.357 35.432 30.5378 35.0928 29.9338 34.489C29.3298 33.8851 28.9903 33.0661 28.99 32.212C28.99 31.3578 29.3294 30.5385 29.9335 29.9344C30.5375 29.3304 31.3568 28.991 32.211 28.991C32.6345 28.9902 33.054 29.073 33.4455 29.2345C33.837 29.396 34.1928 29.6331 34.4925 29.9323C34.7922 30.2315 35.03 30.5868 35.1923 30.978C35.3545 31.3692 35.438 31.7885 35.438 32.212C35.4367 33.0668 35.0961 33.8861 34.491 34.4899C33.8859 35.0937 33.0658 35.4326 32.211 35.432Z" fill="#EE7623"/>
</g>
<defs>
<clipPath id="clip0_148_95">
<rect width="64.424" height="64.424" fill="white"/>
</clipPath>
</defs>
</svg>
