<svg width="75" height="61" viewBox="0 0 75 61" fill="none" xmlns="http://www.w3.org/2000/svg">
<g clip-path="url(#clip0_148_108)">
<path d="M71.27 4.83301H49.404C49.2454 4.05585 48.9352 3.31754 48.4912 2.66024C48.0473 2.00294 47.4782 1.43952 46.8165 1.00216C46.1548 0.564796 45.4134 0.262049 44.6347 0.111204C43.856 -0.0396398 43.0552 -0.0356267 42.278 0.123014C41.118 0.360343 40.0534 0.9333 39.2164 1.77068C38.3793 2.60807 37.8068 3.67296 37.57 4.83301H3.625C2.66418 4.83381 1.74291 5.21571 1.06332 5.89492C0.383734 6.57414 0.00132385 7.4952 0 8.45601V56.775C0.00105876 57.7361 0.383318 58.6575 1.06291 59.3371C1.7425 60.0167 2.66392 60.399 3.625 60.4H71.27C72.231 60.3987 73.1523 60.0163 73.8318 59.3368C74.5113 58.6573 74.8937 57.736 74.895 56.775V8.45601C74.8934 7.49528 74.5109 6.57437 73.8314 5.89521C73.1519 5.21606 72.2307 4.83407 71.27 4.83301ZM7.248 41.071H10.931C11.2038 44.0559 12.5174 46.8498 14.642 48.964L16.057 50.38C16.2835 50.6064 16.5907 50.7336 16.911 50.7336C17.2313 50.7336 17.5385 50.6064 17.765 50.38L19.185 48.964C21.3098 46.8495 22.6234 44.0552 22.896 41.07H25.371C25.6912 41.0705 25.9982 41.198 26.2246 41.4244C26.451 41.6508 26.5785 41.9578 26.579 42.278V53.152H7.248V41.071ZM13.285 39.864C13.2855 38.903 13.6677 37.9814 14.3474 37.302C15.0272 36.6227 15.9489 36.241 16.91 36.241C17.8712 36.2407 18.7932 36.6223 19.4732 37.3017C20.1532 37.9811 20.5355 38.9028 20.536 39.864C20.5395 41.2377 20.2705 42.5985 19.7448 43.8677C19.219 45.1368 18.4469 46.2891 17.473 47.258L16.911 47.82L16.349 47.258C15.3749 46.2892 14.6026 45.1369 14.0767 43.8678C13.5508 42.5986 13.2817 41.2378 13.285 39.864ZM25.365 38.657H22.827C22.5064 37.0876 21.5756 35.7098 20.2393 34.8265C18.9029 33.9433 17.2705 33.6269 15.701 33.947C14.5406 34.1837 13.4754 34.7565 12.6379 35.5939C11.8005 36.4314 11.2277 37.4966 10.991 38.657H7.245V31.409H25.365C26.3257 31.4074 27.2466 31.0249 27.9258 30.3454C28.605 29.6659 28.9869 28.7448 28.988 27.784V12.081H33.821V27.781C33.8221 28.7418 34.204 29.6629 34.8832 30.3424C35.5624 31.0219 36.4833 31.4044 37.444 31.406H45.932C45.1331 32.4464 44.6982 33.7203 44.694 35.032C44.6957 36.2586 44.8711 37.4787 45.215 38.656H37.446C36.4854 38.6568 35.5643 39.0388 34.885 39.718C34.2058 40.3973 33.8238 41.3184 33.823 42.279V53.152H28.99V42.279C28.9892 41.3184 28.6072 40.3973 27.928 39.718C27.2487 39.0388 26.3276 38.6568 25.367 38.656M7.247 28.992V12.081H26.575V27.781C26.5747 28.1013 26.4474 28.4084 26.2209 28.6349C25.9944 28.8614 25.6873 28.9887 25.367 28.989L7.247 28.992ZM50.735 31.409C51.6956 31.4098 52.6167 31.7918 53.296 32.471C53.9752 33.1503 54.3572 34.0714 54.358 35.032C54.3617 36.4057 54.093 37.7665 53.5674 39.0356C53.0418 40.3048 52.2698 41.4571 51.296 42.426L50.734 42.988L50.172 42.426C49.1978 41.4574 48.4255 40.3051 47.8997 39.0359C47.3739 37.7667 47.1052 36.4058 47.109 35.032C47.1103 34.071 47.4929 33.1498 48.1727 32.4706C48.8525 31.7913 49.774 31.4095 50.735 31.409ZM36.235 42.28C36.2355 41.9598 36.363 41.6528 36.5894 41.4264C36.8158 41.2 37.1228 41.0725 37.443 41.072H46.194C46.7952 42.1995 47.5605 43.2315 48.465 44.134L49.885 45.549C50.1115 45.7754 50.4187 45.9026 50.739 45.9026C51.0593 45.9026 51.3665 45.7754 51.593 45.549L53.005 44.134C53.9088 43.2308 54.6738 42.1985 55.275 41.071H67.647V53.151H36.238L36.235 42.28ZM67.647 28.992H61.606C61.2857 28.9917 60.9786 28.8644 60.7521 28.6379C60.5256 28.4114 60.3983 28.1043 60.398 27.784V12.081H67.647V28.992ZM61.606 31.408H67.647V38.656H56.254C56.5987 37.4785 56.7741 36.2579 56.775 35.031C56.7711 33.7905 56.385 32.5814 55.6693 31.5683C54.9535 30.5551 53.9429 29.7872 52.775 29.369C53.0222 28.877 53.1522 28.3346 53.155 27.784V12.081H57.985V27.781C57.9861 28.7418 58.368 29.6629 59.0472 30.3424C59.7264 31.0219 60.6473 31.4044 61.608 31.406M50.735 27.784C50.7347 28.1043 50.6074 28.4114 50.3809 28.6379C50.1544 28.8644 49.8473 28.9917 49.527 28.992H37.446C37.1257 28.9917 36.8186 28.8644 36.5921 28.6379C36.3656 28.4114 36.2383 28.1043 36.238 27.784V12.081H38.946C39.5466 13.2089 40.312 14.2409 41.217 15.143L42.632 16.559C42.8585 16.7854 43.1657 16.9126 43.486 16.9126C43.8063 16.9126 44.1135 16.7854 44.34 16.559L45.756 15.142C46.6609 14.2402 47.4263 13.2085 48.027 12.081H50.735V27.784ZM43.485 2.41601C44.4461 2.41707 45.3675 2.79933 46.0471 3.47892C46.7267 4.15851 47.1089 5.07993 47.11 6.04101C47.1137 7.41469 46.845 8.77547 46.3194 10.0446C45.7938 11.3138 45.0218 12.4661 44.048 13.435L43.486 13.997L42.924 13.435C41.9502 12.4662 41.1782 11.3139 40.6528 10.0447C40.1273 8.77548 39.8589 7.41466 39.863 6.04101C39.8641 5.08045 40.2459 4.15948 40.9248 3.47998C41.6038 2.80048 42.5244 2.41787 43.485 2.41601ZM72.478 56.775C72.478 57.0954 72.3507 57.4027 72.1242 57.6292C71.8976 57.8557 71.5904 57.983 71.27 57.983H3.625C3.30462 57.983 2.99736 57.8557 2.77082 57.6292C2.54427 57.4027 2.417 57.0954 2.417 56.775V8.45601C2.41726 8.13581 2.54466 7.8288 2.77117 7.60248C2.99769 7.37615 3.30479 7.24901 3.625 7.24901H37.506C37.5821 8.0669 37.7365 8.8756 37.967 9.66401H6.039C5.71862 9.66401 5.41136 9.79129 5.18482 10.0178C4.95827 10.2444 4.831 10.5516 4.831 10.872V54.364C4.83311 54.683 4.96132 54.9882 5.18763 55.213C5.41395 55.4378 5.72 55.564 6.039 55.564H68.853C69.1722 55.5643 69.4785 55.4382 69.705 55.2134C69.9315 54.9885 70.0599 54.6832 70.062 54.364V10.872C70.062 10.7133 70.0307 10.5561 69.97 10.4095C69.9092 10.2629 69.8201 10.1297 69.7078 10.0175C69.5956 9.90529 69.4623 9.81633 69.3156 9.75568C69.1689 9.69503 69.0117 9.66388 68.853 9.66401H49.006C49.2365 8.8756 49.3909 8.0669 49.467 7.24901H71.267C71.5872 7.24901 71.8943 7.37615 72.1208 7.60248C72.3473 7.8288 72.4747 8.13581 72.475 8.45601L72.478 56.775Z" fill="#EE7623"/>
<path d="M15.7029 39.8628H18.1189V42.2788H15.7029V39.8628Z" fill="#EE7623"/>
<path d="M49.5259 35.0322H51.9419V37.4482H49.5259V35.0322Z" fill="#EE7623"/>
<path d="M42.2781 6.04102H44.6941V8.45602H42.2781V6.04102Z" fill="#EE7623"/>
</g>
<defs>
<clipPath id="clip0_148_108">
<rect width="74.894" height="60.399" fill="white"/>
</clipPath>
</defs>
</svg>
