<svg width="58" height="58" viewBox="0 0 58 58" fill="none" xmlns="http://www.w3.org/2000/svg">
<g clip-path="url(#clip0_148_76)">
<path d="M57.358 12.025V2.77602C57.3575 2.03994 57.0648 1.33417 56.5443 0.81368C56.0239 0.293194 55.3181 0.000553109 54.582 2.3365e-05H52.732C51.9963 0.00108255 51.291 0.293957 50.771 0.814386C50.2509 1.33481 49.9585 2.04029 49.958 2.77602V4.71902C48.9741 3.26563 47.6491 2.07553 46.0987 1.25286C44.5484 0.430185 42.8201 2.58644e-05 41.065 2.3365e-05H37.005C35.2879 0.00187577 33.6417 0.684729 32.4275 1.89879C31.2132 3.11284 30.5301 4.75896 30.528 6.47602C30.5291 7.21185 30.8219 7.91722 31.3423 8.43743C31.8627 8.95764 32.5682 9.25023 33.304 9.25102H34.804C34.4299 9.73567 34.2273 10.3308 34.228 10.943V14.803C34.2304 16.029 34.7188 17.204 35.5862 18.0704C36.4535 18.9368 37.629 19.424 38.855 19.425V21.206C38.6564 21.392 38.4694 21.5901 38.295 21.799L35.647 24.98H28.109C27.3809 24.3787 26.4653 24.0511 25.521 24.054H24.978V20.354C24.978 19.3727 24.5882 18.4316 23.8943 17.7377C23.2004 17.0438 22.2593 16.654 21.278 16.654C20.2967 16.654 19.3556 17.0438 18.6617 17.7377C17.9678 18.4316 17.578 19.3727 17.578 20.354V21.278H15.756C14.748 21.2808 13.7683 21.6115 12.9648 22.2202C12.1613 22.8289 11.5777 23.6824 11.302 24.652L4.702 48.108H4.623C3.62142 48.1066 2.64674 48.432 1.847 49.035V16.653H3.697V19.425C3.69859 20.6514 4.18648 21.8271 5.05368 22.6943C5.92088 23.5615 7.0966 24.0494 8.323 24.051C9.05873 24.05 9.764 23.7571 10.2841 23.2367C10.8041 22.7162 11.0965 22.0108 11.097 21.275V2.77502C11.0965 2.03929 10.8041 1.33381 10.2841 0.813386C9.764 0.292957 9.05873 8.26175e-05 8.323 -0.000976562C7.09712 0.00140432 5.92217 0.489645 5.05562 1.35676C4.18907 2.22387 3.70159 3.39914 3.7 4.62502V7.40102C3.21411 7.40102 2.73298 7.49673 2.28407 7.68267C1.83517 7.86861 1.42728 8.14115 1.08371 8.48473C0.740129 8.8283 0.467589 9.23619 0.281647 9.68509C0.0957043 10.134 0 10.6151 0 11.101V52.734C0.00105921 53.9603 0.488678 55.1361 1.3558 56.0032C2.22293 56.8703 3.3987 57.358 4.625 57.359H57.358V50.883C57.3572 50.0294 57.1204 49.1926 56.674 48.465C56.2275 47.7375 55.5887 47.1474 54.828 46.76C55.6147 46.1563 56.252 45.3797 56.6907 44.4903C57.1294 43.601 57.3577 42.6227 57.358 41.631V16.653C57.3586 15.7224 57.007 14.8261 56.374 14.144C56.6824 13.8838 56.9303 13.5593 57.1002 13.1933C57.2702 12.8273 57.3582 12.4286 57.358 12.025ZM5.55 4.62502C5.55106 3.88937 5.84376 3.18416 6.36395 2.66397C6.88413 2.14379 7.58935 1.85108 8.325 1.85002C8.57059 1.85002 8.80612 1.94758 8.97978 2.12124C9.15344 2.2949 9.251 2.53043 9.251 2.77602V21.276C9.251 21.5216 9.15344 21.7571 8.97978 21.9308C8.80612 22.1045 8.57059 22.202 8.325 22.202C7.58892 22.2012 6.88325 21.9083 6.36295 21.3877C5.84265 20.867 5.55027 20.1611 5.55 19.425V4.62502ZM51.807 2.77502C51.807 2.52978 51.9043 2.29455 52.0775 2.12095C52.2507 1.94735 52.4858 1.84955 52.731 1.84902H54.581C54.8266 1.84902 55.0621 1.94658 55.2358 2.12024C55.4094 2.2939 55.507 2.52943 55.507 2.77502V12.025C55.5067 12.2705 55.4091 12.5059 55.2355 12.6795C55.0619 12.8531 54.8265 12.9508 54.581 12.951H52.731C52.4858 12.9502 52.251 12.8524 52.0778 12.6788C51.9046 12.5053 51.8073 12.2702 51.807 12.025V2.77502ZM32.378 6.47502C32.3799 5.24862 32.868 4.07301 33.7354 3.20599C34.6028 2.33898 35.7786 1.85135 37.005 1.85002H41.065C43.4216 1.85267 45.681 2.78987 47.3476 4.45606C49.0141 6.12225 49.9518 8.38141 49.955 10.738V12.025C49.9532 12.4639 50.056 12.8968 50.255 13.288C49.6958 13.5459 49.2096 13.9391 48.8403 14.4319C48.4711 14.9248 48.2304 15.5019 48.14 16.111C47.1762 17.3854 45.8856 18.3754 44.405 18.976V16.394L45.079 16.17C45.7477 15.9475 46.3197 15.502 46.6993 14.9082C47.0789 14.3144 47.2431 13.6083 47.1644 12.9079C47.0857 12.2076 46.7689 11.5555 46.267 11.0607C45.765 10.566 45.1084 10.2586 44.407 10.19V10.177C44.4059 9.44111 44.1131 8.73564 43.5928 8.21526C43.0724 7.69489 42.3669 7.40208 41.631 7.40102H37.005C36.7601 7.4005 36.5254 7.30298 36.3522 7.12981C36.179 6.95664 36.0815 6.72192 36.081 6.47702C36.0807 6.23161 36.1779 5.99612 36.3512 5.8223C36.5244 5.64848 36.7596 5.55055 37.005 5.55002H39.781V3.70002H37.005C36.2692 3.70108 35.5638 3.99392 35.0436 4.51432C34.5234 5.03473 34.2308 5.7402 34.23 6.47602C34.2296 6.79078 34.2831 7.10328 34.388 7.40002H33.304C33.0588 7.39976 32.8238 7.30239 32.6502 7.12922C32.4767 6.95605 32.3788 6.72019 32.378 6.47502ZM20.571 45.331C20.3856 45.1237 20.1698 44.9457 19.931 44.803L15.565 42.181L15.724 41.861C15.8964 41.513 16.1629 41.2203 16.4933 41.0162C16.8236 40.812 17.2046 40.7046 17.593 40.706C18.0051 40.7057 18.4081 40.8275 18.751 41.056L22.351 43.456C22.5246 43.572 22.6553 43.7417 22.7231 43.9392C22.7908 44.1367 22.7918 44.3509 22.726 44.549C22.6501 44.7771 22.5042 44.9755 22.309 45.1159C22.1139 45.2563 21.8794 45.3316 21.639 45.331H20.571ZM11.213 50.396L12.137 46.569C12.236 46.6486 12.3402 46.7215 12.449 46.787L14.326 47.913L12.853 50.861C12.3023 50.7204 11.7557 50.5654 11.213 50.396ZM13.401 45.196C13.1906 45.0696 13.0391 44.8648 12.9796 44.6266C12.9202 44.3885 12.9577 44.1365 13.084 43.926C13.1663 43.7891 13.2825 43.6758 13.4214 43.5969C13.5603 43.5181 13.7173 43.4764 13.877 43.476C14.0444 43.4759 14.2087 43.5215 14.352 43.608L18.978 46.382C19.1882 46.5087 19.3395 46.7135 19.399 46.9515C19.4584 47.1896 19.421 47.4415 19.295 47.652C19.2127 47.7889 19.0965 47.9023 18.9576 47.9811C18.8187 48.06 18.6617 48.1016 18.502 48.102C18.3348 48.1018 18.1707 48.0566 18.027 47.971L13.401 45.196ZM23.381 41.917H23.375L20.511 40.007L24.55 35.969C24.807 35.7104 25.1128 35.5054 25.4495 35.3656C25.7863 35.2259 26.1474 35.1543 26.512 35.155H39.555C39.7983 35.1543 40.0393 35.202 40.264 35.2952C40.4887 35.3884 40.6926 35.5253 40.864 35.698L41.902 36.735L43.21 35.425L42.324 34.539L48.108 33.489V34.23C48.1064 35.4565 47.6184 36.6323 46.7509 37.4993C45.8835 38.3664 44.7075 38.854 43.481 38.855H26.445L23.381 41.917ZM48.107 21.45C47.5833 20.9068 46.9709 20.4567 46.296 20.119C46.9419 19.7601 47.5488 19.3351 48.107 18.851V21.45ZM38.855 17.577C38.1194 17.5765 37.414 17.2841 36.8937 16.764C36.3734 16.2439 36.0808 15.5387 36.08 14.803V10.943C36.0796 10.8213 36.1033 10.7008 36.1498 10.5883C36.1963 10.4759 36.2647 10.3738 36.351 10.288L37.388 9.25102H41.631C41.8762 9.25182 42.111 9.34969 42.2842 9.52324C42.4574 9.69678 42.5547 9.93186 42.555 10.177V12.025H44.105C44.3967 12.0241 44.6792 12.1271 44.9018 12.3157C45.1243 12.5044 45.2723 12.7661 45.3192 13.0541C45.366 13.342 45.3087 13.6372 45.1574 13.8866C45.0062 14.1361 44.771 14.3234 44.494 14.415L42.555 15.06V19.478C41.9168 19.5567 41.2936 19.7281 40.705 19.987V17.577H38.855ZM37.331 25.847L39.716 22.986C40.3403 22.2365 41.1804 21.6976 42.1219 21.4427C43.0634 21.1877 44.0607 21.2292 44.9778 21.5613C45.895 21.8935 46.6874 22.5003 47.2474 23.299C47.8073 24.0977 48.1075 25.0496 48.107 26.025V31.609L38.855 33.29V31.402C40.5245 31.1939 42.0464 30.3407 43.095 29.025L45.128 26.482L43.683 25.325L41.65 27.869C41.2178 28.4119 40.6684 28.85 40.0429 29.1505C39.4173 29.451 38.7319 29.606 38.038 29.604H28.678V26.825H35.697L37.276 28.409L38.584 27.101L37.331 25.847ZM26.831 26.33V29.604H24.822C24.3737 29.6035 23.9439 29.4252 23.6269 29.1082C23.3099 28.7911 23.1315 28.3613 23.131 27.913V27.595C23.1315 27.1467 23.3099 26.7169 23.6269 26.3999C23.9439 26.0829 24.3737 25.9046 24.822 25.904H25.522C25.9922 25.9031 26.4515 26.0524 26.831 26.33ZM19.43 20.354C19.4305 19.8635 19.6256 19.3933 19.9724 19.0465C20.3193 18.6996 20.7895 18.5046 21.28 18.504C21.7705 18.5046 22.2407 18.6996 22.5876 19.0465C22.9344 19.3933 23.1295 19.8635 23.13 20.354V24.485C22.5707 24.7894 22.1037 25.2388 21.7782 25.7861C21.4526 26.3334 21.2805 26.9582 21.28 27.595V27.914C21.28 28.4687 21.4106 29.0156 21.6611 29.5106C21.9116 30.0055 22.275 30.4345 22.722 30.763C22.5483 30.9785 22.3288 31.1524 22.0793 31.2721C21.8298 31.3919 21.5567 31.4543 21.28 31.455C20.7895 31.4545 20.3193 31.2594 19.9724 30.9126C19.6256 30.5658 19.4305 30.0955 19.43 29.605V20.354ZM21.28 33.305C21.9318 33.3026 22.5715 33.1289 23.135 32.8014C23.6986 32.4739 24.1662 32.0041 24.491 31.439C24.6 31.448 24.71 31.455 24.821 31.455H37.005V33.305H26.511C25.9033 33.3036 25.3013 33.4226 24.7399 33.6552C24.1785 33.8878 23.6687 34.2293 23.24 34.66L18.84 39.06C18.4376 38.924 18.0158 38.8541 17.591 38.853C16.8582 38.8503 16.1394 39.0531 15.5161 39.4385C14.8928 39.8238 14.3901 40.3763 14.065 41.033L13.765 41.633C13.6133 41.6394 13.4625 41.6584 13.314 41.69L16.456 28.677H17.577V29.603C17.577 30.5843 17.9668 31.5254 18.6607 32.2193C19.3546 32.9132 20.2957 33.303 21.277 33.303M13.083 25.152C13.2477 24.5696 13.5978 24.0567 14.0801 23.6909C14.5624 23.3252 15.1507 23.1265 15.756 23.125H17.578V26.825H16.457C16.0415 26.8239 15.6378 26.963 15.3111 27.2198C14.9845 27.4765 14.754 27.836 14.657 28.24L9.457 49.781C8.534 49.428 7.627 49.032 6.746 48.59C6.672 48.554 6.59633 48.5207 6.519 48.49L13.083 25.152ZM3.7 9.25202V14.803H1.85V11.103C1.8508 10.6126 2.04596 10.1425 2.39273 9.79575C2.7395 9.44898 3.20959 9.25282 3.7 9.25202ZM27.754 55.508H4.625C3.88954 55.5072 3.18442 55.2147 2.66436 54.6947C2.14431 54.1746 1.8518 53.4695 1.851 52.734C1.85179 51.9984 2.14424 51.2931 2.66424 50.7727C3.18424 50.2523 3.88935 49.9593 4.625 49.958H4.677C5.10779 49.9582 5.53264 50.0585 5.918 50.251C10.4017 52.4859 15.3421 53.6521 20.352 53.658H27.752L27.754 55.508ZM27.754 50.883V51.807H20.354C18.4624 51.8047 16.5752 51.6256 14.717 51.272L15.917 48.872L17.075 49.566C17.5058 49.8242 17.9987 49.9604 18.501 49.96C18.98 49.9589 19.4506 49.8343 19.8675 49.5984C20.2844 49.3624 20.6334 49.0231 20.881 48.613C21.1403 48.1816 21.2765 47.6874 21.275 47.184H21.635C22.2636 47.1844 22.8765 46.9869 23.3866 46.6194C23.8967 46.252 24.2782 45.7334 24.477 45.137C24.6605 44.5826 24.6661 43.9847 24.493 43.427L27.211 40.709H27.754V43.483C27.7538 44.2014 27.9212 44.9099 28.2429 45.5522C28.5646 46.1945 29.0316 46.7529 29.607 47.183C29.032 47.6135 28.5652 48.1719 28.2435 48.8142C27.9219 49.4564 27.7543 50.1647 27.754 50.883ZM51.808 55.508H33.308V51.808H51.808V55.508ZM52.732 48.108C53.468 48.1088 54.1736 48.4015 54.6941 48.922C55.2145 49.4424 55.5072 50.148 55.508 50.884V55.509H53.658V51.809C53.6572 51.3186 53.462 50.8485 53.1153 50.5018C52.7685 50.155 52.2984 49.9598 51.808 49.959H33.308C32.8175 49.9596 32.3473 50.1546 32.0004 50.5015C31.6536 50.8483 31.4585 51.3185 31.458 51.809V55.509H29.608V50.883C29.6085 50.1473 29.9009 49.4418 30.4209 48.9214C30.941 48.401 31.6463 48.1081 32.382 48.107H52.732V48.108ZM55.508 41.632C55.5064 42.8584 55.0185 44.0341 54.1513 44.9013C53.2841 45.7685 52.1084 46.2564 50.882 46.258H32.382C31.6463 46.2567 30.9412 45.9637 30.4212 45.4434C29.9012 44.923 29.6088 44.2177 29.608 43.482V40.707H43.481C45.1979 40.7049 46.8439 40.0219 48.0579 38.8079C49.2719 37.5939 49.9549 35.9479 49.957 34.231V16.653C49.9575 16.1625 50.1526 15.6923 50.4994 15.3455C50.8463 14.9986 51.3165 14.8036 51.807 14.803H53.657C54.1475 14.8036 54.6177 14.9986 54.9646 15.3455C55.3114 15.6923 55.5065 16.1625 55.507 16.653L55.508 41.632Z" fill="#EE7623"/>
</g>
<defs>
<clipPath id="clip0_148_76">
<rect width="57.358" height="57.358" fill="white"/>
</clipPath>
</defs>
</svg>
