<svg width="63" height="63" viewBox="0 0 63 63" fill="none" xmlns="http://www.w3.org/2000/svg">
<g clip-path="url(#clip0_148_63)">
<path d="M46.888 23.0801C47.3687 23.0799 47.8386 23.2223 48.2384 23.4892C48.6382 23.7561 48.9498 24.1356 49.1338 24.5797C49.3179 25.0238 49.3661 25.5124 49.2723 25.9839C49.1786 26.4554 48.9472 26.8884 48.6073 27.2283C48.2674 27.5682 47.8343 27.7997 47.3628 27.8934C46.8913 27.9872 46.4027 27.939 45.9586 27.7549C45.5145 27.5709 45.135 27.2593 44.8681 26.8595C44.6012 26.4597 44.4588 25.9898 44.459 25.5091C44.459 24.8649 44.7149 24.247 45.1704 23.7915C45.6259 23.336 46.2438 23.0801 46.888 23.0801Z" fill="#EE7623"/>
<path d="M52.476 4.86H49.319V2.431C49.319 1.78626 49.0629 1.16793 48.607 0.712027C48.1511 0.256126 47.5327 3.29112e-06 46.888 3.29112e-06C46.5689 0.000134586 46.2529 0.0631185 45.9582 0.185359C45.6634 0.307599 45.3956 0.486702 45.17 0.712441C44.9445 0.93818 44.7656 1.20614 44.6436 1.50101C44.5216 1.79588 44.4589 2.11189 44.459 2.431V4.86H33.405V2.431C33.405 2.11142 33.342 1.79498 33.2196 1.49978C33.0972 1.20457 32.9177 0.936403 32.6916 0.710611C32.4654 0.484819 32.1969 0.305837 31.9015 0.183903C31.6061 0.0619692 31.2896 -0.000522551 30.97 3.29112e-06C30.3264 0.0015924 29.7097 0.258448 29.2553 0.714206C28.8008 1.16996 28.5457 1.78739 28.546 2.431V4.86H17.614V2.431C17.614 1.78626 17.3579 1.16793 16.902 0.712027C16.4461 0.256126 15.8277 3.29112e-06 15.183 3.29112e-06C14.8639 0.000134586 14.5479 0.0631185 14.2532 0.185359C13.9584 0.307599 13.6906 0.486702 13.465 0.712441C13.2395 0.93818 13.0606 1.20614 12.9386 1.50101C12.8166 1.79588 12.7539 2.11189 12.754 2.431V4.86H9.718C7.14092 4.86265 4.67019 5.88777 2.8482 7.71032C1.02621 9.53288 0.00185304 12.0039 0 14.581V52.481C0.00264724 55.0576 1.02736 57.5278 2.84926 59.3497C4.67117 61.1717 7.14144 62.1964 9.718 62.199H28.303C28.9472 62.199 29.565 61.9431 30.0206 61.4876C30.4761 61.032 30.732 60.4142 30.732 59.77C30.7323 59.4509 30.6696 59.1348 30.5477 58.8399C30.4257 58.5449 30.2469 58.2769 30.0213 58.0512C29.7957 57.8254 29.5278 57.6463 29.233 57.5241C28.9382 57.4019 28.6222 57.339 28.303 57.339H9.718C8.4298 57.3377 7.19471 56.8255 6.28363 55.9148C5.37255 55.0041 4.85985 53.7692 4.858 52.481V14.581C4.85932 13.2925 5.37178 12.0571 6.28292 11.1459C7.19406 10.2348 8.42945 9.72233 9.718 9.721H12.754V12.148C12.7535 12.4673 12.8159 12.7836 12.9377 13.0788C13.0596 13.3739 13.2384 13.6422 13.464 13.8682C13.6896 14.0941 13.9576 14.2734 14.2525 14.3957C14.5475 14.518 14.8637 14.581 15.183 14.581C15.5021 14.5813 15.8182 14.5186 16.1132 14.3967C16.4081 14.2747 16.6761 14.0959 16.9019 13.8703C17.1276 13.6447 17.3067 13.3768 17.4289 13.082C17.5511 12.7872 17.614 12.4712 17.614 12.152V9.718H28.546V12.148C28.5449 12.792 28.7997 13.4101 29.2543 13.8664C29.7088 14.3226 30.326 14.5797 30.97 14.581C31.2898 14.5818 31.6067 14.5194 31.9023 14.3975C32.198 14.2755 32.4666 14.0963 32.6929 13.8703C32.9191 13.6442 33.0985 13.3757 33.2207 13.0802C33.3429 12.7846 33.4055 12.4678 33.405 12.148V9.718H44.459V12.148C44.459 12.7925 44.715 13.4106 45.1707 13.8663C45.6264 14.322 46.2445 14.578 46.889 14.578C47.5335 14.578 48.1516 14.322 48.6073 13.8663C49.063 13.4106 49.319 12.7925 49.319 12.148V9.718H52.477C53.7655 9.71933 55.0009 10.2318 55.9121 11.1429C56.8232 12.0541 57.3357 13.2895 57.337 14.578V28.426C57.337 29.0702 57.5929 29.688 58.0484 30.1436C58.504 30.5991 59.1218 30.855 59.766 30.855C60.4102 30.855 61.028 30.5991 61.4836 30.1436C61.9391 29.688 62.195 29.0702 62.195 28.426V14.581C62.1921 12.0045 61.1673 9.5344 59.3455 7.71255C57.5236 5.89071 55.0535 4.86591 52.477 4.863" fill="#EE7623"/>
<path d="M47.4959 32.7988C44.5885 32.7988 41.7464 33.661 39.329 35.2762C36.9116 36.8915 35.0275 39.1873 33.9149 41.8734C32.8023 44.5595 32.5112 47.5151 33.0784 50.3667C33.6456 53.2182 35.0456 55.8375 37.1014 57.8933C39.1573 59.9491 41.7766 61.3492 44.6281 61.9164C47.4796 62.4836 50.4353 62.1925 53.1214 61.0799C55.8074 59.9672 58.1033 58.0831 59.7185 55.6657C61.3338 53.2483 62.1959 50.4062 62.1959 47.4988C62.1919 43.6014 60.6419 39.8647 57.886 37.1087C55.1301 34.3528 51.3934 32.8028 47.4959 32.7988ZM47.4959 57.3368C45.5499 57.3368 43.6476 56.7598 42.0295 55.6786C40.4115 54.5974 39.1504 53.0607 38.4058 51.2628C37.6611 49.4649 37.4663 47.4866 37.846 45.578C38.2258 43.6694 39.1629 41.9162 40.539 40.5403C41.9151 39.1643 43.6684 38.2273 45.577 37.8478C47.4857 37.4682 49.464 37.6632 51.2618 38.4081C53.0596 39.1529 54.5962 40.4142 55.6772 42.0323C56.7582 43.6504 57.3351 45.5528 57.3349 47.4988C57.3317 50.1072 56.2941 52.6079 54.4496 54.4522C52.605 56.2965 50.1043 57.3339 47.4959 57.3368Z" fill="#EE7623"/>
<path d="M51.0179 45.0669H49.9249V42.5169C49.9251 42.1978 49.8623 41.8818 49.7404 41.5869C49.6184 41.2921 49.4395 41.0241 49.2139 40.7984C48.9884 40.5726 48.7206 40.3935 48.4258 40.2713C48.131 40.1491 47.8151 40.0861 47.4959 40.0859C46.8512 40.0859 46.2329 40.3421 45.777 40.798C45.3211 41.2539 45.0649 41.8722 45.0649 42.5169V47.4969C45.0652 48.1415 45.3214 48.7596 45.7773 49.2153C46.2332 49.671 46.8514 49.9269 47.4959 49.9269H51.0179C51.6624 49.9269 52.2805 49.6709 52.7362 49.2152C53.1919 48.7595 53.4479 48.1414 53.4479 47.4969C53.4479 46.8525 53.1919 46.2344 52.7362 45.7787C52.2805 45.323 51.6624 45.0669 51.0179 45.0669Z" fill="#EE7623"/>
<path d="M36.3201 23.0801C36.8008 23.0799 37.2708 23.2223 37.6705 23.4892C38.0703 23.7561 38.3819 24.1356 38.5659 24.5797C38.75 25.0238 38.7982 25.5124 38.7045 25.9839C38.6107 26.4554 38.3793 26.8884 38.0394 27.2283C37.6995 27.5682 37.2664 27.7997 36.7949 27.8934C36.3235 27.9872 35.8348 27.939 35.3907 27.7549C34.9467 27.5709 34.5672 27.2593 34.3002 26.8595C34.0333 26.4597 33.8909 25.9898 33.8911 25.5091C33.8911 24.8649 34.147 24.247 34.6026 23.7915C35.0581 23.336 35.6759 23.0801 36.3201 23.0801Z" fill="#EE7623"/>
<path d="M25.752 33.6489C26.2324 33.6489 26.702 33.7914 27.1015 34.0583C27.5009 34.3252 27.8123 34.7045 27.9961 35.1484C28.1799 35.5922 28.228 36.0806 28.1343 36.5518C28.0406 37.023 27.8093 37.4558 27.4696 37.7955C27.1299 38.1352 26.6971 38.3665 26.2259 38.4603C25.7547 38.554 25.2663 38.5059 24.8225 38.322C24.3786 38.1382 23.9993 37.8269 23.7324 37.4274C23.4655 37.028 23.323 36.5583 23.323 36.0779C23.323 35.4337 23.5789 34.8159 24.0344 34.3604C24.49 33.9048 25.1078 33.6489 25.752 33.6489Z" fill="#EE7623"/>
<path d="M15.1839 23.0801C15.6646 23.0799 16.1345 23.2223 16.5343 23.4892C16.9341 23.7561 17.2457 24.1356 17.4297 24.5797C17.6138 25.0238 17.662 25.5124 17.5682 25.9839C17.4745 26.4554 17.2431 26.8884 16.9032 27.2283C16.5633 27.5682 16.1302 27.7997 15.6587 27.8934C15.1872 27.9872 14.6986 27.939 14.2545 27.7549C13.8104 27.5709 13.4309 27.2593 13.164 26.8595C12.8971 26.4597 12.7547 25.9898 12.7549 25.5091C12.7549 24.8649 13.0108 24.247 13.4663 23.7915C13.9218 23.336 14.5397 23.0801 15.1839 23.0801Z" fill="#EE7623"/>
<path d="M15.1839 33.6489C15.6643 33.6489 16.1339 33.7914 16.5334 34.0583C16.9328 34.3252 17.2441 34.7045 17.428 35.1484C17.6118 35.5922 17.6599 36.0806 17.5662 36.5518C17.4725 37.023 17.2411 37.4558 16.9014 37.7955C16.5617 38.1352 16.1289 38.3665 15.6578 38.4603C15.1866 38.554 14.6982 38.5059 14.2543 38.322C13.8105 38.1382 13.4311 37.8269 13.1642 37.4274C12.8973 37.028 12.7549 36.5583 12.7549 36.0779C12.7549 35.4337 13.0108 34.8159 13.4663 34.3604C13.9218 33.9048 14.5397 33.6489 15.1839 33.6489Z" fill="#EE7623"/>
<path d="M15.1839 44.2168C15.6646 44.2166 16.1345 44.359 16.5343 44.6259C16.9341 44.8928 17.2457 45.2723 17.4297 45.7164C17.6138 46.1605 17.662 46.6492 17.5682 47.1206C17.4745 47.5921 17.2431 48.0252 16.9032 48.3651C16.5633 48.705 16.1302 48.9364 15.6587 49.0302C15.1872 49.1239 14.6986 49.0757 14.2545 48.8916C13.8104 48.7076 13.4309 48.396 13.164 47.9962C12.8971 47.5964 12.7547 47.1265 12.7549 46.6458C12.7549 46.0016 13.0108 45.3838 13.4663 44.9282C13.9218 44.4727 14.5397 44.2168 15.1839 44.2168Z" fill="#EE7623"/>
<path d="M25.752 44.2168C26.2327 44.2166 26.7026 44.359 27.1024 44.6259C27.5022 44.8928 27.8138 45.2723 27.9978 45.7164C28.1819 46.1605 28.2301 46.6492 28.1364 47.1206C28.0426 47.5921 27.8112 48.0252 27.4713 48.3651C27.1314 48.705 26.6983 48.9364 26.2268 49.0302C25.7554 49.1239 25.2667 49.0757 24.8226 48.8916C24.3786 48.7076 23.999 48.396 23.7321 47.9962C23.4652 47.5964 23.3228 47.1265 23.323 46.6458C23.323 46.0016 23.5789 45.3838 24.0344 44.9282C24.49 44.4727 25.1078 44.2168 25.752 44.2168Z" fill="#EE7623"/>
<path d="M25.752 23.0801C26.2327 23.0799 26.7026 23.2223 27.1024 23.4892C27.5022 23.7561 27.8138 24.1356 27.9978 24.5797C28.1819 25.0238 28.2301 25.5124 28.1364 25.9839C28.0426 26.4554 27.8112 26.8884 27.4713 27.2283C27.1314 27.5682 26.6983 27.7997 26.2268 27.8934C25.7554 27.9872 25.2667 27.939 24.8226 27.7549C24.3786 27.5709 23.999 27.2593 23.7321 26.8595C23.4652 26.4597 23.3228 25.9898 23.323 25.5091C23.323 24.8649 23.5789 24.247 24.0344 23.7915C24.49 23.336 25.1078 23.0801 25.752 23.0801Z" fill="#EE7623"/>
</g>
<defs>
<clipPath id="clip0_148_63">
<rect width="62.194" height="62.196" fill="white"/>
</clipPath>
</defs>
</svg>
