<svg width="66" height="66" viewBox="0 0 66 66" fill="none" xmlns="http://www.w3.org/2000/svg">
<g clip-path="url(#clip0_148_86)">
<path d="M0 12.23V2.547C0 1.87149 0.268344 1.22365 0.745999 0.745999C1.22365 0.268344 1.87149 0 2.547 0H12.23C12.9057 -2.07988e-07 13.5537 0.26828 14.0317 0.745878C14.5097 1.22348 14.7785 1.87131 14.779 2.547C14.779 3.22304 14.5104 3.87139 14.0324 4.34942C13.5544 4.82745 12.906 5.096 12.23 5.096H5.1V12.23C5.1 12.9063 4.83134 13.5549 4.35312 14.0331C3.8749 14.5113 3.2263 14.78 2.55 14.78C1.8737 14.78 1.2251 14.5113 0.746878 14.0331C0.26866 13.5549 0 12.9063 0 12.23ZM62.681 0H53C52.3245 0 51.6767 0.268344 51.199 0.745999C50.7213 1.22365 50.453 1.87149 50.453 2.547C50.4529 2.88161 50.5186 3.21297 50.6466 3.52215C50.7745 3.83134 50.9621 4.1123 51.1986 4.349C51.4351 4.5857 51.7159 4.77349 52.025 4.90166C52.3341 5.02983 52.6654 5.09587 53 5.096H60.136V12.23C60.136 12.9063 60.4047 13.5549 60.8829 14.0331C61.3611 14.5113 62.0097 14.78 62.686 14.78C63.3623 14.78 64.0109 14.5113 64.4891 14.0331C64.9673 13.5549 65.236 12.9063 65.236 12.23V2.547C65.2355 1.87131 64.9667 1.22348 64.4887 0.745878C64.0107 0.26828 63.3627 -2.07988e-07 62.687 0M12.23 60.133H5.1V52.999C5.1 52.3227 4.83134 51.6741 4.35312 51.1959C3.8749 50.7177 3.2263 50.449 2.55 50.449C1.8737 50.449 1.2251 50.7177 0.746878 51.1959C0.26866 51.6741 0 52.3227 0 52.999L0 62.682C0 63.3575 0.268344 64.0053 0.745999 64.483C1.22365 64.9607 1.87149 65.229 2.547 65.229H12.23C12.9063 65.229 13.5549 64.9603 14.0331 64.4821C14.5113 64.0039 14.78 63.3553 14.78 62.679C14.78 62.0027 14.5113 61.3541 14.0331 60.8759C13.5549 60.3977 12.9063 60.129 12.23 60.129M62.681 50.454C62.0055 50.454 61.3577 50.7223 60.88 51.2C60.4023 51.6777 60.134 52.3255 60.134 53.001V60.135H53C52.3237 60.135 51.6751 60.4037 51.1969 60.8819C50.7187 61.3601 50.45 62.0087 50.45 62.685C50.45 63.3613 50.7187 64.0099 51.1969 64.4881C51.6751 64.9663 52.3237 65.235 53 65.235H62.683C63.3587 65.235 64.0067 64.9667 64.4847 64.4891C64.9627 64.0115 65.2315 63.3637 65.232 62.688V52.999C65.2309 52.3233 64.9616 51.6757 64.4833 51.1985C64.0049 50.7212 63.3567 50.4535 62.681 50.454ZM32.615 53.172C16.732 53.172 4.883 41.92 0.331 33.872C0.114727 33.4893 0.00107427 33.0571 0.00107427 32.6175C0.00107427 32.1779 0.114727 31.7457 0.331 31.363C5.574 22.088 17.94 12.054 32.615 12.054C48.497 12.054 60.345 23.308 64.897 31.354C65.1133 31.7367 65.2269 32.1689 65.2269 32.6085C65.2269 33.0481 65.1133 33.4803 64.897 33.863C59.656 43.134 47.288 53.163 32.615 53.163M59.656 32.614C53.581 23.713 43.9 17.154 32.615 17.154C21.287 17.154 11.621 23.754 5.573 32.614C11.65 41.514 21.332 48.076 32.616 48.076C43.944 48.076 53.608 41.476 59.657 32.614M44.718 32.614C44.718 35.0072 44.0083 37.3466 42.6788 39.3364C41.3492 41.3262 39.4595 42.8771 37.2485 43.7929C35.0375 44.7088 32.6046 44.9484 30.2574 44.4815C27.9102 44.0146 25.7542 42.8622 24.062 41.17C22.3698 39.4778 21.2174 37.3218 20.7505 34.9746C20.2836 32.6274 20.5232 30.1945 21.4391 27.9835C22.3549 25.7725 23.9058 23.8828 25.8956 22.5532C27.8854 21.2237 30.2248 20.514 32.618 20.514C35.8258 20.5182 38.901 21.7944 41.1693 24.0627C43.4376 26.331 44.7138 29.4062 44.718 32.614ZM39.618 32.614C39.6178 31.2281 39.2067 29.8735 38.4366 28.7213C37.6664 27.5691 36.572 26.6712 35.2915 26.141C34.0111 25.6108 32.6022 25.4723 31.243 25.7428C29.8838 26.0134 28.6354 26.6809 27.6556 27.661C26.6758 28.6411 26.0086 29.8897 25.7384 31.249C25.4683 32.6082 25.6072 34.0171 26.1378 35.2974C26.6683 36.5777 27.5665 37.6719 28.719 38.4417C29.8714 39.2114 31.2261 39.6222 32.612 39.622C34.4697 39.6196 36.2506 38.8805 37.5641 37.5667C38.8775 36.2529 39.6161 34.4717 39.618 32.614Z" fill="#EE7623"/>
</g>
<defs>
<clipPath id="clip0_148_86">
<rect width="65.23" height="65.229" fill="white"/>
</clipPath>
</defs>
</svg>
