<svg width="51" height="66" viewBox="0 0 51 66" fill="none" xmlns="http://www.w3.org/2000/svg">
<g clip-path="url(#clip0_148_79)">
<path d="M1.09301 65.544H25.126C25.4158 65.544 25.6936 65.4289 25.8985 65.224C26.1034 65.0191 26.2185 64.7412 26.2185 64.4515C26.2185 64.1618 26.1034 63.8839 25.8985 63.679C25.6936 63.4741 25.4158 63.359 25.126 63.359H2.18601V60.912C2.18423 59.5338 2.55502 58.1808 3.25915 56.9961C3.96329 55.8114 4.97457 54.8391 6.18601 54.182L15.924 48.863C16.7276 48.4296 17.3985 47.7862 17.8652 47.0014C18.3319 46.2167 18.5769 45.32 18.574 44.407V41.888C18.5768 41.4115 18.4213 40.9476 18.132 40.569C17.3203 39.4853 16.5951 38.3394 15.963 37.142H20.963C21.1872 37.7782 21.6025 38.3295 22.152 38.7206C22.7016 39.1117 23.3585 39.3235 24.033 39.327H27.311C27.7419 39.3277 28.1686 39.2433 28.5668 39.0789C28.9651 38.9144 29.3269 38.6731 29.6318 38.3686C29.9366 38.0641 30.1784 37.7025 30.3434 37.3045C30.5083 36.9065 30.5931 36.4798 30.593 36.049C30.593 35.1796 30.2476 34.3459 29.6329 33.7311C29.0182 33.1164 28.1844 32.771 27.315 32.771H24.033C23.3577 32.7735 22.6996 32.9846 22.149 33.3756C21.5983 33.7666 21.182 34.3182 20.957 34.955H14.951C14.6464 34.2032 14.3961 33.4306 14.202 32.643V17.478C14.2021 17.4299 14.1991 17.3818 14.193 17.334C14.0332 15.3483 14.6627 13.3796 15.945 11.855C17.754 9.789 20.845 8.741 25.126 8.741C29.393 8.741 32.476 9.782 34.288 11.831C35.5732 13.3655 36.2086 15.341 36.059 17.337C36.0529 17.3848 36.0499 17.4329 36.05 17.481V32.645C35.2639 35.5147 33.9304 38.2054 32.123 40.569C31.8342 40.9479 31.6784 41.4116 31.68 41.888V44.516C31.6745 45.449 31.9283 46.3651 32.4132 47.1622C32.8981 47.9593 33.5949 48.606 34.426 49.03L43.826 54.263C45.1026 54.8986 46.1759 55.8786 46.9247 57.0923C47.6734 58.306 48.0677 59.7049 48.063 61.131V63.355H14.202C13.9123 63.355 13.6344 63.4701 13.4295 63.675C13.2246 63.8799 13.1095 64.1578 13.1095 64.4475C13.1095 64.7373 13.2246 65.0151 13.4295 65.22C13.6344 65.4249 13.9123 65.54 14.202 65.54H49.159C49.4475 65.54 49.7243 65.426 49.9291 65.2227C50.1338 65.0195 50.2499 64.7435 50.252 64.455V61.135C50.2601 59.311 49.7589 57.5209 48.8049 55.9662C47.8509 54.4115 46.4819 53.1539 44.852 52.335L35.452 47.103C34.9734 46.8624 34.5716 46.4929 34.2917 46.0362C34.0119 45.5794 33.8651 45.0536 33.868 44.518L33.86 41.894C35.8793 39.2501 37.3566 36.2333 38.207 33.017C38.2258 32.9364 38.2352 32.8538 38.235 32.771V30.586H41.513C42.3824 30.586 43.2162 30.2408 43.8313 29.6264C44.4463 29.0119 44.7922 28.1784 44.793 27.309V20.755C44.7915 20.0793 44.5806 19.4207 44.1893 18.8698C43.798 18.319 43.2455 17.9029 42.608 17.679V17.479C42.6083 15.1833 42.1562 12.91 41.2777 10.7891C40.3992 8.66811 39.1115 6.741 37.488 5.11783C35.8646 3.49467 33.9373 2.20725 31.8162 1.32911C29.695 0.450981 27.4217 -0.000656078 25.126 7.15325e-07C20.4906 7.15325e-07 16.045 1.84143 12.7672 5.11919C9.48943 8.39695 7.64801 12.8425 7.64801 17.478V17.678C7.01038 17.9022 6.45787 18.3184 6.06642 18.8694C5.67498 19.4204 5.46383 20.0791 5.46201 20.755V27.309C5.46441 27.9847 5.67579 28.6432 6.06715 29.1941C6.45852 29.745 7.01071 30.1613 7.64801 30.386V32.771C7.6488 33.9297 8.1093 35.0407 8.92841 35.8602C9.74753 36.6797 10.8583 37.1407 12.017 37.142H13.517C14.3137 38.8151 15.2748 40.405 16.386 41.888V44.407C16.3882 44.9265 16.2492 45.4368 15.984 45.8834C15.7187 46.3301 15.3372 46.6963 14.88 46.943L5.13901 52.262C3.58271 53.1072 2.28365 54.3572 1.37908 55.8798C0.474514 57.4023 -0.0019606 59.141 6.06349e-06 60.912V64.455C0.0010644 64.7442 0.116686 65.0212 0.321549 65.2253C0.526412 65.4294 0.803816 65.544 1.09301 65.544ZM24.033 34.955H27.311C27.4544 34.9549 27.5964 34.983 27.729 35.0377C27.8615 35.0925 27.982 35.1728 28.0835 35.2741C28.185 35.3754 28.2655 35.4957 28.3205 35.6282C28.3755 35.7606 28.4039 35.9026 28.404 36.046C28.404 36.3359 28.2889 36.6139 28.0839 36.8189C27.8789 37.0238 27.6009 37.139 27.311 37.139H24.033C23.8896 37.1389 23.7476 37.1105 23.6152 37.0555C23.4828 37.0005 23.3624 36.9199 23.2611 36.8185C23.1598 36.717 23.0795 36.5965 23.0247 36.464C22.97 36.3314 22.9419 36.1894 22.942 36.046C22.9423 35.7567 23.0573 35.4794 23.2618 35.2748C23.4664 35.0703 23.7437 34.9553 24.033 34.955ZM42.606 27.307C42.6042 27.5963 42.4884 27.8733 42.2838 28.0778C42.0793 28.2824 41.8023 28.3982 41.513 28.4H38.235V19.66H41.513C41.8027 19.6618 42.0799 19.7779 42.2845 19.9829C42.4892 20.1879 42.6047 20.4653 42.606 20.755V27.307ZM25.126 2.185C29.1807 2.1895 33.068 3.80213 35.9352 6.66913C38.8024 9.53612 40.4152 13.4233 40.42 17.478H38.24C38.4373 14.9131 37.6148 12.374 35.951 10.412C33.708 7.855 30.066 6.555 25.126 6.555C20.186 6.555 16.544 7.855 14.301 10.413C12.6373 12.375 11.8147 14.9141 12.012 17.479H9.83301C9.83751 13.4243 11.4501 9.53701 14.3171 6.66983C17.1841 3.80265 21.0713 2.18977 25.126 2.185ZM7.64801 20.755C7.64827 20.4655 7.76324 20.188 7.96772 19.9831C8.17221 19.7783 8.44955 19.6628 8.73901 19.662H12.017V28.402H8.74001C8.45074 28.4017 8.17339 28.2867 7.96884 28.0822C7.7643 27.8776 7.64927 27.6003 7.64901 27.311L7.64801 20.755ZM12.017 34.955C11.4381 34.9539 10.8832 34.7235 10.4739 34.3142C10.0645 33.9048 9.83406 33.3499 9.83301 32.771V30.586H12.018V32.771C12.0178 32.8538 12.0272 32.9364 12.046 33.017C12.2021 33.6732 12.3948 34.3202 12.623 34.955H12.017Z" fill="#EE7623"/>
<path d="M9.05599 63.6758L8.92499 63.8398C8.88369 63.9022 8.85011 63.9694 8.82499 64.0398C8.79274 64.1026 8.77079 64.1701 8.75999 64.2398C8.74882 64.31 8.74213 64.3808 8.73999 64.4518C8.74426 64.7412 8.85746 65.0183 9.05699 65.2278C9.18278 65.3585 9.33951 65.4554 9.51267 65.5094C9.68583 65.5634 9.86982 65.5728 10.0476 65.5368C10.2254 65.5008 10.3912 65.4206 10.5297 65.3034C10.6682 65.1863 10.7749 65.0362 10.84 64.8668C10.8946 64.7352 10.9231 64.5943 10.924 64.4518C10.9217 64.2364 10.8563 64.0264 10.7358 63.8479C10.6153 63.6693 10.445 63.5301 10.246 63.4474C10.0471 63.3648 9.82829 63.3424 9.61673 63.383C9.40518 63.4236 9.2102 63.5254 9.05599 63.6758Z" fill="#EE7623"/>
</g>
<defs>
<clipPath id="clip0_148_79">
<rect width="50.253" height="65.557" fill="white"/>
</clipPath>
</defs>
</svg>
