<svg width="65" height="63" viewBox="0 0 65 63" fill="none" xmlns="http://www.w3.org/2000/svg">
<g clip-path="url(#clip0_148_83)">
<path d="M37.732 4.774C33.2194 4.77646 28.781 5.92261 24.8315 8.1054C20.8819 10.2882 17.55 13.4364 15.147 17.256H5.19202V0.768C5.19202 0.564487 5.11125 0.369295 4.96744 0.225295C4.82362 0.0812961 4.62854 0.000264991 4.42502 0H0.767023C0.666168 0 0.566302 0.0198649 0.473124 0.0584605C0.379946 0.0970561 0.295282 0.153627 0.223967 0.224942C0.152651 0.296257 0.0960793 0.380921 0.0574837 0.474099C0.0188881 0.567277 -0.000976562 0.667145 -0.000976562 0.768V62.168C-0.000976563 62.2689 0.0188881 62.3687 0.0574837 62.4619C0.0960793 62.5551 0.152651 62.6397 0.223967 62.7111C0.295282 62.7824 0.379946 62.8389 0.473124 62.8775C0.566302 62.9161 0.666168 62.936 0.767023 62.936H4.42202C4.62554 62.9357 4.82062 62.8547 4.96444 62.7107C5.10825 62.5667 5.18902 62.3715 5.18902 62.168V45.678H15.143C17.6153 49.6066 21.0695 52.8225 25.1645 55.0082C29.2595 57.1938 33.8537 58.2737 38.4936 58.1411C43.1335 58.0086 47.6586 56.6682 51.6222 54.2523C55.5857 51.8364 58.8506 48.4285 61.0946 44.3652C63.3386 40.3018 64.484 35.7235 64.4177 31.0822C64.3515 26.4408 63.0759 21.897 60.7169 17.8994C58.3579 13.9017 54.997 10.5884 50.9662 8.28663C46.9353 5.98482 42.3738 4.7741 37.732 4.774ZM3.65802 61.398H1.53802V1.536H3.65802V61.398ZM14.246 18.792C13.9307 19.3727 13.6374 19.9657 13.366 20.571H5.19202V18.792H14.246ZM12.733 22.107C10.4741 28.1422 10.4741 34.7908 12.733 40.826H5.19202V22.107H12.733ZM5.19202 44.144V42.363H13.366C13.6374 42.969 13.9307 43.5627 14.246 44.144H5.19202ZM37.732 56.627C32.7565 56.6272 27.8927 55.152 23.7556 52.388C19.6185 49.6239 16.3939 45.6952 14.4896 41.0986C12.5852 36.5019 12.0867 31.4438 13.0571 26.5638C14.0274 21.6839 16.423 17.2012 19.9409 13.6827C23.4589 10.1642 27.9411 7.76793 32.8209 6.79682C37.7007 5.82572 42.7589 6.32342 47.3559 8.22701C51.9528 10.1306 55.8821 13.3546 58.6468 17.4912C61.4115 21.6279 62.8874 26.4915 62.888 31.467C62.8811 38.137 60.2287 44.532 55.5126 49.2488C50.7966 53.9656 44.4021 56.6191 37.732 56.627ZM53.142 45.079C53.142 45.2827 53.0611 45.478 52.9171 45.6221C52.7731 45.7661 52.5777 45.847 52.374 45.847H22.664C22.4603 45.847 22.265 45.7661 22.121 45.6221C21.9769 45.478 21.896 45.2827 21.896 45.079C21.896 44.8753 21.9769 44.68 22.121 44.5359C22.265 44.3919 22.4603 44.311 22.664 44.311H52.374C52.5777 44.311 52.7731 44.3919 52.9171 44.5359C53.0611 44.68 53.142 44.8753 53.142 45.079ZM50.109 29.271H48.122C48.1727 28.623 48.1984 27.9483 48.199 27.247C48.199 27.0433 48.1181 26.848 47.9741 26.7039C47.8301 26.5599 47.6347 26.479 47.431 26.479H24.052C23.8483 26.479 23.653 26.5599 23.509 26.7039C23.3649 26.848 23.284 27.0433 23.284 27.247C23.284 38.007 29.284 42.785 29.543 42.984C29.6775 43.0883 29.8428 43.145 30.013 43.145C32.478 43.145 34.07 43.145 35.649 43.139C37.206 43.139 38.749 43.133 41.116 43.133C41.2742 43.1335 41.4286 43.085 41.558 42.994C42.8911 41.9448 44.0285 40.6686 44.918 39.224C45.028 39.054 45.139 38.875 45.251 38.688H48.342C51.571 38.688 53.569 35.767 53.569 33.06C53.5988 32.1246 53.3077 31.2071 52.744 30.46C52.4267 30.0718 52.0237 29.7624 51.5667 29.5561C51.1097 29.3498 50.6101 29.2522 50.109 29.271ZM40.852 41.598C38.634 41.598 37.144 41.598 35.645 41.598C34.128 41.598 32.601 41.604 30.295 41.604C29.2553 40.6326 28.3634 39.514 27.648 38.284C25.8454 35.159 24.8754 31.6234 24.831 28.016H46.648C46.6096 31.6597 45.5798 35.2242 43.669 38.327C42.9048 39.5573 41.9545 40.6617 40.852 41.601M48.341 37.155H46.071C47.0205 35.1493 47.6546 33.0091 47.951 30.81H50.109C50.3899 30.8131 50.6669 30.8763 50.9212 30.9954C51.1756 31.1145 51.4015 31.2868 51.5838 31.5005C51.766 31.7143 51.9003 31.9646 51.9776 32.2347C52.0549 32.5047 52.0735 32.7882 52.032 33.066C52.032 34.716 50.858 37.156 48.341 37.156M30.822 21.956C31.216 21.556 31.406 21.344 31.406 20.868C31.406 20.392 31.217 20.176 30.822 19.778C30.5004 19.5154 30.2411 19.1846 30.0631 18.8094C29.8851 18.4343 29.7927 18.0242 29.7927 17.609C29.7927 17.1938 29.8851 16.7837 30.0631 16.4086C30.2411 16.0334 30.5004 15.7026 30.822 15.44C31.216 15.04 31.406 14.828 31.406 14.35C31.406 14.1463 31.4869 13.951 31.631 13.8069C31.775 13.6629 31.9703 13.582 32.174 13.582C32.3777 13.582 32.5731 13.6629 32.7171 13.8069C32.8611 13.951 32.942 14.1463 32.942 14.35C32.9371 14.7642 32.8427 15.1724 32.6655 15.5467C32.4882 15.921 32.2322 16.2527 31.915 16.519C31.521 16.919 31.331 17.131 31.331 17.609C31.331 18.087 31.52 18.3 31.915 18.697C32.2361 18.9601 32.4947 19.2912 32.6723 19.6663C32.8499 20.0415 32.942 20.4514 32.942 20.8665C32.942 21.2816 32.8499 21.6915 32.6723 22.0667C32.4947 22.4418 32.2361 22.7729 31.915 23.036C31.521 23.436 31.331 23.646 31.331 24.124C31.331 24.3277 31.2501 24.523 31.1061 24.6671C30.9621 24.8111 30.7667 24.892 30.563 24.892C30.3593 24.892 30.164 24.8111 30.02 24.6671C29.8759 24.523 29.795 24.3277 29.795 24.124C29.7998 23.71 29.8941 23.3018 30.0713 22.9276C30.2486 22.5534 30.5047 22.222 30.822 21.956ZM35.193 21.956C35.586 21.556 35.775 21.344 35.775 20.868C35.775 20.392 35.586 20.176 35.193 19.778C34.8714 19.5154 34.6121 19.1846 34.4341 18.8094C34.2561 18.4343 34.1637 18.0242 34.1637 17.609C34.1637 17.1938 34.2561 16.7837 34.4341 16.4086C34.6121 16.0334 34.8714 15.7026 35.193 15.44C35.586 15.04 35.775 14.828 35.775 14.35C35.775 14.2491 35.7949 14.1493 35.8335 14.0561C35.8721 13.9629 35.9287 13.8783 36 13.8069C36.0713 13.7356 36.1559 13.6791 36.2491 13.6405C36.3423 13.6019 36.4422 13.582 36.543 13.582C36.6439 13.582 36.7437 13.6019 36.8369 13.6405C36.9301 13.6791 37.0148 13.7356 37.0861 13.8069C37.1574 13.8783 37.214 13.9629 37.2526 14.0561C37.2912 14.1493 37.311 14.2491 37.311 14.35C37.3064 14.7642 37.2122 15.1725 37.0349 15.5469C36.8577 15.9213 36.6015 16.2529 36.284 16.519C35.891 16.919 35.702 17.131 35.702 17.609C35.702 18.087 35.891 18.3 36.284 18.697C36.6051 18.9601 36.8637 19.2912 37.0413 19.6663C37.2189 20.0415 37.311 20.4514 37.311 20.8665C37.311 21.2816 37.2189 21.6915 37.0413 22.0667C36.8637 22.4418 36.6051 22.7729 36.284 23.036C35.891 23.436 35.702 23.646 35.702 24.124C35.702 24.3277 35.6211 24.523 35.4771 24.6671C35.3331 24.8111 35.1377 24.892 34.934 24.892C34.7303 24.892 34.535 24.8111 34.391 24.6671C34.2469 24.523 34.166 24.3277 34.166 24.124C34.1707 23.7098 34.2648 23.3015 34.4421 22.9271C34.6194 22.5527 34.8755 22.2211 35.193 21.955M39.562 21.955C39.956 21.555 40.146 21.343 40.146 20.867C40.146 20.391 39.957 20.175 39.562 19.777C39.2404 19.5144 38.9811 19.1836 38.8031 18.8084C38.6251 18.4333 38.5327 18.0232 38.5327 17.608C38.5327 17.1928 38.6251 16.7827 38.8031 16.4076C38.9811 16.0324 39.2404 15.7016 39.562 15.439C39.956 15.039 40.146 14.827 40.146 14.349C40.146 14.1453 40.2269 13.95 40.371 13.8059C40.515 13.6619 40.7103 13.581 40.914 13.581C41.1177 13.581 41.3131 13.6619 41.4571 13.8059C41.6011 13.95 41.682 14.1453 41.682 14.349C41.6774 14.7632 41.5832 15.1715 41.4059 15.5459C41.2287 15.9203 40.9725 16.2519 40.655 16.518C40.261 16.918 40.071 17.13 40.071 17.608C40.071 18.086 40.26 18.299 40.655 18.696C40.9761 18.9591 41.2347 19.2902 41.4123 19.6653C41.5899 20.0405 41.682 20.4504 41.682 20.8655C41.682 21.2806 41.5899 21.6905 41.4123 22.0657C41.2347 22.4408 40.9761 22.7719 40.655 23.035C40.261 23.435 40.071 23.645 40.071 24.123C40.071 24.3267 39.9901 24.522 39.8461 24.6661C39.7021 24.8101 39.5067 24.891 39.303 24.891C39.0993 24.891 38.904 24.8101 38.76 24.6661C38.6159 24.522 38.535 24.3267 38.535 24.123C38.5397 23.7088 38.6338 23.3005 38.8111 22.9261C38.9884 22.5517 39.2445 22.2211 39.562 21.955Z" fill="#EE7623"/>
</g>
<defs>
<clipPath id="clip0_148_83">
<rect width="64.424" height="62.934" fill="white"/>
</clipPath>
</defs>
</svg>
