<svg xmlns="http://www.w3.org/2000/svg" xmlns:xlink="http://www.w3.org/1999/xlink" width="72.361" height="64.551" viewBox="0 0 72.361 64.551"><defs><clipPath id="a"><rect width="72.361" height="64.551" fill="#ee7623" stroke="#ee7623" stroke-width="1"/></clipPath></defs><g clip-path="url(#a)"><path d="M75.373,51.545a3.531,3.531,0,1,1,2.637,4.238,3.529,3.529,0,0,1-2.637-4.238" transform="translate(-38.201 -24.772)" fill="#ee7623" stroke="#ee7623" stroke-miterlimit="10" stroke-width="1"/><path d="M107.808,61.472l14.83,17.882H126.5L108.383,61.472Z" transform="translate(-54.707 -31.194)" fill="#ee7623" stroke="#ee7623" stroke-width="1"/><path d="M136.73,62.881,135.207,71.4h-.9v.84h6.206V71.4h-.9L138.1,62.881Z" transform="translate(-68.156 -31.909)" fill="#ee7623" stroke="#ee7623" stroke-width="1"/><path d="M123.683,59.619l-1.238-6.93h-1.113l-1.238,6.93h-.729V60.3h5.047v-.684Z" transform="translate(-60.572 -26.737)" fill="#ee7623" stroke="#ee7623" stroke-width="1"/><path d="M45.613,87.248v3.036H69.491v4.551a1.514,1.514,0,0,0,1.516,1.515h3.035a1.517,1.517,0,0,0,1.518-1.515V90.284h1.517V87.248Z" transform="translate(-23.146 -44.274)" fill="#ee7623" stroke="#ee7623" stroke-miterlimit="10" stroke-width="1"/><path d="M73.82,57.695a2.556,2.556,0,1,1-2.556-2.555,2.556,2.556,0,0,1,2.556,2.555M57.354,42.077c2.341,0,8.7.984,11.024,1.354l3.472,9.262a119.588,119.588,0,0,0-14.5-1.511c-1.61,0-3.582.138-5.544.333,0,.282.006.565.006.853,0,1.641-.055,3.408-.163,5.258a3.571,3.571,0,0,1-3.561,3.361c-.069,0-.138,0-.209-.006a3.542,3.542,0,0,1-2.27-.992v1.953H77.076V54.215s-.571-.19-1.6-.476L70.6,40.725s-10.129-1.686-13.25-1.686a67.6,67.6,0,0,0-7.165.753,24.821,24.821,0,0,1,.789,2.941,59.81,59.81,0,0,1,6.377-.657" transform="translate(-23.146 -19.81)" fill="#ee7623" stroke="#ee7623" stroke-miterlimit="10" stroke-width="1"/><path d="M59.711,53.211a3.53,3.53,0,0,0-2.637-4.238c-.04-.01-.081-.018-.121-.026a48.219,48.219,0,0,1,.594,6.755,3.524,3.524,0,0,0,2.164-2.49" transform="translate(-28.901 -24.838)" fill="#ee7623" stroke="#ee7623" stroke-miterlimit="10" stroke-width="1"/><path d="M.661,52.07a2.161,2.161,0,0,0,2.155,2.035c.042,0,.085,0,.129,0a2.159,2.159,0,0,0,2.03-2.282c-.106-1.8-.153-3.432-.153-4.921-.01-6.541.943-10.216,1.88-12.134V75.3a3.339,3.339,0,0,0,6.679,0V50.923h1.253V75.3a3.339,3.339,0,1,0,6.678,0V34.776a11.5,11.5,0,0,1,.481,1.144c.761,2.111,1.4,5.572,1.4,10.976,0,1.489-.048,3.124-.153,4.921A2.161,2.161,0,0,0,25.07,54.1c.043,0,.085,0,.129,0a2.16,2.16,0,0,0,2.154-2.035c.109-1.872.161-3.593.161-5.174C27.5,38.744,26.2,34.234,24.425,31.52a7.634,7.634,0,0,0-2.883-2.688,5.129,5.129,0,0,0-2.28-.578,3.188,3.188,0,0,0-.381.023h-.969l-.618,4.829L14.66,29.932l1.494-1.656H11.861l1.494,1.656-2.634,3.173L10.1,28.276H9.133a3.213,3.213,0,0,0-.382-.023,5.127,5.127,0,0,0-2.279.578,6.377,6.377,0,0,0-1.331.9,10.508,10.508,0,0,0-2.783,4.19A26.46,26.46,0,0,0,.8,40.783,56.389,56.389,0,0,0,.5,46.9c0,1.581.052,3.3.161,5.174" transform="translate(-0.254 -14.337)" fill="#ee7623" stroke="#ee7623" stroke-miterlimit="10" stroke-width="1"/><path d="M21.661.5a6.077,6.077,0,1,1-6.077,6.077A6.077,6.077,0,0,1,21.661.5" transform="translate(-7.908 -0.254)" fill="#ee7623" stroke="#ee7623" stroke-miterlimit="10" stroke-width="1"/></g></svg>