<svg xmlns="http://www.w3.org/2000/svg" xmlns:xlink="http://www.w3.org/1999/xlink" width="70.346" height="64.551" viewBox="0 0 70.346 64.551"><defs><clipPath id="a"><rect width="70.346" height="64.551" fill="#ee7623"/></clipPath></defs><g clip-path="url(#a)"><path d="M148.513,216.29a1.4,1.4,0,0,1,0,1.982l-9.4,9.4a1.4,1.4,0,0,1-1.982,0l-4.476-4.477a1.4,1.4,0,0,1,1.982-1.982l3.485,3.485,8.412-8.412a1.4,1.4,0,0,1,1.982,0m10.01,5.693a17.941,17.941,0,1,1-17.941-17.941,17.931,17.931,0,0,1,17.941,17.941m-2.8,0a15.138,15.138,0,1,0-15.138,15.138,15.129,15.129,0,0,0,15.138-15.138" transform="translate(-105.409 -175.373)" fill="#ee7623"/><path d="M64.52,0H5.826A5.833,5.833,0,0,0,0,5.826V44.2a5.833,5.833,0,0,0,5.826,5.826H18.2a2.587,2.587,0,0,1-.367-1.216,2.127,2.127,0,0,1,.472-1.406H5.826a3.208,3.208,0,0,1-3.2-3.2V5.826a3.208,3.208,0,0,1,3.2-3.2H64.52a3.208,3.208,0,0,1,3.2,3.2V44.2a3.208,3.208,0,0,1-3.2,3.2H51.461a2.713,2.713,0,0,1,.146.356,2.367,2.367,0,0,1-.58,2.267H64.52A5.833,5.833,0,0,0,70.346,44.2V5.826A5.833,5.833,0,0,0,64.52,0" fill="#ee7623"/><path d="M89.726,150.986a3.347,3.347,0,0,1,.415-2.136H82.988l.333-1.039a7.727,7.727,0,0,1,11.592-4.105,7.511,7.511,0,0,1,1.58-1.056,2.83,2.83,0,0,1,.977-.279,10.6,10.6,0,0,0-1.43-1.045l-.816-.5.637-.713a6.955,6.955,0,1,0-10.373,0l.637.713-.816.5a10.282,10.282,0,0,0-4.975,8.836,1.313,1.313,0,0,0,1.311,1.311h8.19a2.916,2.916,0,0,1-.108-.487m.948-19.831a4.333,4.333,0,1,1-4.333,4.333,4.338,4.338,0,0,1,4.333-4.333" transform="translate(-69.046 -110.473)" fill="#ee7623"/><path d="M290.51,147.223a1.311,1.311,0,1,1,0-2.622h15.8a1.311,1.311,0,0,1,0,2.622Z" transform="translate(-248.565 -124.284)" fill="#ee7623"/><path d="M81.644,66.889a1.311,1.311,0,1,1,0-2.622h45.149a1.311,1.311,0,1,1,0,2.622Z" transform="translate(-69.046 -55.237)" fill="#ee7623"/><path d="M290.51,211.489a1.311,1.311,0,1,1,0-2.622h15.8a1.311,1.311,0,0,1,0,2.622Z" transform="translate(-248.565 -179.52)" fill="#ee7623"/><path d="M361.253,273.134h-2.879a2.567,2.567,0,0,1,.408.76,2.038,2.038,0,0,1-.3,1.862h2.77a1.311,1.311,0,0,0,0-2.622" transform="translate(-308.02 -234.757)" fill="#ee7623"/></g></svg>