<svg xmlns="http://www.w3.org/2000/svg" width="236.386" height="49.743" viewBox="0 0 236.386 49.743"><g transform="translate(-108.621 -30.727)"><g transform="translate(170.643 41.601)"><path d="M4.722,156.961a.859.859,0,0,0,.978-.986.869.869,0,0,0-1-.976c-.622.01-.927.337-.937.987a.852.852,0,0,0,.956.975" transform="translate(0.83 -154.623)" fill="#541226"/><path d="M2.657,156.961a.856.856,0,0,0,.975-.986.867.867,0,0,0-1-.976c-.62.01-.925.337-.935.987a.852.852,0,0,0,.956.975" transform="translate(0.375 -154.623)" fill="#541226"/><path d="M23.426,158.707a3.329,3.329,0,0,0-.946,2.39,3.276,3.276,0,0,0,.478,1.739H6.91v-5.084l-3.193-.02a2.967,2.967,0,0,0-2.247.967,3.276,3.276,0,0,0-.946,2.39c.011,2.165,1.087,3.243,3.193,3.243H28.865v-6.568l-3.193-.011a3,3,0,0,0-2.247.956M3.7,162.836c-1.057,0-1.585-.578-1.585-1.707v-.083c0-1.169.538-1.737,1.606-1.757l.671-.011h.925l.01,3.559Zm23.572-3.548.01.193-.01,3.355H25.652c-1.057,0-1.587-.57-1.587-1.7v-.082c0-1.169.541-1.739,1.607-1.759l.67-.01Z" transform="translate(0.116 -154.021)" fill="#541226"/><path d="M22.778,156.961a.857.857,0,0,0,.976-.986.868.868,0,0,0-1-.976c-.62.01-.925.337-.936.987a.852.852,0,0,0,.956.975" transform="translate(4.809 -154.623)" fill="#541226"/><path d="M20.713,156.961a.859.859,0,0,0,.976-.986.87.87,0,0,0-1-.976c-.621.01-.926.337-.935.987a.851.851,0,0,0,.956.975" transform="translate(4.354 -154.623)" fill="#541226"/><rect width="1.82" height="10.31" transform="translate(29.795)" fill="#541226"/><path d="M58.544,162.666a.765.765,0,0,1-.834.835H55.238v-8.784H53.4V163.5h-6l.041-.132a2.9,2.9,0,0,0,.122-.835c.01-.782.01-2.155.01-4.118H45.72v4a2.048,2.048,0,0,1-.061.5.658.658,0,0,1-.58.549,2.23,2.23,0,0,1-.386.04h-.967v-4.565h-1.84l-.01,4.565h-1.79v-4.565h-1.84V163.5H34.778v-.011h-1.82V158.4H29.766a3,3,0,0,0-2.258.975,3.417,3.417,0,0,0-.936,2.431A2.981,2.981,0,0,0,29.054,165h2.093l-.009.956a1.791,1.791,0,0,1-1.424,1.84,3.636,3.636,0,0,1-1.261.1l-.732-.061v1.342a2.76,2.76,0,0,0,.316.071c.935.051,1.5.082,1.718.072a3.336,3.336,0,0,0,.976-.193,3.178,3.178,0,0,0,2.226-3.315V165h24.9a2.227,2.227,0,0,0,2.531-2.512v-7.768h-1.85Zm-27.172.824-1.606.011c-1.068.01-1.607-.6-1.607-1.79,0-1.169.539-1.757,1.607-1.757h.691v-.011h.9l.011,1.667Z" transform="translate(5.856 -154.685)" fill="#541226"/><path d="M61.033,156.961a.858.858,0,0,0,.976-.986.869.869,0,0,0-1-.976c-.621.01-.926.337-.936.987a.852.852,0,0,0,.956.975" transform="translate(13.24 -154.623)" fill="#541226"/><path d="M58.967,156.961a.858.858,0,0,0,.976-.986.869.869,0,0,0-1-.976c-.62.01-.925.337-.935.987a.852.852,0,0,0,.956.975" transform="translate(12.785 -154.623)" fill="#541226"/><path d="M88,162a.764.764,0,0,1-.834.834H63.221v-5.084l-3.193-.02a2.967,2.967,0,0,0-2.247.967,3.276,3.276,0,0,0-.946,2.39c.011,2.165,1.087,3.243,3.193,3.243H87.321a2.227,2.227,0,0,0,2.531-2.512v-4.026H88Zm-27.995.834c-1.057,0-1.585-.578-1.585-1.707v-.083c0-1.169.538-1.737,1.606-1.757l.671-.011h.925l.01,3.559Z" transform="translate(12.526 -154.021)" fill="#541226"/><path d="M80.8,164.213c-.621.01-.926.336-.934.986a.851.851,0,0,0,.954.976.861.861,0,0,0,.978-.986.871.871,0,0,0-1-.976" transform="translate(17.602 -152.592)" fill="#541226"/><path d="M82.87,164.213c-.622.01-.927.336-.936.986a.966.966,0,1,0,1.932-.01.869.869,0,0,0-1-.976" transform="translate(18.058 -152.592)" fill="#541226"/><rect width="1.82" height="10.31" transform="translate(103.195)" fill="#541226"/><path d="M96.328,162.666a.765.765,0,0,1-.834.835H90.532v-5.052h-1.82v7.676c0,.976-1.4,1.8-2.287,2.053l.9,1.3a3.238,3.238,0,0,0,.976-.193,3.164,3.164,0,0,0,2.226-3.3V165h5.116a2.227,2.227,0,0,0,2.531-2.512v-7.768h-1.85Z" transform="translate(19.047 -154.685)" fill="#541226"/><rect width="1.82" height="10.31" transform="translate(118.04)" fill="#541226"/><path d="M102.895,156.961a.858.858,0,0,0,.976-.986.869.869,0,0,0-1-.976c-.62.01-.925.337-.935.987a.852.852,0,0,0,.956.975" transform="translate(22.467 -154.623)" fill="#541226"/><path d="M104.961,156.961a.858.858,0,0,0,.976-.986.869.869,0,0,0-1-.976c-.621.01-.926.337-.936.987a.852.852,0,0,0,.956.975" transform="translate(22.922 -154.623)" fill="#541226"/><path d="M127.712,157.752l-.01,4a2.048,2.048,0,0,1-.061.5.646.646,0,0,1-.58.549,11.065,11.065,0,0,1-1.342.04V158.27h-1.85l-.01,4.565h-1.79V158.27h-1.84v4.565H107.149v-5.084l-3.193-.02a2.967,2.967,0,0,0-2.247.967,3.276,3.276,0,0,0-.946,2.39c.011,2.165,1.087,3.243,3.193,3.243h22.931a3.594,3.594,0,0,0,.8-.072,2.12,2.12,0,0,0,1.728-1.555,2.9,2.9,0,0,0,.122-.835c.01-.782.021-2.155.01-4.118Zm-23.776,5.084c-1.057,0-1.585-.578-1.585-1.707v-.083c0-1.169.538-1.737,1.606-1.757l.671-.011h.925l.01,3.559Z" transform="translate(22.208 -154.021)" fill="#541226"/><path d="M127.016,165.449c0,.976-1.4,1.8-2.287,2.054l.9,1.3a3.2,3.2,0,0,0,.976-.193,3.164,3.164,0,0,0,2.226-3.3v-7.535h-1.82Z" transform="translate(27.489 -154.012)" fill="#541226"/><path d="M145.052,158.77a3.057,3.057,0,0,0-4.515,0,3.373,3.373,0,0,0-.935,2.4,3.478,3.478,0,0,0,.132.976.808.808,0,0,1-.681.65q-.366.031-1.007.031h-3.622V160.6a4.359,4.359,0,0,0-.193-1.344,1.971,1.971,0,0,0-1.779-1.484c-.112-.011-.864-.011-2.237,0v1.455h1.342a.934.934,0,0,1,1.017,1.057v2.542h-3.812v1.494h10.047a2.026,2.026,0,0,0,1.545-.65l.164-.112c.01.011-.011-.021-.061-.081a3.058,3.058,0,0,0,4.6.092,3.548,3.548,0,0,0,0-4.8m-2.258,4.362c-.814,0-1.22-.65-1.22-1.962s.406-1.961,1.22-1.961,1.22.65,1.22,1.961-.408,1.962-1.22,1.962" transform="translate(28.378 -154.013)" fill="#541226"/><path d="M3.371,171.216,0,178.978H1.807l.609-1.508H6.009l.61,1.508H8.493l-3.315-7.762Zm-.377,4.845,1.231-3.016,1.219,3.016Z" transform="translate(0 -151.049)" fill="#541226"/><path d="M10.1,171.217H8.349v7.76h5.078v-1.53H10.1Z" transform="translate(1.84 -151.049)" fill="#541226"/><path d="M20.273,175.446a3,3,0,0,0,.372-1.536,2.464,2.464,0,0,0-.832-1.989,3.539,3.539,0,0,0-2.35-.7H14.09v7.762h1.752v-2.219h1.785l1.231,2.219h1.984l-1.652-2.562a2.382,2.382,0,0,0,1.081-.97m-1.685-.487a1.681,1.681,0,0,1-1.125.337H15.842v-2.627h1.619a1.72,1.72,0,0,1,1.125.327,1.19,1.19,0,0,1,.393.97,1.239,1.239,0,0,1-.393.993" transform="translate(3.105 -151.049)" fill="#541226"/><path d="M24.04,171.216l-3.371,7.762h1.807l.609-1.508h3.593l.61,1.508h1.873l-3.315-7.762Zm-.377,4.845,1.231-3.016,1.219,3.016Z" transform="translate(4.555 -151.049)" fill="#541226"/><path d="M31.558,174.7l-1.986-3.482H27.81l2.872,5.3v2.46h1.752v-2.505l2.826-5.255H33.5Z" transform="translate(6.129 -151.049)" fill="#541226"/><path d="M37.476,171.216,34.1,178.978h1.807l.609-1.508h3.593l.61,1.508H42.6l-3.315-7.762Zm-.377,4.845,1.231-3.016,1.219,3.016Z" transform="translate(7.516 -151.049)" fill="#541226"/><path d="M47.721,174.453H44.207v-3.236H42.455v7.76h1.752v-3.06h3.514v3.06h1.752v-7.76H47.721Z" transform="translate(9.357 -151.049)" fill="#541226"/><path d="M58.6,171.71a4.447,4.447,0,0,0-2.117-.493H53.184v7.76h3.228a4.575,4.575,0,0,0,2.15-.493,3.657,3.657,0,0,0,1.469-1.375,3.844,3.844,0,0,0,.526-2.012,3.9,3.9,0,0,0-.515-2.012A3.572,3.572,0,0,0,58.6,171.71m-.111,4.64a2.118,2.118,0,0,1-.8.848,2.243,2.243,0,0,1-1.158.305H54.936v-4.812h1.507a2.332,2.332,0,0,1,1.194.305,2.191,2.191,0,0,1,.831.859,2.543,2.543,0,0,1,.305,1.252,2.618,2.618,0,0,1-.289,1.242" transform="translate(11.721 -151.049)" fill="#541226"/><path d="M67.079,175.446a3,3,0,0,0,.372-1.536,2.464,2.464,0,0,0-.832-1.989,3.539,3.539,0,0,0-2.35-.7H60.9v7.762h1.752v-2.219h1.785l1.231,2.219h1.984L66,176.416a2.382,2.382,0,0,0,1.081-.97m-1.685-.487a1.681,1.681,0,0,1-1.125.337H62.649v-2.627h1.619a1.72,1.72,0,0,1,1.125.327,1.19,1.19,0,0,1,.393.97,1.239,1.239,0,0,1-.393.993" transform="translate(13.421 -151.049)" fill="#541226"/><rect width="1.752" height="7.76" transform="translate(83.232 20.168)" fill="#541226"/><path d="M75.075,177.071l-2.116-5.854H71.073l3.049,7.76h1.807l3.083-7.76H77.2Z" transform="translate(15.664 -151.049)" fill="#541226"/><rect width="1.752" height="7.76" transform="translate(96.416 20.168)" fill="#541226"/><path d="M87.942,176.228l-3.77-5.011h-1.6v7.76H84.25v-4.989l3.759,4.989h1.6v-7.76H87.942Z" transform="translate(18.199 -151.049)" fill="#541226"/><path d="M93.006,172.975a2.4,2.4,0,0,1,1.236-.328,2.934,2.934,0,0,1,1.131.233,3.217,3.217,0,0,1,1,.643l.987-1.253a4.506,4.506,0,0,0-1.424-.842,4.759,4.759,0,0,0-1.691-.311,4.48,4.48,0,0,0-2.156.522,3.91,3.91,0,0,0-1.525,1.435,3.859,3.859,0,0,0-.554,2.036,3.921,3.921,0,0,0,2.03,3.485,4.24,4.24,0,0,0,2.106.527,5.356,5.356,0,0,0,1.663-.283,5.214,5.214,0,0,0,1.485-.737v-3.016H95.772v2.073a4.08,4.08,0,0,1-.776.316,2.7,2.7,0,0,1-.743.116,2.409,2.409,0,0,1-2.122-1.225,2.575,2.575,0,0,1-.006-2.505,2.379,2.379,0,0,1,.881-.886" transform="translate(19.837 -151.071)" fill="#541226"/><path d="M105.507,174.8a10.328,10.328,0,0,0-1.313-.466,5.922,5.922,0,0,1-1.181-.448.684.684,0,0,1-.382-.627.538.538,0,0,1,.266-.487,1.351,1.351,0,0,1,.721-.167,3.887,3.887,0,0,1,1.147.216,5.833,5.833,0,0,1,1.269.583l.677-1.453a5.321,5.321,0,0,0-1.375-.621,5.459,5.459,0,0,0-1.574-.232,4.069,4.069,0,0,0-1.574.282,2.41,2.41,0,0,0-1.054.809,2.052,2.052,0,0,0-.376,1.225,1.864,1.864,0,0,0,.366,1.209,2.27,2.27,0,0,0,.87.676,10.04,10.04,0,0,0,1.3.444c.37.1.66.2.871.276a1.58,1.58,0,0,1,.521.317.7.7,0,0,1-.1,1.069,1.538,1.538,0,0,1-.848.2,3.634,3.634,0,0,1-1.4-.322,4.768,4.768,0,0,1-1.353-.853l-.7,1.43a5.017,5.017,0,0,0,1.574.909,5.348,5.348,0,0,0,1.853.332,4.166,4.166,0,0,0,1.563-.277,2.433,2.433,0,0,0,1.081-.815,2.115,2.115,0,0,0,.393-1.28,1.938,1.938,0,0,0-.366-1.231,2.323,2.323,0,0,0-.882-.7" transform="translate(22.103 -151.075)" fill="#541226"/><path d="M112.085,177.275a2.487,2.487,0,0,1-1.058.25,2.275,2.275,0,0,1-1.2-.327,2.336,2.336,0,0,1-.853-.887,2.5,2.5,0,0,1-.311-1.235,2.469,2.469,0,0,1,.311-1.231,2.325,2.325,0,0,1,2.05-1.2,2.385,2.385,0,0,1,1.081.272,2.958,2.958,0,0,1,.937.748l1.02-1.252a4.387,4.387,0,0,0-3.061-1.3,4.29,4.29,0,0,0-2.1.522,3.872,3.872,0,0,0-2.034,3.459,4.018,4.018,0,0,0,.533,2.051,3.829,3.829,0,0,0,1.463,1.446,4.134,4.134,0,0,0,2.072.527,4.058,4.058,0,0,0,1.68-.377,4.658,4.658,0,0,0,1.457-1.02l-1.03-1.119a3.313,3.313,0,0,1-.96.67" transform="translate(23.553 -151.071)" fill="#541226"/><path d="M119.62,174.453h-3.513v-3.236h-1.752v7.76h1.752v-3.06h3.513v3.06h1.752v-7.76H119.62Z" transform="translate(25.203 -151.049)" fill="#541226"/><path d="M128.063,171.637a4.572,4.572,0,0,0-4.24,0,3.961,3.961,0,0,0,0,6.956,4.515,4.515,0,0,0,4.235,0,3.955,3.955,0,0,0,0-6.956M128,176.365a2.373,2.373,0,0,1-.853.9,2.239,2.239,0,0,1-1.181.326,2.264,2.264,0,0,1-1.191-.332,2.493,2.493,0,0,1-.876-.9,2.563,2.563,0,0,1-.006-2.494,2.392,2.392,0,0,1,.876-.892,2.314,2.314,0,0,1,1.2-.328,2.23,2.23,0,0,1,1.181.328,2.387,2.387,0,0,1,.853.892,2.5,2.5,0,0,1,.316,1.242,2.544,2.544,0,0,1-.316,1.257" transform="translate(26.839 -151.071)" fill="#541226"/><path d="M135.949,171.637a4.572,4.572,0,0,0-4.24,0,3.962,3.962,0,0,0,0,6.956,4.515,4.515,0,0,0,4.235,0,3.955,3.955,0,0,0,0-6.956m-.061,4.728a2.373,2.373,0,0,1-.853.9,2.239,2.239,0,0,1-1.181.326,2.264,2.264,0,0,1-1.191-.332,2.494,2.494,0,0,1-.876-.9,2.563,2.563,0,0,1-.006-2.494,2.392,2.392,0,0,1,.876-.892,2.314,2.314,0,0,1,1.2-.328,2.23,2.23,0,0,1,1.181.328,2.387,2.387,0,0,1,.853.892,2.5,2.5,0,0,1,.316,1.242,2.544,2.544,0,0,1-.316,1.257" transform="translate(28.577 -151.071)" fill="#541226"/><path d="M139.919,177.447v-6.23h-1.752v7.76h5.078v-1.53Z" transform="translate(30.451 -151.049)" fill="#541226"/></g><g transform="translate(108.621 30.727)"><g transform="translate(0)"><rect width="1.13" height="1.052" rx="0.526" transform="translate(18.092 17.36)" fill="#541226"/><path d="M.526,0h.08a.526.526,0,0,1,.526.526v0A.526.526,0,0,1,.6,1.052H.526A.526.526,0,0,1,0,.526v0A.526.526,0,0,1,.526,0Z" transform="translate(16.5 17.36)" fill="#541226"/><rect width="1.131" height="1.052" rx="0.526" transform="translate(21.563 25.294)" fill="#541226"/><path d="M67.671,72.322h-.553a.289.289,0,0,0-.289.289v.474a.289.289,0,0,0,.289.289h.553a.289.289,0,0,0,.289-.289v-.474a.289.289,0,0,0-.289-.289" transform="translate(-43.673 -47.028)" fill="#541226"/><path d="M54.527,55.652h-.87a.16.16,0,0,0-.161.161v2.573q0,.531-.335.659a3.235,3.235,0,0,1-.914.079H51.239a.288.288,0,0,0-.049,0,.19.19,0,0,0-.043,0,.755.755,0,0,1-.7-.383,3.23,3.23,0,0,1-.3-.954q-.167-.865-.236-1.091a1.242,1.242,0,0,0-.511-.767,2.861,2.861,0,0,0-1.435-.275,2.9,2.9,0,0,0-1.779.4,1.9,1.9,0,0,0-.491,1.524v1a1.876,1.876,0,0,0,.422,1.406,2.052,2.052,0,0,0,1.455.413h3.322a.191.191,0,0,0,.035-.006c.072,0,.145.006.221.006a.19.19,0,0,0,.043,0,.287.287,0,0,0,.049,0h1.009a2.8,2.8,0,0,0,1.721-.491,1.809,1.809,0,0,0,.688-1.524v-2.6a.13.13,0,0,0-.129-.129m-7.371,3.3a.921.921,0,0,1-.2-.678v-.649a.842.842,0,0,1,.334-.767,1.2,1.2,0,0,1,.668-.167.735.735,0,0,1,.659.265,2.6,2.6,0,0,1,.177.688l.254,1.442a.225.225,0,0,0,.006.026l0,.007H47.893a1.18,1.18,0,0,1-.737-.167" transform="translate(-29.928 -36.188)" fill="#541226"/><path d="M74.844,55.454V48.637a.237.237,0,0,0-.237-.237h-.8a.231.231,0,0,0-.231.231v6.822a.231.231,0,0,0,.231.231h.805a.231.231,0,0,0,.231-.231" transform="translate(-48.061 -31.473)" fill="#541226"/><path d="M78.831,56.334v-.31a.339.339,0,0,1,.339-.339.338.338,0,0,0,.078-.01.184.184,0,0,0,.05.01h.024a2.482,2.482,0,0,0,1.612-.413,1.65,1.65,0,0,0,.482-1.307V48.583a.183.183,0,0,0-.183-.183h-.9a.182.182,0,0,0-.183.183V53.67a.625.625,0,0,1-.246.57,1.629,1.629,0,0,1-.575.165l-.029,0a.184.184,0,0,0-.05.01.338.338,0,0,0-.078-.01.339.339,0,0,1-.339-.339V51.286a.339.339,0,0,0-.339-.339H77.9a.339.339,0,0,0-.339.339v4.753a1.115,1.115,0,0,1-.187.727.834.834,0,0,1-.659.226,1.927,1.927,0,0,1-.845-.118l-.059-.029v.839a.339.339,0,0,0,.3.338,5.6,5.6,0,0,0,.624.032,2.507,2.507,0,0,0,1.612-.413,1.651,1.651,0,0,0,.482-1.308" transform="translate(-49.515 -31.473)" fill="#541226"/><rect width="1.268" height="7.285" rx="0.634" transform="translate(32.688 16.927)" fill="#541226"/><path d="M41.991,27.608c.946-.581,1.15-2.707,1.527-3.376a.521.521,0,0,0,.061-.2,16.512,16.512,0,0,0-2.38,1.414c.091.124.177.249.254.376a3.168,3.168,0,0,1,.5,1.626c0,.055,0,.112-.007.17l.046-.009" transform="translate(-27.007 -15.627)" fill="#ee7623"/><path d="M97.9,24.922A16.732,16.732,0,0,0,95.386,23.5a.642.642,0,0,0,.062.385c.377.669.581,2.8,1.527,3.376.015,0,.031.006.046.009,0-.058-.007-.115-.007-.17a3.166,3.166,0,0,1,.5-1.626,5.2,5.2,0,0,1,.392-.556" transform="translate(-62.24 -15.284)" fill="#ee7623"/><path d="M103.31,20.949q-.14.129-.269.26-.216.22-.4.446a2.976,2.976,0,0,0-.772,1.81c0,.047,0,.094.006.142a1.378,1.378,0,0,0,.191.608,1.762,1.762,0,0,0,1.293.743.322.322,0,0,1,.135.057l1.542-1.119.484-.351,1.6-1.16h0l-1.539,1.232-.465.372-1.5,1.2a.3.3,0,0,1,.008.115,2.9,2.9,0,0,0,.269,1.908,2.765,2.765,0,0,0,1.771.651.271.271,0,0,1,.091.022l1.365-1.046.477-.365,1.9-1.455h0l-1.841,1.554-.462.39-1.274,1.076a.306.306,0,0,1,.031.125,2.931,2.931,0,0,0,.353,1.484,2.275,2.275,0,0,0,1.207.559.288.288,0,0,1,.093.035l.934-.624.5-.337,2.282-1.523h0l-2.229,1.65-.5.367-.857.634a.313.313,0,0,1,.017.081A2.542,2.542,0,0,0,108,31.545a1.228,1.228,0,0,0,.468.333.872.872,0,0,0,.742.006l.019-.008.536-.286a24.412,24.412,0,0,0,4.794-2.977.8.8,0,0,0,.214-.241.957.957,0,0,0,.141-.487,2.621,2.621,0,0,0-.074-.753,2.028,2.028,0,0,0-.43-.609.311.311,0,0,1-.071-.31c.01-.033.045-.111.089-.22.178-.435.523-1.368.155-1.888a2.393,2.393,0,0,0-1.147-.731.313.313,0,0,1-.235-.407,3,3,0,0,0,.157-1.915,2.926,2.926,0,0,0-1.64-1.095.31.31,0,0,1-.211-.258,2.643,2.643,0,0,0-.61-1.571,2.984,2.984,0,0,0-2.251-.024c-.216.055-.44.12-.67.2a14.059,14.059,0,0,0-4.176,2.232c-.171.137-.334.276-.488.418" transform="translate(-66.46 -11.644)" fill="#ee7623"/><path d="M4.6,28.614l.081.058a25.823,25.823,0,0,0,5.079,3.114l.17.091a.781.781,0,0,0,.408.087.963.963,0,0,0,.353-.085,1.22,1.22,0,0,0,.468-.334,2.539,2.539,0,0,0,.24-1.053.322.322,0,0,1,.017-.081l-.548-.406-.5-.368L7.833,27.76h0l2.6,1.732.508.339.619.413a.3.3,0,0,1,.093-.035,2.27,2.27,0,0,0,1.207-.559,2.926,2.926,0,0,0,.353-1.483.3.3,0,0,1,.031-.125L12.23,27.19l-.462-.39L9.661,25.022h0l2.172,1.665.477.365,1.092.837a.269.269,0,0,1,.091-.022,2.767,2.767,0,0,0,1.771-.652,2.9,2.9,0,0,0,.27-1.908.3.3,0,0,1,.008-.114l-1.262-1.01-.466-.373-1.781-1.425,1.849,1.341.482.35,1.294.939a.318.318,0,0,1,.135-.057,1.761,1.761,0,0,0,1.293-.743,1.369,1.369,0,0,0,.191-.608c0-.048.006-.095.006-.142a2.8,2.8,0,0,0-.627-1.62,5.473,5.473,0,0,0-.379-.461q-.2-.22-.433-.435c-.155-.142-.318-.281-.489-.418A14.062,14.062,0,0,0,11.469,18.4q-.332-.118-.649-.209a3.353,3.353,0,0,0-2.56-.06,2.644,2.644,0,0,0-.61,1.571.31.31,0,0,1-.211.258,2.925,2.925,0,0,0-1.64,1.1,2.992,2.992,0,0,0,.157,1.914.313.313,0,0,1-.235.408,2.392,2.392,0,0,0-1.147.731c-.46.65.192,1.944.243,2.108a.31.31,0,0,1-.071.31,2.023,2.023,0,0,0-.43.609,2.608,2.608,0,0,0-.074.752,1.027,1.027,0,0,0,.021.188.861.861,0,0,0,.334.541" transform="translate(-2.977 -11.644)" fill="#ee7623"/><path d="M69.7,96.677H68.427a.33.33,0,0,0-.327.292l-.283,2.506a.329.329,0,0,0,.327.366h1.649a.329.329,0,0,0,.329-.341l-.09-2.506a.329.329,0,0,0-.329-.318" transform="translate(-44.315 -62.865)" fill="#ee7623"/><path d="M64.059,131.121H67.55a.354.354,0,0,0,.354-.367l-.188-5.266a.354.354,0,0,0-.354-.341H64.653a.354.354,0,0,0-.352.314l-.594,5.266a.354.354,0,0,0,.352.394" transform="translate(-41.642 -81.378)" fill="#ee7623"/><path d="M68.756,109.231H66.769a.3.3,0,0,0-.3.265l-.4,3.551a.3.3,0,0,0,.3.332h2.513a.3.3,0,0,0,.3-.309l-.127-3.551a.3.3,0,0,0-.3-.288" transform="translate(-43.18 -71.029)" fill="#ee7623"/><path d="M70.475,86.319H69.72a.32.32,0,0,0-.318.284l-.213,1.885a.32.32,0,0,0,.318.356h1.036a.32.32,0,0,0,.32-.332L70.8,86.628a.32.32,0,0,0-.32-.309" transform="translate(-45.207 -56.13)" fill="#ee7623"/><path d="M30.307,8.741c.168.155.329.317.479.481.062.068.12.136.178.206A18.895,18.895,0,0,1,52.7,9.3c.083-.093.167-.185.254-.274s.192-.191.3-.287c.16-.148.333-.3.529-.452a14.863,14.863,0,0,1,4.3-2.323,24.864,24.864,0,0,0-32.4.071,14.769,14.769,0,0,1,4.1,2.253c.2.157.369.3.53.453" transform="translate(-16.917 0)" fill="#541226"/><path d="M6.384,73.442l4-3.969a.171.171,0,0,0,.015-.225A18.91,18.91,0,0,1,6.974,53.821L6.9,53.779c-.619-.331-1.07-.567-1.431-.756a18.152,18.152,0,0,1-3.093-1.955l-.488-.348a.173.173,0,0,0-.267.091,24.969,24.969,0,0,0-1,7.008A24.673,24.673,0,0,0,6.128,73.429a.173.173,0,0,0,.256.013" transform="translate(-0.621 -32.96)" fill="#541226"/><path d="M118.7,57.506a18.832,18.832,0,0,1-3.8,11.367.172.172,0,0,0,.016.225l4,3.97a.173.173,0,0,0,.256-.014,24.672,24.672,0,0,0,5.459-15.548,24.947,24.947,0,0,0-1.049-7.18.174.174,0,0,0-.27-.086l0,0-.724.516a18.092,18.092,0,0,1-3.083,1.949c-.283.148-.63.329-1.072.564l-.068.036a.171.171,0,0,0-.087.188,18.927,18.927,0,0,1,.429,4.011" transform="translate(-74.907 -32.647)" fill="#541226"/><path d="M25.608,86.415,6.15,105.247a.324.324,0,0,0,.226.555l9.208.069a.324.324,0,0,0,.289-.173L26.124,86.8a.324.324,0,0,0-.516-.382" transform="translate(-4.153 -56.129)" fill="#541226"/><path d="M80.4,86.422a.325.325,0,0,0-.516.382l10.251,18.9a.325.325,0,0,0,.29.173l9.205-.069a.325.325,0,0,0,.226-.555Z" transform="translate(-52.138 -56.134)" fill="#541226"/></g></g></g></svg>