<svg xmlns="http://www.w3.org/2000/svg" width="19.999" height="20" viewBox="0 0 19.999 20"><path d="M19.816,18.912l-5.164-5.081a8.167,8.167,0,0,0,2.183-5.55A8.349,8.349,0,0,0,8.42,0,8.348,8.348,0,0,0,.006,8.281,8.348,8.348,0,0,0,8.42,16.561a8.462,8.462,0,0,0,5.3-1.849l5.184,5.1a.654.654,0,0,0,.915,0A.63.63,0,0,0,19.816,18.912ZM8.42,15.287A7.064,7.064,0,0,1,1.3,8.281,7.064,7.064,0,0,1,8.42,1.274a7.064,7.064,0,0,1,7.12,7.007A7.064,7.064,0,0,1,8.42,15.287Z" transform="translate(-0.006)" fill="#ee7623"/></svg>