<svg xmlns="http://www.w3.org/2000/svg" width="53.65" height="53.649" viewBox="0 0 53.65 53.649"><path d="M26.825,38.141A15.526,15.526,0,0,0,11.317,53.65h4.191a11.252,11.252,0,0,1,1.974-6.379l4.874,4.874a4.7,4.7,0,0,0-.247,1.5H31.54a4.706,4.706,0,0,0-.247-1.5l4.874-4.874a11.253,11.253,0,0,1,1.974,6.379h4.191A15.526,15.526,0,0,0,26.825,38.141Zm-1.5,11.039-4.874-4.874a11.293,11.293,0,0,1,12.758,0l-4.874,4.874a4.712,4.712,0,0,0-3.01,0Zm20.473-14.5A26.722,26.722,0,0,0,35.6,28.288a15.508,15.508,0,1,0-17.549,0A26.867,26.867,0,0,0,0,53.65H4.191a22.633,22.633,0,1,1,45.267,0H53.65a26.65,26.65,0,0,0-7.857-18.968ZM15.508,15.508A11.317,11.317,0,1,1,26.825,26.825,11.329,11.329,0,0,1,15.508,15.508Z" fill="#ee7623"/></svg>