<svg width="78" height="51" viewBox="0 0 78 51" fill="none" xmlns="http://www.w3.org/2000/svg">
<g clip-path="url(#clip0_148_61)">
<path d="M0 25.6121C0.435 24.1431 0.776 22.6381 1.328 21.2161C2.22722 19.1133 3.58978 17.2407 5.314 15.7381C6.081 15.0141 6.749 14.1881 7.385 13.4921C6.48873 13.0475 5.62194 12.5458 4.79 11.9901C4.19332 11.527 3.70096 10.9433 3.345 10.2771C3.17915 10.011 3.07135 9.71284 3.02864 9.40219C2.98593 9.09153 3.00928 8.77536 3.09716 8.47435C3.18503 8.17334 3.33546 7.89427 3.5386 7.65539C3.74174 7.41651 3.99302 7.2232 4.276 7.08811C5.98965 6.12 7.99433 5.80055 9.924 6.18811C10.4292 6.27602 10.8919 6.52628 11.242 6.90092C11.5921 7.27556 11.8105 7.75415 11.864 8.26411C11.921 8.55611 11.964 8.85111 12.025 9.23211C12.284 9.00011 12.49 8.82511 12.684 8.63711C14.709 6.69111 16.725 4.73711 18.757 2.79611C19.6709 1.89851 20.7529 1.19004 21.941 0.711288C23.1292 0.232532 24.4001 -0.00710515 25.681 0.00610547C34.487 -0.00789453 43.2923 -0.00789453 52.097 0.00610547C53.3783 -0.0048735 54.6491 0.23756 55.8363 0.719462C57.0236 1.20136 58.1038 1.91322 59.015 2.81411C61.223 4.92811 63.42 7.05411 65.715 9.26011C65.769 8.97511 65.808 8.79511 65.836 8.61011C65.8387 8.2713 65.9089 7.93642 66.0425 7.62507C66.1762 7.31373 66.3706 7.03216 66.6144 6.79685C66.8581 6.56155 67.1464 6.37722 67.4623 6.25467C67.7782 6.13211 68.1153 6.07379 68.454 6.08311C70.0993 5.8988 71.7627 6.19763 73.241 6.94311C73.5961 7.0892 73.9115 7.31756 74.1611 7.60936C74.4108 7.90117 74.5875 8.24809 74.6769 8.62157C74.7662 8.99504 74.7656 9.3844 74.675 9.75758C74.5845 10.1308 74.4066 10.4771 74.156 10.7681C73.3387 11.905 72.184 12.7555 70.856 13.1991C70.646 13.2781 70.435 13.3491 69.929 13.5271C70.2378 13.7283 70.5335 13.9491 70.814 14.1881C72.465 15.8531 74.314 17.3381 75.514 19.4161C76.956 21.7806 77.7305 24.4917 77.755 27.2611C77.741 30.2971 77.741 33.3334 77.755 36.3701C77.8016 38.6434 77.0253 40.8569 75.569 42.6031C75.3844 42.8622 75.2823 43.171 75.276 43.4891C75.222 44.7511 75.276 46.0221 75.176 47.2791C75.099 48.1843 74.7062 49.0336 74.0665 49.6785C73.4267 50.3234 72.5805 50.7229 71.676 50.8071C69.6828 50.9374 67.6836 50.9494 65.689 50.8431C65.154 50.8375 64.6255 50.7252 64.1345 50.5126C63.6434 50.3001 63.1998 49.9916 62.8296 49.6054C62.4593 49.2191 62.1699 48.7628 61.9784 48.2632C61.7868 47.7637 61.6969 47.2309 61.714 46.6961C61.698 46.4251 61.714 46.1501 61.714 45.8441H16.088C16.049 46.3221 16.022 46.7711 15.973 47.2181C15.8945 48.1481 15.4888 49.0202 14.828 49.6793C14.1673 50.3384 13.2942 50.7419 12.364 50.8181C10.4211 50.9444 8.47236 50.9565 6.528 50.8541C5.97367 50.8526 5.42554 50.7375 4.91746 50.5158C4.40938 50.2941 3.95215 49.9706 3.574 49.5653C3.19586 49.16 2.90483 48.6814 2.7189 48.1592C2.53297 47.637 2.45609 47.0822 2.493 46.5291C2.469 45.5181 2.493 44.5051 2.48 43.4941C2.50653 43.2466 2.45403 42.997 2.33 42.7811C1.11755 41.3464 0.312838 39.6123 0 37.7601L0 25.6121ZM12.494 14.4381H65.24C65.1688 14.3333 65.091 14.2331 65.007 14.1381C62.1 11.3181 59.218 8.47811 56.273 5.70011C55.1727 4.65922 53.7116 4.08567 52.197 4.10011C43.317 4.08611 34.4373 4.08611 25.558 4.10011C23.9923 4.09596 22.4874 4.70637 21.367 5.80011C18.507 8.51911 15.69 11.2841 12.858 14.0321C12.758 14.1321 12.664 14.2501 12.494 14.4411M21.1 26.5191C21.0377 28.0756 21.3802 29.6216 22.094 31.0061C22.4932 31.926 23.1668 32.7001 24.0229 33.2225C24.8789 33.7448 25.8754 33.9899 26.876 33.9241C34.969 33.8531 43.065 33.9031 51.16 33.8851C51.8137 33.8945 52.4642 33.7931 53.084 33.5851C54.2394 33.0965 55.1581 32.1757 55.644 31.0191C56.3652 29.6324 56.7101 28.0808 56.644 26.5191H21.1ZM22.516 37.0051C22.5182 37.62 22.6476 38.2277 22.896 38.7901C23.1444 39.3526 23.5064 39.8575 23.9594 40.2733C24.4124 40.6891 24.9464 41.0066 25.528 41.2061C26.1096 41.4055 26.7262 41.4825 27.339 41.4321C35.027 41.4414 42.7147 41.4414 50.402 41.4321C50.702 41.4321 51.009 41.4231 51.311 41.3961C52.3871 41.2791 53.3804 40.7631 54.0949 39.9499C54.8094 39.1367 55.1934 38.0854 55.171 37.0031L22.516 37.0051ZM10.342 29.7521C10.342 29.7271 10.342 29.7001 10.342 29.6751C11.1497 29.7116 11.9588 29.7063 12.766 29.6591C13.9206 29.5584 15.0661 29.3719 16.193 29.1011C17.611 28.7321 17.914 27.7761 17.086 26.5841C16.8293 26.2087 16.5322 25.8626 16.2 25.5521C14.0563 23.5787 11.5406 22.0526 8.8 21.0631C8.06705 20.7639 7.25975 20.6975 6.48777 20.873C5.71579 21.0485 5.01655 21.4574 4.485 22.0441C3.86162 22.6305 3.42943 23.3912 3.2448 24.2269C3.06018 25.0627 3.13168 25.9346 3.45 26.7291C3.67201 27.4883 4.11547 28.164 4.72365 28.6697C5.33183 29.1755 6.07706 29.4883 6.864 29.5681C8.014 29.7051 9.183 29.6961 10.342 29.7531M67.391 29.8731C67.399 29.8321 67.405 29.7931 67.412 29.7531C68.573 29.6961 69.74 29.7071 70.89 29.5671C71.6762 29.4868 72.4206 29.1739 73.028 28.6684C73.6355 28.1629 74.0783 27.4877 74.3 26.7291C74.6178 25.9346 74.6887 25.0627 74.5033 24.2272C74.318 23.3918 73.885 22.6317 73.261 22.0461C72.7283 21.4611 72.0294 21.0531 71.258 20.8768C70.4867 20.7006 69.6799 20.7645 68.946 21.0601C66.682 21.8687 64.571 23.054 62.702 24.5661C61.8771 25.2281 61.1431 25.9961 60.519 26.8501C59.868 27.7501 60.185 28.5241 61.2 28.9811C61.448 29.1061 61.7133 29.1934 61.987 29.2401C63.787 29.4621 65.587 29.6641 67.387 29.8721M19.587 41.3961C19.5612 41.3046 19.5242 41.2166 19.477 41.1341C17.819 39.2241 16.165 37.3111 14.485 35.4191C14.2886 35.2369 14.0309 35.1352 13.763 35.1341C11.3357 35.1134 8.90733 35.1134 6.478 35.1341C6.35823 35.1272 6.23832 35.1448 6.12555 35.1857C6.01278 35.2266 5.90951 35.29 5.822 35.3721C5.46083 35.8336 5.23747 36.3879 5.17767 36.9708C5.11786 37.5538 5.22406 38.1419 5.484 38.6671C5.93172 39.4826 6.58754 40.1648 7.38469 40.6443C8.18183 41.1239 9.09182 41.3836 10.022 41.3971C12.997 41.5631 15.989 41.4381 18.975 41.4331C19.164 41.4331 19.354 41.4111 19.589 41.3981M58.051 41.4451C61.169 41.4451 64.103 41.4061 67.035 41.4611C68.5366 41.4649 69.9935 40.9507 71.16 40.0051C71.8466 39.5511 72.3308 38.8491 72.5113 38.046C72.6917 37.2429 72.5544 36.4012 72.128 35.6971C72.057 35.5117 71.927 35.3548 71.7581 35.2505C71.5891 35.1462 71.3906 35.1004 71.193 35.1201C68.814 35.1421 66.437 35.1121 64.061 35.1501C63.701 35.1783 63.3643 35.339 63.116 35.6011C61.543 37.3491 60.007 39.1311 58.463 40.9011C58.353 41.0271 58.263 41.1661 58.051 41.4421" fill="#EE7623"/>
</g>
<defs>
<clipPath id="clip0_148_61">
<rect width="77.757" height="50.925" fill="white"/>
</clipPath>
</defs>
</svg>
