<svg xmlns="http://www.w3.org/2000/svg" xmlns:xlink="http://www.w3.org/1999/xlink" width="67.731" height="44.358" viewBox="0 0 67.731 44.358"><defs><clipPath id="a"><path d="M0,12.072H67.731V-32.286H0Z" transform="translate(0 32.286)" fill="#ee7623"/></clipPath></defs><g transform="translate(0 0)" clip-path="url(#a)"><g transform="translate(0 0)"><path d="M0,6.071c.379-1.279.676-2.59,1.157-3.829A13.228,13.228,0,0,1,4.629-2.525c.668-.631,1.25-1.351,1.8-1.956a20.347,20.347,0,0,1-2.26-1.312A4.682,4.682,0,0,1,2.914-7.286a1.941,1.941,0,0,1,.811-2.778,7.145,7.145,0,0,1,4.92-.78,2.053,2.053,0,0,1,1.69,1.808c.049.254.085.511.14.844.225-.2.405-.354.574-.518,1.764-1.7,3.52-3.4,5.29-5.088a8.482,8.482,0,0,1,6.031-2.43q11.506-.019,23.01,0a8.468,8.468,0,0,1,6.026,2.446c1.923,1.841,3.837,3.693,5.834,5.615.047-.249.081-.405.106-.566a2.219,2.219,0,0,1,2.281-2.2,7.425,7.425,0,0,1,4.17.749,2.113,2.113,0,0,1,.8,3.332,5.806,5.806,0,0,1-2.878,2.117c-.183.069-.367.131-.808.286a7.5,7.5,0,0,1,.771.576,23.23,23.23,0,0,1,4.1,4.55,13.352,13.352,0,0,1,1.952,6.834q-.019,3.967,0,7.934a8.214,8.214,0,0,1-1.9,5.43,1.377,1.377,0,0,0-.256.772c-.047,1.1,0,2.206-.085,3.3A3.374,3.374,0,0,1,62.44,28.02a44.037,44.037,0,0,1-5.215.032,3.5,3.5,0,0,1-3.462-3.612c-.014-.236,0-.475,0-.742H14.014c-.034.416-.058.808-.1,1.2a3.436,3.436,0,0,1-3.143,3.134,43.28,43.28,0,0,1-5.083.032,3.532,3.532,0,0,1-3.514-3.767c-.021-.881,0-1.763-.011-2.643a1.027,1.027,0,0,0-.131-.621A9.132,9.132,0,0,1,0,16.653ZM10.883-3.66H56.828a2.6,2.6,0,0,0-.2-.264c-2.531-2.455-5.042-4.93-7.607-7.349a5.1,5.1,0,0,0-3.55-1.393q-11.6-.019-23.2,0a5.206,5.206,0,0,0-3.65,1.478c-2.491,2.369-4.945,4.777-7.412,7.17-.091.088-.169.19-.317.356m7.5,10.521a7.844,7.844,0,0,0,.866,3.909,4.238,4.238,0,0,0,4.166,2.542c7.05-.062,14.1-.018,21.153-.034a5.04,5.04,0,0,0,1.676-.261,4.188,4.188,0,0,0,2.23-2.235,7.782,7.782,0,0,0,.871-3.92ZM19.617,16a3.883,3.883,0,0,0,4.2,3.857q10.045.012,20.089,0c.264,0,.529-.008.791-.032A3.771,3.771,0,0,0,48.061,16ZM9.009,9.678c0-.022,0-.045,0-.067A20.413,20.413,0,0,0,11.122,9.6a20.337,20.337,0,0,0,2.985-.486c1.235-.321,1.5-1.154.778-2.193a5.412,5.412,0,0,0-.771-.9,19.089,19.089,0,0,0-6.444-3.91,3.359,3.359,0,0,0-3.759.855A3.709,3.709,0,0,0,3,7.044,3.462,3.462,0,0,0,5.979,9.517c1,.12,2.02.111,3.029.161m49.693.1c.007-.036.012-.07.018-.1,1.011-.049,2.028-.04,3.029-.162a3.461,3.461,0,0,0,2.975-2.472,3.706,3.706,0,0,0-.905-4.079,3.377,3.377,0,0,0-3.759-.859A18.586,18.586,0,0,0,54.62,5.161a10.477,10.477,0,0,0-1.9,1.989c-.567.78-.291,1.458.594,1.856A2.434,2.434,0,0,0,54,9.231c1.566.194,3.137.37,4.7.551M17.068,19.82a1.012,1.012,0,0,0-.1-.228c-1.444-1.664-2.885-3.33-4.348-4.978a.93.93,0,0,0-.629-.249q-3.172-.027-6.346,0a.771.771,0,0,0-.572.207,2.708,2.708,0,0,0-.294,2.87,4.585,4.585,0,0,0,3.953,2.378c2.591.144,5.2.036,7.8.032.165,0,.33-.019.534-.03m33.5.041c2.716,0,5.272-.034,7.826.014a5.683,5.683,0,0,0,3.593-1.268,2.775,2.775,0,0,0,.844-3.752.788.788,0,0,0-.815-.5c-2.072.019-4.142-.007-6.213.026a1.271,1.271,0,0,0-.823.393c-1.37,1.522-2.708,3.075-4.053,4.619-.1.11-.176.231-.359.471" transform="translate(0 16.238)" fill="#ee7623"/></g></g></svg>