<svg xmlns="http://www.w3.org/2000/svg" width="60.172" height="60.172" viewBox="0 0 60.172 60.172"><path d="M30.093,0h-.015A30.067,30.067,0,0,0,5.728,47.72L1.978,58.9l11.564-3.7A30.081,30.081,0,1,0,30.093,0Z" fill="#4caf50"/><path d="M142.258,145.813c-.726,2.05-3.607,3.749-5.9,4.246-1.572.335-3.625.6-10.538-2.264-8.842-3.663-14.535-12.647-14.979-13.23-.425-.583-3.573-4.757-3.573-9.075a9.6,9.6,0,0,1,3.076-7.322,4.371,4.371,0,0,1,3.076-1.079c.372,0,.707.019,1.008.034.884.038,1.328.09,1.91,1.485.726,1.749,2.493,6.066,2.7,6.51a1.791,1.791,0,0,1,.128,1.628,5.2,5.2,0,0,1-.974,1.38c-.444.511-.865.9-1.309,1.452-.406.478-.865.989-.354,1.873a26.7,26.7,0,0,0,4.881,6.066,22.119,22.119,0,0,0,7.055,4.351,1.9,1.9,0,0,0,2.121-.335,36.4,36.4,0,0,0,2.35-3.114,1.679,1.679,0,0,1,2.159-.654c.812.282,5.111,2.407,5.995,2.847s1.467.654,1.681,1.027A7.493,7.493,0,0,1,142.258,145.813Z" transform="translate(-94.658 -103.327)" fill="#fafafa"/></svg>